<svg xmlns="http://www.w3.org/2000/svg" xmlns:xlink="http://www.w3.org/1999/xlink" width="81" height="74" viewBox="0 0 81 74">
  <defs>
    <clipPath id="clip-Web_1920_200">
      <rect width="81" height="74"/>
    </clipPath>
  </defs>
  <g id="Web_1920_200" data-name="Web 1920 – 200" clip-path="url(#clip-Web_1920_200)">
    <g id="Group_3578" data-name="Group 3578" transform="translate(-46.015 -65.731)">
      <g id="Group_3577" data-name="Group 3577" transform="translate(46.309 66.834)">
        <path id="Path_2515" data-name="Path 2515" d="M89.879,102.915V76.937a2.454,2.454,0,0,0-2.451-2.452h-7.98V72.307a.961.961,0,0,0-.962-.962H78.41v-.364a5.137,5.137,0,0,0-5.131-5.131H61.818a5.137,5.137,0,0,0-5.131,5.131v.364h-.115a.961.961,0,0,0-.962.962v2.179H47.669a2.454,2.454,0,0,0-2.451,2.452v25.978a2.454,2.454,0,0,0,2.451,2.452H87.427A2.454,2.454,0,0,0,89.879,102.915ZM63.115,74.486V72.307a.961.961,0,0,0-.962-.962h-.047l0-.312L72.98,71.02v.325H72.9a.961.961,0,0,0-.962.962v2.179H63.115Zm10.751-1.217h3.658v1.217H73.866ZM58.61,70.981a3.211,3.211,0,0,1,3.208-3.208H73.278a3.211,3.211,0,0,1,3.208,3.208v.364H74.9v-.325a1.912,1.912,0,0,0-1.91-1.91H62.1a1.912,1.912,0,0,0-1.91,1.91v.325H58.61v-.364Zm-1.076,2.287h3.658v1.217H57.534ZM47.141,102.915V97.175H61.149a.962.962,0,0,0,0-1.923H47.141V76.937a.529.529,0,0,1,.528-.528H87.427a.529.529,0,0,1,.528.528V95.252H73.948a.962.962,0,1,0,0,1.923H87.955v5.74a.529.529,0,0,1-.528.528H47.669A.529.529,0,0,1,47.141,102.915Z" transform="translate(-45.218 -65.85)" fill="#e6b510"/>
        <path id="Path_2516" data-name="Path 2516" d="M147.99,203.788h-2.837a2.1,2.1,0,0,0-2.1,2.1v4.823a2.1,2.1,0,0,0,2.1,2.1h2.837a2.1,2.1,0,0,0,2.1-2.1v-4.823A2.1,2.1,0,0,0,147.99,203.788Zm.173,6.919a.173.173,0,0,1-.173.173h-2.837a.173.173,0,0,1-.173-.173v-4.823a.174.174,0,0,1,.173-.173h2.837a.173.173,0,0,1,.173.173Z" transform="translate(-124.279 -177.317)" fill="#e6b510"/>
        <path id="Path_2517" data-name="Path 2517" d="M276.763,249.305h-7.98v-2.179a.961.961,0,0,0-.962-.962h-.076V245.8a5.137,5.137,0,0,0-5.131-5.131H251.153a5.136,5.136,0,0,0-5.131,5.131v.364h-.114a.961.961,0,0,0-.962.962v2.179h-7.942a2.454,2.454,0,0,0-2.451,2.452v25.978a2.454,2.454,0,0,0,2.451,2.452h39.758a2.454,2.454,0,0,0,2.452-2.452V251.757a2.455,2.455,0,0,0-2.452-2.451Zm-24.312,0v-2.179a.961.961,0,0,0-.962-.962h-.047l0-.312,10.877-.013v.325h-.076a.961.961,0,0,0-.962.962v2.179h-8.828Zm10.751-1.217h3.658v1.217H263.2ZM247.945,245.8a3.211,3.211,0,0,1,3.208-3.208h11.461a3.211,3.211,0,0,1,3.208,3.208v.364h-1.583v-.325a1.912,1.912,0,0,0-1.91-1.91h-10.89a1.912,1.912,0,0,0-1.91,1.91v.325h-1.583V245.8Zm-1.076,2.288h3.658v1.217h-3.658Zm29.894,30.175H237a.529.529,0,0,1-.528-.529v-5.74h14.008a.962.962,0,1,0,0-1.923H236.476V251.757a.529.529,0,0,1,.528-.528h39.758a.529.529,0,0,1,.528.528v18.315H263.283a.962.962,0,0,0,0,1.923h14.008v5.74a.529.529,0,0,1-.528.529Z" transform="translate(-198.294 -207.186)" fill="#e6b510"/>
        <path id="Path_2518" data-name="Path 2518" d="M337.323,378.6h-2.837a2.1,2.1,0,0,0-2.1,2.1v4.823a2.1,2.1,0,0,0,2.1,2.1h2.837a2.1,2.1,0,0,0,2.1-2.1V380.7A2.1,2.1,0,0,0,337.323,378.6Zm.173,6.919a.173.173,0,0,1-.173.173h-2.837a.173.173,0,0,1-.173-.173V380.7a.173.173,0,0,1,.173-.173h2.837a.173.173,0,0,1,.173.173Z" transform="translate(-277.276 -318.594)" fill="#e6b510"/>
      </g>
      <path id="Path_2519" data-name="Path 2519" d="M304.7,167.482a.974.974,0,0,0-1.378,0L301.4,169.4v-3a7.089,7.089,0,0,0-7.081-7.081h-5.24a.974.974,0,1,0,0,1.949h5.24a5.138,5.138,0,0,1,5.132,5.132v3l-1.919-1.919a.974.974,0,0,0-1.378,1.378l3.582,3.582a.983.983,0,0,0,.15.122c.023.016.048.026.073.039a.962.962,0,0,0,.1.05.949.949,0,0,0,.1.03c.028.008.055.019.085.025a.96.96,0,0,0,.381,0c.029-.006.057-.017.085-.025s.065-.017.1-.03a.972.972,0,0,0,.1-.05c.024-.013.049-.024.072-.039a.985.985,0,0,0,.15-.122l3.582-3.582a.974.974,0,0,0,0-1.378Z" transform="translate(-195.548 -75.255)" fill="#e6b510"/>
      <path id="Path_2520" data-name="Path 2520" d="M153.2,295.356h-5.24a5.138,5.138,0,0,1-5.132-5.132v-3l1.919,1.919a.974.974,0,1,0,1.378-1.378l-3.582-3.582a.984.984,0,0,0-.15-.122c-.023-.016-.048-.026-.072-.039a.952.952,0,0,0-.1-.05.856.856,0,0,0-.1-.03c-.028-.008-.055-.019-.084-.025a.984.984,0,0,0-.382,0c-.029.006-.056.017-.084.025s-.066.017-.1.03a.952.952,0,0,0-.1.05c-.024.013-.049.024-.073.039a.985.985,0,0,0-.15.122l-3.582,3.582a.974.974,0,0,0,1.378,1.378l1.92-1.919v3a7.089,7.089,0,0,0,7.081,7.081h5.24a.975.975,0,1,0,0-1.949Z" transform="translate(-74.133 -175.553)" fill="#e6b510"/>
    </g>
  </g>
</svg>
