<svg xmlns="http://www.w3.org/2000/svg" xmlns:xlink="http://www.w3.org/1999/xlink" width="74" height="74" viewBox="0 0 74 74">
  <defs>
    <clipPath id="clip-Web_1920_201">
      <rect width="74" height="74"/>
    </clipPath>
  </defs>
  <g id="Web_1920_201" data-name="Web 1920 – 201" clip-path="url(#clip-Web_1920_201)">
    <g id="Group_3504" data-name="Group 3504" transform="translate(-924 -2264)">
      <g id="Group_3503" data-name="Group 3503" transform="translate(331.458 758.028)">
        <path id="Path_2447" data-name="Path 2447" d="M602.483,1522.839a5.844,5.844,0,1,0-5.844-5.844,5.848,5.848,0,0,0,5.844,5.844Zm0-9.518A3.673,3.673,0,1,1,598.81,1517,3.676,3.676,0,0,1,602.483,1513.322Z" transform="translate(17.752 19.156)" fill="#e6b510"/>
        <path id="Path_2448" data-name="Path 2448" d="M599.653,1515.565l-.647-.433a1.08,1.08,0,0,0-.818-.16,1.06,1.06,0,0,0-.69.46,12.308,12.308,0,0,0-2.08,6.561,1.081,1.081,0,0,0,1.059,1.111l.775.022a10.448,10.448,0,0,0,.663,2.941l-.7.352a1.092,1.092,0,0,0-.481,1.46,12.424,12.424,0,0,0,4.678,5.036,1.09,1.09,0,0,0,1.492-.369l.406-.674a10.477,10.477,0,0,0,2.888.877l-.038.781a1.1,1.1,0,0,0,1.037,1.139c.193.011.39.011.589.011a12.363,12.363,0,0,0,6.1-1.6,1.057,1.057,0,0,0,.508-.653,1.071,1.071,0,0,0-.1-.829l-.385-.679a10.737,10.737,0,0,0,2.187-2.08l.658.416a1.089,1.089,0,0,0,1.5-.336,12.386,12.386,0,0,0,1.909-6.609,1.086,1.086,0,0,0-1.085-1.085H618.3a10.672,10.672,0,0,0-.54-2.422l.706-.337a1.084,1.084,0,0,0,.513-1.444,12.357,12.357,0,0,0-4.545-5.154,1.079,1.079,0,0,0-.818-.145,1.062,1.062,0,0,0-.684.476l-.417.657a10.627,10.627,0,0,0-2.866-.946l.053-.781a1.092,1.092,0,0,0-1.005-1.166c-.3-.021-.6-.032-.909-.032a12.368,12.368,0,0,0-5.818,1.455,1.07,1.07,0,0,0-.529.641,1.116,1.116,0,0,0,.08.828l.369.69a10.678,10.678,0,0,0-2.235,2.021Zm1.155,2.08a8.516,8.516,0,0,1,3.037-2.748,1.085,1.085,0,0,0,.444-1.47l-.31-.588a10.269,10.269,0,0,1,3.47-.727l-.048.663a1.094,1.094,0,0,0,.262.791,1.073,1.073,0,0,0,.743.374,8.352,8.352,0,0,1,3.882,1.284,1.091,1.091,0,0,0,.823.145,1.069,1.069,0,0,0,.679-.476l.358-.562a10.054,10.054,0,0,1,2.347,2.663l-.6.283a1.086,1.086,0,0,0-.519,1.449,8.334,8.334,0,0,1,.8,3.582,1.086,1.086,0,0,0,1.085,1.085h.669a10.144,10.144,0,0,1-.99,3.411l-.561-.358a1.089,1.089,0,0,0-1.5.337,8.392,8.392,0,0,1-2.967,2.828,1.085,1.085,0,0,0-.407,1.481l.326.578a10.141,10.141,0,0,1-3.454.823l.032-.668a1.091,1.091,0,0,0-1.032-1.139,8.41,8.41,0,0,1-3.914-1.182,1.077,1.077,0,0,0-.823-.129,1.122,1.122,0,0,0-.668.5l-.348.571a10.345,10.345,0,0,1-2.417-2.6l.6-.3a1.09,1.09,0,0,0,.481-1.46,8.249,8.249,0,0,1-.9-3.775l.005-.219a1.1,1.1,0,0,0-.3-.776,1.084,1.084,0,0,0-.759-.337l-.668-.016a10.169,10.169,0,0,1,1.069-3.384l.556.369a1.111,1.111,0,0,0,.818.166,1.093,1.093,0,0,0,.69-.466Z" transform="translate(12.451 13.848)" fill="#e6b510"/>
        <path id="Path_2449" data-name="Path 2449" d="M657.043,1557.008a13.047,13.047,0,0,0,2.753-8.126c0-.117-.006-.234-.006-.352h1.8a2.387,2.387,0,0,0,2.385-2.384v-3.073a2.391,2.391,0,0,0-2.385-2.384h-.059a12.776,12.776,0,0,0-4.193-6.034,12.475,12.475,0,0,0-3.905-2.1v-.784a2.033,2.033,0,0,0-2.027-2.028h-.811v-21.933a1.084,1.084,0,0,0-1.083-1.083H593.63a1.085,1.085,0,0,0-1.088,1.083v47.231a1.085,1.085,0,0,0,1.088,1.083h6.648a1.083,1.083,0,1,0,0-2.166h-5.565v-35.185h53.708v10.969h-.811a2.033,2.033,0,0,0-2.027,2.028v.784a12.706,12.706,0,0,0-8.1,8.131h-.059a2.39,2.39,0,0,0-2.385,2.384v3.073a2.387,2.387,0,0,0,2.385,2.384h1.8l-.005.352a13.44,13.44,0,0,0,.981,5.079H605.074a1.083,1.083,0,0,0,0,2.166h36.263c.2.3.411.6.635.875a16.935,16.935,0,0,0-8.91,11.433,1.078,1.078,0,0,0,.822,1.291.913.913,0,0,0,.235.026,1.082,1.082,0,0,0,1.056-.848,14.767,14.767,0,0,1,8.408-10.266,9.115,9.115,0,0,0,11.849,0,14.69,14.69,0,0,1,8.749,13.418v5.506H634.833v-4.55a1.083,1.083,0,0,0-2.166,0v5.633a1.083,1.083,0,0,0,1.083,1.083h31.515a1.084,1.084,0,0,0,1.083-1.083v-6.589A16.825,16.825,0,0,0,657.043,1557.008Zm-62.33-40.4V1514.4H610v2.208Zm22.21,0V1514.4h15.291v2.208Zm17.456,0v-3.292a1.08,1.08,0,0,0-1.083-1.083H615.84a1.084,1.084,0,0,0-1.083,1.083v3.292H612.17v-3.292a1.084,1.084,0,0,0-1.083-1.083H594.713v-3.34h53.708v7.715Zm21.613,19.74a10.6,10.6,0,0,1,3.233,4.337h-5.794v-5.825a10.534,10.534,0,0,1,2.561,1.488Zm-4.732-4.433v8.771h-3.505v-8.771Zm-5.676,2.945v5.825H639.79A10.542,10.542,0,0,1,645.584,1534.863Zm-8.371,11.283v-3.073a.214.214,0,0,1,.214-.213h24.163a.214.214,0,0,1,.213.213v3.073a.219.219,0,0,1-.213.219H637.426A.219.219,0,0,1,637.213,1546.146Zm4.178,2.737c0-.117,0-.234.005-.352H657.62c.005.118.005.235.005.352,0,5.394-3.639,9.78-8.12,9.78S641.39,1554.276,641.39,1548.882Z" transform="translate(0 0)" fill="#e6b510"/>
      </g>
    </g>
  </g>
</svg>
