<svg xmlns="http://www.w3.org/2000/svg" xmlns:xlink="http://www.w3.org/1999/xlink" width="73" height="73" viewBox="0 0 73 73">
  <defs>
    <clipPath id="clip-Web_1920_199">
      <rect width="73" height="73"/>
    </clipPath>
  </defs>
  <g id="Web_1920_199" data-name="Web 1920 – 199" clip-path="url(#clip-Web_1920_199)">
    <g id="Group_3502" data-name="Group 3502" transform="translate(-1088 -2399)">
      <g id="surface1" transform="translate(1088 2399)">
        <path id="Path_2441" data-name="Path 2441" d="M609.763,1491.62a1.064,1.064,0,0,0,1.064,1.064h1.782v12.676H599.934v-12.676h6.335a1.067,1.067,0,1,0,0-2.133h-6.834a1.642,1.642,0,0,0-1.64,1.639v13.669a1.642,1.642,0,0,0,1.64,1.64h13.673a1.637,1.637,0,0,0,1.635-1.64V1492.19a1.637,1.637,0,0,0-1.635-1.639h-2.281A1.065,1.065,0,0,0,609.763,1491.62Z" transform="translate(-569.771 -1462.522)" fill="#e6b510"/>
        <path id="Path_2442" data-name="Path 2442" d="M594.774,1485.894a1.641,1.641,0,0,0-1.635,1.64v7.4a1.637,1.637,0,0,0,1.635,1.64h7.409a1.637,1.637,0,0,0,1.635-1.64v-7.4a1.641,1.641,0,0,0-1.635-1.64Zm6.911,8.546h-6.412v-6.407h6.412Z" transform="translate(-588.867 -1481.621)" fill="#e6b510"/>
        <path id="Path_2443" data-name="Path 2443" d="M602.183,1496.438h-7.409a1.638,1.638,0,0,0-1.635,1.64v7.4a1.637,1.637,0,0,0,1.635,1.635h7.409a1.637,1.637,0,0,0,1.635-1.635v-7.4A1.638,1.638,0,0,0,602.183,1496.438Zm-.5,8.545h-6.412v-6.411h6.412Z" transform="translate(-588.867 -1438.389)" fill="#e6b510"/>
        <path id="Path_2444" data-name="Path 2444" d="M648.833,1504.305h13.688a2.785,2.785,0,0,0,2.779-2.778v-13.689a2.786,2.786,0,0,0-2.779-2.784H648.833a2.787,2.787,0,0,0-2.783,2.784v5.771H633.218a1.069,1.069,0,0,0-1.065,1.07V1508.8H626.3v-4.176a3.206,3.206,0,1,0-2.141,0v4.176h-4.777a3.355,3.355,0,0,0-3.349,3.35v6.2H602.991v-14.045h5.776a2.781,2.781,0,0,0,2.778-2.778v-2.784a1.068,1.068,0,1,0-2.136,0v2.784a.642.642,0,0,1-.642.637H595.079a.642.642,0,0,1-.642-.637v-13.689a.643.643,0,0,1,.642-.642h13.689a.643.643,0,0,1,.642.642v6.342a1.068,1.068,0,1,0,2.136,0v-6.342a2.783,2.783,0,0,0-2.778-2.784H595.079a2.783,2.783,0,0,0-2.779,2.784v13.689a2.781,2.781,0,0,0,2.779,2.778h5.776v15.111a1.071,1.071,0,0,0,1.07,1.071h14.112v4.563h-1.463a3.207,3.207,0,1,0,0,2.141h1.463v3.778a3.355,3.355,0,0,0,3.349,3.349h4.777v12.7H611.546v-5.429a2.782,2.782,0,0,0-2.778-2.779H595.079a2.782,2.782,0,0,0-2.779,2.779v13.689a2.778,2.778,0,0,0,2.779,2.778h13.689a2.778,2.778,0,0,0,2.778-2.778v-6.118h13.688a1.07,1.07,0,0,0,1.07-1.071v-13.77h5.848v4.746a3.209,3.209,0,1,0,2.136,0v-4.746h3.92a3.351,3.351,0,0,0,3.349-3.349v-7.281h13.051v15.121h-5.776a2.786,2.786,0,0,0-2.783,2.779v2.783a1.071,1.071,0,0,0,2.141,0v-2.783a.643.643,0,0,1,.642-.642h13.688a.642.642,0,0,1,.637.642v13.689a.642.642,0,0,1-.637.642H648.833a.643.643,0,0,1-.642-.642v-6.363a1.07,1.07,0,1,0-2.141,0v6.363a2.783,2.783,0,0,0,2.783,2.778h13.688a2.782,2.782,0,0,0,2.779-2.778v-13.689a2.785,2.785,0,0,0-2.779-2.779h-5.776v-16.192a1.07,1.07,0,0,0-1.07-1.07H641.558v-3.626h5.1a3.206,3.206,0,1,0,0-2.14h-5.1v-3.635a3.352,3.352,0,0,0-3.349-3.35h-3.92V1495.75H646.05v5.777A2.786,2.786,0,0,0,648.833,1504.305Zm-23.6-3.778a1.068,1.068,0,1,1-1.071,1.071A1.07,1.07,0,0,1,625.234,1500.527Zm-13.688,26.663a1.07,1.07,0,1,1,1.07-1.071A1.07,1.07,0,0,1,611.546,1527.191Zm-2.136,28.086a.646.646,0,0,1-.642.642H595.079a.646.646,0,0,1-.642-.642v-13.689a.646.646,0,0,1,.642-.642h13.689a.646.646,0,0,1,.642.642Zm23.808-12.118a1.071,1.071,0,1,1,1.071-1.071A1.069,1.069,0,0,1,633.218,1543.158Zm16.462-27.377a1.07,1.07,0,1,1-1.071,1.071A1.07,1.07,0,0,1,649.68,1515.782Zm-10.257-3.635v18.822a1.212,1.212,0,0,1-1.213,1.208H619.386a1.207,1.207,0,0,1-1.208-1.208v-18.822a1.213,1.213,0,0,1,1.208-1.214h18.823A1.217,1.217,0,0,1,639.422,1512.146Zm9.411-24.95h13.688a.638.638,0,0,1,.637.642v13.689a.637.637,0,0,1-.637.637H648.833a.638.638,0,0,1-.642-.637v-13.689A.639.639,0,0,1,648.833,1487.2Z" transform="translate(-592.3 -1485.055)" fill="#e6b510"/>
        <path id="Path_2445" data-name="Path 2445" d="M605.322,1496.578h7.4a1.638,1.638,0,0,0,1.64-1.64v-7.4a1.642,1.642,0,0,0-1.64-1.64h-7.4a1.645,1.645,0,0,0-1.64,1.64v7.4A1.641,1.641,0,0,0,605.322,1496.578Zm.5-8.545h6.406v6.407h-6.406Z" transform="translate(-545.639 -1481.621)" fill="#e6b510"/>
        <path id="Path_2446" data-name="Path 2446" d="M612.727,1507.117a1.638,1.638,0,0,0,1.64-1.635v-7.4a1.639,1.639,0,0,0-1.64-1.64h-7.4a1.642,1.642,0,0,0-1.64,1.64v7.4a1.641,1.641,0,0,0,1.64,1.635Zm-6.905-8.545h6.406v6.411h-6.406Z" transform="translate(-545.639 -1438.389)" fill="#e6b510"/>
      </g>
    </g>
  </g>
</svg>
