<svg xmlns="http://www.w3.org/2000/svg" xmlns:xlink="http://www.w3.org/1999/xlink" width="70" height="70" viewBox="0 0 70 70">
  <defs>
    <clipPath id="clip-Web_1920_84">
      <rect width="70" height="70"/>
    </clipPath>
  </defs>
  <g id="Web_1920_84" data-name="Web 1920 – 84" clip-path="url(#clip-Web_1920_84)">
    <g id="Group_4027" data-name="Group 4027" transform="translate(3.531 2.935)">
      <g id="contract" transform="translate(0 0)">
        <path id="Path_2430" data-name="Path 2430" d="M230.687,98.41a3.229,3.229,0,0,0-5.917-.775l-.538.936a1.076,1.076,0,0,0-1.463.388l-2.733,4.658-.936-.538a1.075,1.075,0,1,0-1.076,1.861l.936.538-9.144,15.846-2.259,6.036-1.076,2.011a3.228,3.228,0,0,0,.172,3.486l-2.421,2.969-.678-1.7a2.152,2.152,0,0,0-3.841-.3l-.387.656-.366-4.3a2.152,2.152,0,0,0-4.185-.505l-2.646,7.939a1.076,1.076,0,0,0,.678,1.356.932.932,0,0,0,.334.086,1.076,1.076,0,0,0,1.022-.731l2.635-7.939.377,4.367a2.152,2.152,0,0,0,3.991.926l.4-.657.667,1.689a2.151,2.151,0,0,0,3.679.548l2.507-3.173a3.313,3.313,0,0,0,.85.108,3.228,3.228,0,0,0,2.808-1.593l1.076-1.8,4.1-4.981,9.241-16.04.936.538a1.079,1.079,0,0,1,.4,1.474l-4.3,7.455a1.068,1.068,0,1,0,1.818,1.119l4.3-7.455a3.226,3.226,0,0,0-1.183-4.411l-.936-.538,2.689-4.658a1.076,1.076,0,0,0-.387-1.463l.538-.936A3.226,3.226,0,0,0,230.687,98.41Zm-4.056.3a1.075,1.075,0,0,1,.657-.505,1.13,1.13,0,0,1,.817.108,1.077,1.077,0,0,1,.506.656,1.13,1.13,0,0,1-.108.817l-.538.936-1.872-1.076Zm-14.663,30.036-.538-.312-1.592-.926,1.528-4.088,3.389,1.958Zm-3.227,3.109a1.075,1.075,0,0,1-.323-1.409l.538-.936,1.872,1.076-.538.925a1.075,1.075,0,0,1-1.549.344Zm7.24-8.24-3.722-2.152,8.606-14.911,3.722,2.152Zm9.682-16.772-3.722-2.152,2.152-3.722,3.722,2.152Zm0,0" transform="translate(-166.248 -83.112)" fill="#e6b510"/>
        <path id="Path_2431" data-name="Path 2431" d="M75.236,356.855l-3.808,3.8-2.281-2.281a1.076,1.076,0,1,0-1.517,1.528l2.281,2.281a2.169,2.169,0,0,0,3.045,0l3.8-3.808a1.076,1.076,0,0,0-1.517-1.517Zm0,0" transform="translate(-58.261 -308.649)" fill="#e6b510"/>
        <path id="Path_2432" data-name="Path 2432" d="M32,321.185a9.144,9.144,0,0,0,18.288,0,1.076,1.076,0,0,0-2.152,0,6.994,6.994,0,1,1-2.8-5.594,1.076,1.076,0,0,0,1.291-1.721A9.144,9.144,0,0,0,32,321.185Zm0,0" transform="translate(-27.697 -270.085)" fill="#e6b510"/>
        <path id="Path_2433" data-name="Path 2433" d="M101.046,50.191a1.076,1.076,0,1,0,0-2.152H73.076A1.076,1.076,0,0,0,72,49.115v4.3a1.076,1.076,0,0,0,1.076,1.076h27.97a1.076,1.076,0,0,0,0-2.152H74.152V50.191Zm0,0" transform="translate(-62.318 -41.584)" fill="#e6b510"/>
        <path id="Path_2434" data-name="Path 2434" d="M97.076,112.039a1.076,1.076,0,1,0,0,2.152h21.516a1.076,1.076,0,0,0,0-2.152Zm0,0" transform="translate(-83.091 -96.978)" fill="#e6b510"/>
        <path id="Path_2435" data-name="Path 2435" d="M152.743,168.039H129.076a1.076,1.076,0,0,0,0,2.152h23.667a1.076,1.076,0,1,0,0-2.152Zm0,0" transform="translate(-110.787 -145.448)" fill="#e6b510"/>
        <path id="Path_2436" data-name="Path 2436" d="M79.667,217.115a1.076,1.076,0,0,0-1.076-1.076H57.076a1.076,1.076,0,1,0,0,2.152H78.591A1.075,1.075,0,0,0,79.667,217.115Zm0,0" transform="translate(-48.47 -186.993)" fill="#e6b510"/>
        <path id="Path_2437" data-name="Path 2437" d="M256.606,216.039h-7.531a1.076,1.076,0,0,0,0,2.152h7.531a1.076,1.076,0,0,0,0-2.152Zm0,0" transform="translate(-214.651 -186.993)" fill="#e6b510"/>
        <path id="Path_2438" data-name="Path 2438" d="M67.834,258.191a1.076,1.076,0,1,0,0-2.152H57.076a1.076,1.076,0,1,0,0,2.152Zm0,0" transform="translate(-48.47 -221.614)" fill="#e6b510"/>
        <path id="Path_2439" data-name="Path 2439" d="M169.076,258.191h7.53a1.076,1.076,0,1,0,0-2.152h-7.53a1.076,1.076,0,1,0,0,2.152Zm0,0" transform="translate(-145.409 -221.614)" fill="#e6b510"/>
        <path id="Path_2440" data-name="Path 2440" d="M48.41,49.525A1.076,1.076,0,0,0,47.335,50.6V61.359a1.076,1.076,0,0,1-1.076,1.076H3.227a1.076,1.076,0,0,1-1.076-1.076V3.266A1.076,1.076,0,0,1,3.227,2.191H46.259a1.076,1.076,0,0,1,1.076,1.076v20.2a1.076,1.076,0,0,0,2.152,0V3.266A3.228,3.228,0,0,0,46.259.039H3.227A3.228,3.228,0,0,0,0,3.266V61.359a3.227,3.227,0,0,0,3.227,3.227H46.259a3.227,3.227,0,0,0,3.227-3.227V50.6A1.076,1.076,0,0,0,48.41,49.525Zm0,0" transform="translate(0 -0.039)" fill="#e6b510"/>
      </g>
    </g>
  </g>
</svg>
