<svg xmlns="http://www.w3.org/2000/svg" xmlns:xlink="http://www.w3.org/1999/xlink" width="70" height="70" viewBox="0 0 70 70">
  <defs>
    <clipPath id="clip-Web_1920_87">
      <rect width="70" height="70"/>
    </clipPath>
  </defs>
  <g id="Web_1920_87" data-name="Web 1920 – 87" clip-path="url(#clip-Web_1920_87)">
    <g id="Group_4029" data-name="Group 4029" transform="translate(7.406 2.721)">
      <g id="secure-shield" transform="translate(0 0)">
        <g id="Group_3506" data-name="Group 3506" transform="translate(0 0)">
          <g id="Group_3505" data-name="Group 3505" transform="translate(0 0)">
            <path id="Path_2450" data-name="Path 2450" d="M91.935,11.188A107.781,107.781,0,0,1,66,.189a1.362,1.362,0,0,0-1.386,0,104.829,104.829,0,0,1-25.933,11,1.363,1.363,0,0,0-1,1.315V26.429A40.064,40.064,0,0,0,49.847,55.7c5.975,5.855,12.935,9.093,15.462,9.093S74.8,61.556,80.772,55.7A40.064,40.064,0,0,0,92.937,26.429V12.5A1.363,1.363,0,0,0,91.935,11.188ZM90.212,26.429A37.392,37.392,0,0,1,78.864,53.754c-5.876,5.757-12.158,8.314-13.554,8.314s-7.679-2.556-13.555-8.314A37.392,37.392,0,0,1,40.407,26.429V13.537a107.341,107.341,0,0,0,24.9-10.6,110.738,110.738,0,0,0,24.9,10.595Z" transform="translate(-37.681 0)" fill="#e6b510"/>
            <path id="Path_2451" data-name="Path 2451" d="M90.478,99.807a1.363,1.363,0,0,0-1.768-.769c-2.435.959-4.934,1.842-7.428,2.625a1.363,1.363,0,0,0-.955,1.3v5.263a1.363,1.363,0,0,0,2.726,0V103.96c2.237-.724,4.472-1.525,6.656-2.385A1.363,1.363,0,0,0,90.478,99.807Z" transform="translate(-74.93 -86.422)" fill="#e6b510"/>
            <path id="Path_2452" data-name="Path 2452" d="M171.568,88.939a1.364,1.364,0,0,0,.547-.115l.025-.011a1.363,1.363,0,1,0-1.1-2.494l-.022.009a1.362,1.362,0,0,0,.551,2.61Z" transform="translate(-153.432 -75.296)" fill="#e6b510"/>
            <path id="Path_2453" data-name="Path 2453" d="M313.58,345.75a1.363,1.363,0,0,0-1.887.4,33.173,33.173,0,0,1-3.917,4.892,34.816,34.816,0,0,1-3.91,3.478,1.363,1.363,0,1,0,1.653,2.168,37.569,37.569,0,0,0,4.216-3.751,35.867,35.867,0,0,0,4.239-5.3A1.363,1.363,0,0,0,313.58,345.75Z" transform="translate(-269.713 -301.802)" fill="#e6b510"/>
            <path id="Path_2454" data-name="Path 2454" d="M277.322,432.153l-.078.046a1.363,1.363,0,1,0,1.365,2.359l.09-.053a1.363,1.363,0,1,0-1.377-2.352Z" transform="translate(-246.333 -377.301)" fill="#e6b510"/>
            <path id="Path_2455" data-name="Path 2455" d="M130.385,164.65a4.432,4.432,0,1,0-6.268,6.268l8.048,8.048a4.433,4.433,0,0,0,6.268,0l16.8-16.8a4.432,4.432,0,0,0-6.268-6.268L135.3,169.563Zm20.508-6.825a1.706,1.706,0,1,1,2.413,2.413l-16.8,16.8a1.707,1.707,0,0,1-2.413,0l-8.048-8.048a1.706,1.706,0,0,1,2.413-2.413l5.878,5.878a1.363,1.363,0,0,0,1.927,0Z" transform="translate(-112.047 -135.034)" fill="#e6b510"/>
          </g>
        </g>
      </g>
    </g>
  </g>
</svg>
