<svg xmlns="http://www.w3.org/2000/svg" xmlns:xlink="http://www.w3.org/1999/xlink" width="70" height="70" viewBox="0 0 70 70">
  <defs>
    <clipPath id="clip-Web_1920_85">
      <rect width="70" height="70"/>
    </clipPath>
  </defs>
  <g id="Web_1920_85" data-name="Web 1920 – 85" clip-path="url(#clip-Web_1920_85)">
    <g id="Group_4030" data-name="Group 4030" transform="translate(-0.274 13.109)">
      <path id="Path_23" data-name="Path 23" d="M3298.589,1543.366h63.473a1.132,1.132,0,0,0,1.134-1.133V1534.3h3.4a1.133,1.133,0,0,0,1.134-1.134V1527.5a1.132,1.132,0,0,0-1.134-1.133h-3.4v-6.8h3.4a1.133,1.133,0,0,0,1.134-1.133v-5.667a1.132,1.132,0,0,0-1.134-1.133h-3.4v-5.668a1.133,1.133,0,0,0-1.134-1.134h-7.933v-5.667a1.133,1.133,0,0,0-1.134-1.134h-9.068a1.133,1.133,0,0,0-1.133,1.134v5.667h-2.267v-5.667a1.132,1.132,0,0,0-1.133-1.134h-27.2a1.133,1.133,0,0,0-1.134,1.134v5.667h-12.467a1.133,1.133,0,0,0-1.134,1.134v36.271A1.133,1.133,0,0,0,3298.589,1543.366Zm62.34-9.068h-2.267v-7.934h2.267Zm4.534-5.667v3.4H3363.2v-3.4Zm-4.534-9.068h-2.267v-7.933h2.267Zm4.534-5.667v3.4H3363.2v-3.4Zm-13.6-9.067h-2.267v-4.534h2.267Zm-6.8-4.534h2.267v4.534h-2.267Zm-6.8,4.534h-2.266v-4.534h2.266Zm-13.6-2.267v2.267h-2.267v-4.534h6.8v4.534h-2.267v-2.267Zm6.8-2.267h2.267v4.534h-2.267Zm-18.135,0h6.8v4.534h-2.267v-2.267h-2.267v2.267h-2.267Zm-13.6,6.8h61.206v2.267h-3.4a1.132,1.132,0,0,0-1.133,1.134v10.2a1.133,1.133,0,0,0,1.133,1.134h3.4v2.267h-3.4a1.133,1.133,0,0,0-1.133,1.134v10.2a1.133,1.133,0,0,0,1.133,1.134h3.4v4.534h-61.206Z" transform="translate(-3297.456 -1498.027)" fill="#e6b510"/>
      <path id="Path_24" data-name="Path 24" d="M3323.949,1509.787a14.735,14.735,0,1,0,14.735,14.735A14.752,14.752,0,0,0,3323.949,1509.787Zm4.867,17.8a6.65,6.65,0,0,1,1.935,4.671v2.7a12.389,12.389,0,0,1-6.307,2.005l.307-.307a8.931,8.931,0,0,0,2.6-6.272v-.39a8.981,8.981,0,0,0-.052-.924,5.691,5.691,0,0,0,1.438-1.544C3328.761,1527.549,3328.792,1527.566,3328.816,1527.59Zm-9.732-6.136a6.653,6.653,0,0,1-1.935-4.671v-2.7a12.389,12.389,0,0,1,6.307-2.006l-.308.306a8.933,8.933,0,0,0-2.6,6.273v.39a8.75,8.75,0,0,0,.052.925,5.721,5.721,0,0,0-1.441,1.548C3319.136,1521.5,3319.109,1521.478,3319.084,1521.454Zm8.266,3.068a3.4,3.4,0,1,1-3.4-3.4A3.405,3.405,0,0,1,3327.351,1524.522Zm-7.948,3.349a5.716,5.716,0,0,0,1.544,1.437c-.024.025-.041.054-.064.079a6.654,6.654,0,0,1-4.671,1.935h-2.7a12.374,12.374,0,0,1-2.006-6.306l.307.306a8.927,8.927,0,0,0,6.272,2.6h.391A8.96,8.96,0,0,0,3319.4,1527.871Zm-3.192,5.718a8.934,8.934,0,0,0,6.274-2.6,8.74,8.74,0,0,0,.754-.874,5.367,5.367,0,0,0,.711.073,5.669,5.669,0,0,0,1.134-.115v.309a6.651,6.651,0,0,1-1.935,4.671l-1.684,1.684a12.437,12.437,0,0,1-6.045-3.15Zm12.287-12.415a5.653,5.653,0,0,0-1.548-1.44c.023-.025.044-.054.069-.077a6.651,6.651,0,0,1,4.671-1.935h2.7a12.39,12.39,0,0,1,2.006,6.307l-.307-.307a8.931,8.931,0,0,0-6.272-2.6h-.39A8.7,8.7,0,0,0,3328.5,1521.173Zm3.192-5.72a8.932,8.932,0,0,0-6.274,2.6,9.087,9.087,0,0,0-.754.872,5.792,5.792,0,0,0-.712-.071,5.646,5.646,0,0,0-1.133.115v-.309a6.653,6.653,0,0,1,1.935-4.671l1.684-1.685a12.435,12.435,0,0,1,6.044,3.15Zm-16.807.538v.791a8.746,8.746,0,0,0,3.472,7.029,5.488,5.488,0,0,0-.072.71,5.761,5.761,0,0,0,.114,1.133h-.31a6.654,6.654,0,0,1-4.67-1.935l-1.684-1.684A12.431,12.431,0,0,1,3314.883,1515.992Zm18.135,17.06v-.791a8.726,8.726,0,0,0-3.473-7.028,5.379,5.379,0,0,0,.073-.711,5.634,5.634,0,0,0-.115-1.134h.31a6.651,6.651,0,0,1,4.671,1.934l1.685,1.685A12.43,12.43,0,0,1,3333.018,1533.052Z" transform="translate(-3297.881 -1498.452)" fill="#e6b510"/>
      <path id="Path_25" data-name="Path 25" d="M3354.864,1530.954h-4.534a1.132,1.132,0,0,0-1.133,1.133v6.8a1.133,1.133,0,0,0,1.133,1.134h4.534a1.133,1.133,0,0,0,1.134-1.134v-6.8A1.132,1.132,0,0,0,3354.864,1530.954Zm-1.133,6.8h-2.267v-4.534h2.267Z" transform="translate(-3299.326 -1499.217)" fill="#e6b510"/>
      <path id="Path_26" data-name="Path 26" d="M3354.864,1519.194h-4.534a1.133,1.133,0,0,0-1.133,1.133v6.8a1.133,1.133,0,0,0,1.133,1.134h4.534a1.133,1.133,0,0,0,1.134-1.134v-6.8A1.133,1.133,0,0,0,3354.864,1519.194Zm-1.133,6.8h-2.267v-4.534h2.267Z" transform="translate(-3299.326 -1498.792)" fill="#e6b510"/>
      <rect id="Rectangle_30" data-name="Rectangle 30" width="2.267" height="2.267" transform="translate(4.534 38.538)" fill="#e6b510"/>
      <rect id="Rectangle_31" data-name="Rectangle 31" width="2.267" height="2.267" transform="translate(4.534 11.335)" fill="#e6b510"/>
      <rect id="Rectangle_32" data-name="Rectangle 32" width="2.267" height="2.267" transform="translate(45.338 38.538)" fill="#e6b510"/>
      <rect id="Rectangle_33" data-name="Rectangle 33" width="2.267" height="2.267" transform="translate(45.338 11.335)" fill="#e6b510"/>
    </g>
  </g>
</svg>
