<svg xmlns="http://www.w3.org/2000/svg" xmlns:xlink="http://www.w3.org/1999/xlink" width="70" height="70" viewBox="0 0 70 70">
  <defs>
    <clipPath id="clip-Web_1920_72">
      <rect width="70" height="70"/>
    </clipPath>
  </defs>
  <g id="Web_1920_72" data-name="Web 1920 – 72" clip-path="url(#clip-Web_1920_72)">
    <g id="computer-settings" transform="translate(2.922 2.88)">
      <path id="Path_2456" data-name="Path 2456" d="M63.465,55.136H61.383V20.781a3.127,3.127,0,0,0-3.123-3.123h-16.4l-.132-.132a9.37,9.37,0,0,0,.376-.909h2.627a1.041,1.041,0,0,0,1.041-1.041V11.411a1.041,1.041,0,0,0-1.041-1.041H42.1a9.372,9.372,0,0,0-.376-.909L43.58,7.6a1.04,1.04,0,0,0,0-1.472L40.635,3.186a1.04,1.04,0,0,0-1.472,0L37.306,5.043q-.444-.209-.909-.376V2.041A1.041,1.041,0,0,0,35.356,1H31.191A1.041,1.041,0,0,0,30.15,2.041V4.667a9.37,9.37,0,0,0-.909.376L27.384,3.186a1.04,1.04,0,0,0-1.472,0L22.967,6.131a1.04,1.04,0,0,0,0,1.472l1.856,1.857q-.209.444-.376.909H21.822a1.041,1.041,0,0,0-1.041,1.041v4.164a1.041,1.041,0,0,0,1.041,1.041h2.626a9.371,9.371,0,0,0,.376.909l-.131.132H8.288a3.127,3.127,0,0,0-3.123,3.123V55.136H3.082A2.084,2.084,0,0,0,1,57.218v3.123a5.211,5.211,0,0,0,5.205,5.205H60.342a5.211,5.211,0,0,0,5.205-5.205V57.218A2.084,2.084,0,0,0,63.465,55.136ZM50.972,42.643v9.37H48.89v-9.37H46.808v9.37H44.725V45.766H42.643v6.246H40.561V48.89H38.479v3.123H36.4V49.931H34.315v2.082H32.232V49.931H30.15v2.082H28.068V45.766H25.986v6.246H23.9V44.725H21.822v7.288H19.739V47.849H17.657v4.164H15.575V44.725H13.493v7.288H10.37V46.2l4.164-4.164,3.428,3.428a1.04,1.04,0,0,0,1.472,0l4.577-4.577,10.733,7.8a1.039,1.039,0,0,0,1.217.006l13.912-9.937,6.3,5.4v7.85H53.054v-9.37Zm5.205-1.222-5.569-4.773a1.042,1.042,0,0,0-1.283-.057L35.361,46.565,24.516,38.678a1.04,1.04,0,0,0-1.348.106L18.7,43.253,15.27,39.825a1.04,1.04,0,0,0-1.472,0L10.37,43.253V22.863H24.976l.936.936a1.072,1.072,0,0,0,1.472,0l1.856-1.857a9.134,9.134,0,0,0,.91.376v2.628a1.041,1.041,0,0,0,1.041,1.041h4.164A1.041,1.041,0,0,0,36.4,24.945V22.318a9.5,9.5,0,0,0,.91-.376L39.163,23.8a1.041,1.041,0,0,0,1.472,0l.936-.937H56.177ZM22.863,14.534V12.452h2.355a1.041,1.041,0,0,0,1.008-.781A7.211,7.211,0,0,1,27,9.8a1.041,1.041,0,0,0-.16-1.265L25.176,6.869,26.649,5.4,28.314,7.06a1.039,1.039,0,0,0,1.265.16,7.241,7.241,0,0,1,1.873-.776,1.04,1.04,0,0,0,.781-1.008V3.082h2.082V5.437A1.041,1.041,0,0,0,35.1,6.445a7.211,7.211,0,0,1,1.873.776,1.044,1.044,0,0,0,1.265-.16L39.9,5.4l1.473,1.473L39.706,8.533a1.04,1.04,0,0,0-.16,1.265,7.241,7.241,0,0,1,.776,1.873,1.041,1.041,0,0,0,1.008.781h2.355v2.082H41.329a1.041,1.041,0,0,0-1.008.781,7.211,7.211,0,0,1-.776,1.873,1.041,1.041,0,0,0,.16,1.265l1.665,1.665L39.9,21.591l-1.665-1.666a1.042,1.042,0,0,0-1.266-.16,7.247,7.247,0,0,1-1.873.776,1.043,1.043,0,0,0-.78,1.009V23.9H32.232V21.549a1.041,1.041,0,0,0-.781-1.008,7.247,7.247,0,0,1-1.873-.776,1.039,1.039,0,0,0-1.266.16l-1.665,1.666-1.473-1.473,1.665-1.665A1.04,1.04,0,0,0,27,17.189a7.241,7.241,0,0,1-.776-1.873,1.038,1.038,0,0,0-1.007-.782ZM7.246,20.781a1.043,1.043,0,0,1,1.041-1.041H22.736a1.033,1.033,0,0,0,.182,1.041H10.37a2.084,2.084,0,0,0-2.082,2.082v29.15A2.084,2.084,0,0,0,10.37,54.1H56.177a2.084,2.084,0,0,0,2.082-2.082V22.863a2.084,2.084,0,0,0-2.082-2.082H43.628a1.033,1.033,0,0,0,.182-1.041H58.259A1.043,1.043,0,0,1,59.3,20.781V55.136H40.561a2.084,2.084,0,0,0-2.082,2.082H28.068a2.084,2.084,0,0,0-2.082-2.082H7.246ZM63.465,60.342a3.127,3.127,0,0,1-3.123,3.123H6.205a3.127,3.127,0,0,1-3.123-3.123V57.218h22.9A2.084,2.084,0,0,0,28.068,59.3H38.479a2.084,2.084,0,0,0,2.082-2.082h22.9Z" transform="translate(-1 -1)" fill="#e6b510"/>
      <path id="Path_2457" data-name="Path 2457" d="M5,57h6.246v2.082H5Z" transform="translate(-0.836 1.301)" fill="#e6b510"/>
      <path id="Path_2458" data-name="Path 2458" d="M53,57h6.246v2.082H53Z" transform="translate(1.136 1.301)" fill="#e6b510"/>
      <path id="Path_2459" data-name="Path 2459" d="M32.205,18.411A5.205,5.205,0,1,0,27,13.205,5.211,5.211,0,0,0,32.205,18.411Zm0-8.329a3.123,3.123,0,1,1-3.123,3.123A3.127,3.127,0,0,1,32.205,10.082Z" transform="translate(0.068 -0.712)" fill="#e6b510"/>
      <path id="Path_2460" data-name="Path 2460" d="M12.152,15.575a1.038,1.038,0,0,0,.736-.305l3.123-3.123-1.472-1.472L13.216,12a9.374,9.374,0,0,1,9.347-8.916V1A11.457,11.457,0,0,0,11.132,12.042L9.765,10.675,8.293,12.147l3.123,3.123A1.038,1.038,0,0,0,12.152,15.575Z" transform="translate(-0.7 -1)" fill="#e6b510"/>
      <path id="Path_2461" data-name="Path 2461" d="M51.347,12l-1.323-1.323-1.472,1.472,3.123,3.123a1.041,1.041,0,0,0,1.472,0l3.123-3.123L54.8,10.675l-1.367,1.367A11.457,11.457,0,0,0,42,1V3.082A9.374,9.374,0,0,1,51.347,12Z" transform="translate(0.684 -1)" fill="#e6b510"/>
      <path id="Path_2462" data-name="Path 2462" d="M33.018,27.39a1.077,1.077,0,0,0-1.626,0L27.228,32.6a1.041,1.041,0,0,0,.813,1.692h1.041v6.246a1.041,1.041,0,0,0,1.041,1.041h4.164a1.041,1.041,0,0,0,1.041-1.041V34.287H36.37a1.041,1.041,0,0,0,.812-1.692Zm.228,5.856v6.246H31.164V33.246a1.041,1.041,0,0,0-.96-1.038l2-2.5,2,2.5A1.041,1.041,0,0,0,33.246,33.246Z" transform="translate(0.068 0.069)" fill="#e6b510"/>
    </g>
  </g>
</svg>
