<svg xmlns="http://www.w3.org/2000/svg" xmlns:xlink="http://www.w3.org/1999/xlink" width="70" height="70" viewBox="0 0 70 70">
  <defs>
    <clipPath id="clip-Web_1920_86">
      <rect width="70" height="70"/>
    </clipPath>
  </defs>
  <g id="Web_1920_86" data-name="Web 1920 – 86" clip-path="url(#clip-Web_1920_86)">
    <g id="Group_4028" data-name="Group 4028" transform="translate(2.623 2.721)">
      <g id="Group_3503" data-name="Group 3503">
        <path id="Path_2447" data-name="Path 2447" d="M601.812,1521.5a5.173,5.173,0,1,0-5.173-5.173,5.177,5.177,0,0,0,5.173,5.173Zm0-8.425a3.252,3.252,0,1,1-3.252,3.252A3.254,3.254,0,0,1,601.812,1513.073Z" transform="translate(-577.248 -1490.226)" fill="#e6b510"/>
        <path id="Path_2448" data-name="Path 2448" d="M599.167,1514.918l-.573-.383a.956.956,0,0,0-.724-.142.938.938,0,0,0-.61.407,10.9,10.9,0,0,0-1.841,5.808.957.957,0,0,0,.937.984l.686.02a9.249,9.249,0,0,0,.587,2.6l-.62.312a.966.966,0,0,0-.426,1.292,11,11,0,0,0,4.141,4.458.965.965,0,0,0,1.32-.326l.36-.6a9.274,9.274,0,0,0,2.556.776l-.033.691a.97.97,0,0,0,.918,1.008c.171.01.346.01.521.01a10.942,10.942,0,0,0,5.4-1.42.935.935,0,0,0,.45-.578.948.948,0,0,0-.09-.734l-.341-.6a9.5,9.5,0,0,0,1.936-1.841l.582.368a.964.964,0,0,0,1.33-.3,10.964,10.964,0,0,0,1.69-5.85.961.961,0,0,0-.961-.961h-.691a9.452,9.452,0,0,0-.478-2.144l.625-.3a.96.96,0,0,0,.454-1.278,10.939,10.939,0,0,0-4.023-4.562.955.955,0,0,0-.724-.128.94.94,0,0,0-.606.421l-.369.582a9.406,9.406,0,0,0-2.537-.837l.047-.691a.967.967,0,0,0-.89-1.032c-.265-.019-.535-.029-.8-.029a10.948,10.948,0,0,0-5.15,1.288.947.947,0,0,0-.469.567.988.988,0,0,0,.071.733l.326.611a9.453,9.453,0,0,0-1.978,1.789Zm1.022,1.841a7.537,7.537,0,0,1,2.688-2.432.96.96,0,0,0,.393-1.3L603,1512.5a9.09,9.09,0,0,1,3.072-.644l-.043.587a.968.968,0,0,0,.232.7.95.95,0,0,0,.658.331,7.391,7.391,0,0,1,3.436,1.136.966.966,0,0,0,.729.128.946.946,0,0,0,.6-.421l.317-.5a8.9,8.9,0,0,1,2.078,2.357l-.53.251a.961.961,0,0,0-.459,1.283,7.377,7.377,0,0,1,.71,3.171.962.962,0,0,0,.961.961h.592a8.977,8.977,0,0,1-.876,3.02l-.5-.317a.964.964,0,0,0-1.325.3,7.428,7.428,0,0,1-2.627,2.5.96.96,0,0,0-.36,1.311l.289.512a8.976,8.976,0,0,1-3.057.729l.028-.592a.966.966,0,0,0-.914-1.008,7.444,7.444,0,0,1-3.464-1.046.954.954,0,0,0-.729-.114.993.993,0,0,0-.592.441l-.308.506a9.154,9.154,0,0,1-2.14-2.3l.53-.27a.965.965,0,0,0,.426-1.292,7.3,7.3,0,0,1-.8-3.341l0-.194a.978.978,0,0,0-.265-.687.959.959,0,0,0-.672-.3l-.592-.014a9,9,0,0,1,.946-3l.492.326a.984.984,0,0,0,.724.147.968.968,0,0,0,.611-.412Z" transform="translate(-581.806 -1494.788)" fill="#e6b510"/>
        <path id="Path_2449" data-name="Path 2449" d="M649.764,1551.334a11.575,11.575,0,0,0,2.442-7.209c0-.1-.005-.208-.005-.313h1.6a2.118,2.118,0,0,0,2.116-2.115v-2.726a2.121,2.121,0,0,0-2.116-2.115h-.052a11.334,11.334,0,0,0-3.72-5.353,11.067,11.067,0,0,0-3.465-1.86v-.7a1.8,1.8,0,0,0-1.8-1.8h-.719v-19.457a.962.962,0,0,0-.961-.961H593.507a.963.963,0,0,0-.965.961v41.9a.963.963,0,0,0,.965.961h5.9a.961.961,0,1,0,0-1.922h-4.937v-31.214h47.647v9.731H641.4a1.8,1.8,0,0,0-1.8,1.8v.7a11.273,11.273,0,0,0-7.185,7.213h-.052a2.121,2.121,0,0,0-2.116,2.115v2.726a2.118,2.118,0,0,0,2.116,2.115h1.595l0,.313a11.923,11.923,0,0,0,.871,4.506H603.66a.961.961,0,0,0,0,1.922h32.17c.18.27.365.53.563.776a15.024,15.024,0,0,0-7.9,10.143.956.956,0,0,0,.729,1.145.808.808,0,0,0,.208.023.959.959,0,0,0,.937-.752,13.1,13.1,0,0,1,7.459-9.107,8.086,8.086,0,0,0,10.512,0,13.032,13.032,0,0,1,7.762,11.9v4.885H630.06v-4.037a.961.961,0,1,0-1.922,0v5a.961.961,0,0,0,.961.961h27.958a.961.961,0,0,0,.961-.961v-5.845A14.926,14.926,0,0,0,649.764,1551.334Zm-55.3-35.839v-1.959h13.565v1.959Zm19.7,0v-1.959h13.565v1.959Zm15.486,0v-2.92a.958.958,0,0,0-.961-.961H613.211a.962.962,0,0,0-.961.961v2.92h-2.3v-2.92a.962.962,0,0,0-.961-.961H594.468v-2.963h47.647v6.844Zm19.174,17.512a9.4,9.4,0,0,1,2.868,3.848h-5.14v-5.168a9.347,9.347,0,0,1,2.272,1.32Zm-4.2-3.933v7.781h-3.109v-7.781Zm-5.036,2.613v5.168h-5.14A9.352,9.352,0,0,1,639.6,1531.688Zm-7.426,10.01v-2.726a.19.19,0,0,1,.19-.189H653.8a.19.19,0,0,1,.189.189v2.726a.194.194,0,0,1-.189.194H632.361A.2.2,0,0,1,632.171,1541.7Zm3.706,2.428c0-.1,0-.208,0-.313h14.393c0,.1,0,.209,0,.313,0,4.785-3.228,8.676-7.2,8.676S635.877,1548.91,635.877,1544.125Z" transform="translate(-592.542 -1506.73)" fill="#e6b510"/>
      </g>
    </g>
  </g>
</svg>
