<svg xmlns="http://www.w3.org/2000/svg" xmlns:xlink="http://www.w3.org/1999/xlink" width="70" height="70" viewBox="0 0 70 70">
  <defs>
    <clipPath id="clip-Web_1920_83">
      <rect width="70" height="70"/>
    </clipPath>
  </defs>
  <g id="Web_1920_83" data-name="Web 1920 – 83" clip-path="url(#clip-Web_1920_83)">
    <g id="Group_4031" data-name="Group 4031" transform="translate(2.24 2.935)">
      <g id="Group_3499" data-name="Group 3499" transform="translate(0 0)">
        <g id="Group_3498" data-name="Group 3498">
          <path id="Path_2423" data-name="Path 2423" d="M46.569,1210.322c2.7,3.809,5.4,7.219,7.189,9.414.26.319.5.617.739.9H49.1a1.094,1.094,0,0,0,0,2.188H66.6a1.094,1.094,0,0,0,0-2.188h-5.4c.238-.285.481-.582.742-.9,1.788-2.188,4.487-5.6,7.189-9.414a96.055,96.055,0,0,0,7.228-11.647c2.233-4.387,3.365-8.029,3.365-10.824a21.863,21.863,0,0,0-6.406-15.491,1.093,1.093,0,1,0-1.547,1.545,19.7,19.7,0,0,1,5.767,13.946c0,2.449-1.054,5.755-3.129,9.829a93.813,93.813,0,0,1-7.061,11.377c-2.667,3.763-5.335,7.133-7.1,9.3-.587.72-1.115,1.356-1.567,1.894a1.105,1.105,0,0,1-1.665,0c-.452-.538-.98-1.174-1.567-1.894-1.766-2.164-4.433-5.536-7.1-9.3a93.818,93.818,0,0,1-7.061-11.377c-2.078-4.075-3.129-7.381-3.129-9.829a19.7,19.7,0,0,1,27.359-18.171,1.1,1.1,0,0,0,.855-2.016,21.886,21.886,0,0,0-30.4,20.187c0,2.795,1.132,6.438,3.367,10.829A95.659,95.659,0,0,0,46.569,1210.322Z" transform="translate(-25.035 -1165.938)" fill="#e6b510"/>
          <path id="Path_2424" data-name="Path 2424" d="M51.369,1172.136a1.094,1.094,0,0,0,0-2.188,10.938,10.938,0,1,0,7.734,3.2,1.094,1.094,0,1,0-1.547,1.547,8.751,8.751,0,1,1-6.187-2.562Z" transform="translate(-18.551 -1160.097)" fill="#e6b510"/>
          <path id="Path_2425" data-name="Path 2425" d="M96.743,1198.4l-6.727-12.033a3.4,3.4,0,0,0-2.977-1.719h-7.8a1.094,1.094,0,0,0,0,2.188h7.8a1.2,1.2,0,0,1,1.068.6l6.727,12.032a.99.99,0,0,1-.01,1.012,1.209,1.209,0,0,1-1.061.58H34.912a1.2,1.2,0,0,1-1.056-.58.984.984,0,0,1-.01-1.012l6.725-12.032a1.2,1.2,0,0,1,1.068-.6h7.8a1.094,1.094,0,0,0,0-2.188h-7.8a3.4,3.4,0,0,0-2.979,1.719L31.933,1198.4a3.171,3.171,0,0,0,.034,3.183,3.368,3.368,0,0,0,2.945,1.663H93.764a3.37,3.37,0,0,0,2.945-1.663A3.166,3.166,0,0,0,96.743,1198.4Z" transform="translate(-31.522 -1138.696)" fill="#e6b510"/>
          <path id="Path_2426" data-name="Path 2426" d="M58.533,1186.872H54.159a1.1,1.1,0,0,0-.609.184l-3.281,2.188a1.094,1.094,0,0,0,1.216,1.82l3-2h4.048a1.094,1.094,0,0,0,0-2.188Z" transform="translate(-4.932 -1135.453)" fill="#e6b510"/>
          <path id="Path_2427" data-name="Path 2427" d="M50.673,1190.639a1.093,1.093,0,0,0,1.093,1.093h8.751a1.094,1.094,0,1,0,0-2.189H51.766A1.094,1.094,0,0,0,50.673,1190.639Z" transform="translate(-3.634 -1131.563)" fill="#e6b510"/>
          <path id="Path_2428" data-name="Path 2428" d="M44.725,1191.246a1.093,1.093,0,0,0,.609-2l-3.281-2.188a1.1,1.1,0,0,0-.609-.184H37.069a1.094,1.094,0,0,0,0,2.188h4.048l3.006,2A1.089,1.089,0,0,0,44.725,1191.246Z" transform="translate(-25.035 -1135.453)" fill="#e6b510"/>
          <path id="Path_2429" data-name="Path 2429" d="M35.734,1189.544a1.094,1.094,0,1,0,0,2.189h8.751a1.094,1.094,0,0,0,0-2.189Z" transform="translate(-26.982 -1131.563)" fill="#e6b510"/>
        </g>
      </g>
    </g>
  </g>
</svg>
