<svg xmlns="http://www.w3.org/2000/svg" xmlns:xlink="http://www.w3.org/1999/xlink" width="70" height="70" viewBox="0 0 70 70">
  <defs>
    <clipPath id="clip-Web_1920_71">
      <rect width="70" height="70"/>
    </clipPath>
  </defs>
  <g id="Web_1920_71" data-name="Web 1920 – 71" clip-path="url(#clip-Web_1920_71)">
    <g id="computer" transform="translate(-16.167 -63.399)">
      <path id="Path_2550" data-name="Path 2550" d="M180.625,72H129.169A1.169,1.169,0,0,0,128,73.169v33.914a1.169,1.169,0,0,0,1.169,1.169h31.575v10.525h-4.678v2.339h18.711v2.339H156.067v2.339h19.881a1.17,1.17,0,0,0,1.169-1.169V108.253h3.508a1.169,1.169,0,0,0,1.169-1.169V73.169A1.169,1.169,0,0,0,180.625,72Zm-1.169,2.339v4.678H130.339V74.339Zm-16.372,33.914h2.339v2.339a1.169,1.169,0,1,0,2.339,0v-2.339H170.1v10.525h-7.017Zm11.695,10.525h-2.339V108.253h2.339Zm-44.439-12.864V81.356h49.117v24.558Z" transform="translate(-95.628)" fill="#e6b510"/>
      <path id="Path_2551" data-name="Path 2551" d="M21.847,269.236H52.253a5.854,5.854,0,0,0,5.847-5.847,1.169,1.169,0,0,0-1.169-1.169H52.253v-8.186H49.914v8.186H24.186V242.339h5.847V240H23.017a1.169,1.169,0,0,0-1.169,1.169v21.05H17.169A1.169,1.169,0,0,0,16,263.389a5.854,5.854,0,0,0,5.847,5.847Zm11.21-4.678.827.827a1.17,1.17,0,0,0,.827.343h4.678a1.17,1.17,0,0,0,.827-.343l.827-.827H55.561a3.514,3.514,0,0,1-3.308,2.339H21.847a3.514,3.514,0,0,1-3.308-2.339Z" transform="translate(0 -143.442)" fill="#e6b510"/>
      <ellipse id="Ellipse_167" data-name="Ellipse 167" cx="1" cy="0.5" rx="1" ry="0.5" transform="translate(36.167 76.399)" fill="#e6b510"/>
      <ellipse id="Ellipse_168" data-name="Ellipse 168" cx="1.5" cy="0.5" rx="1.5" ry="0.5" transform="translate(39.167 76.399)" fill="#e6b510"/>
      <ellipse id="Ellipse_169" data-name="Ellipse 169" cx="1" cy="0.5" rx="1" ry="0.5" transform="translate(42.167 76.399)" fill="#e6b510"/>
      <path id="Path_2552" data-name="Path 2552" d="M160,152h3.508v2.339H160Z" transform="translate(-122.95 -68.305)" fill="#e6b510"/>
      <path id="Path_2553" data-name="Path 2553" d="M208,152h8.186v2.339H208Z" transform="translate(-163.933 -68.305)" fill="#e6b510"/>
      <path id="Path_2554" data-name="Path 2554" d="M280,152h3.508v2.339H280Z" transform="translate(-225.408 -68.305)" fill="#e6b510"/>
      <path id="Path_2555" data-name="Path 2555" d="M160,192h3.508v2.339H160Z" transform="translate(-122.95 -102.458)" fill="#e6b510"/>
      <path id="Path_2556" data-name="Path 2556" d="M208,192h4.678v2.339H208Z" transform="translate(-163.933 -102.458)" fill="#e6b510"/>
      <path id="Path_2557" data-name="Path 2557" d="M256,192h7.017v2.339H256Z" transform="translate(-204.916 -102.458)" fill="#e6b510"/>
      <path id="Path_2558" data-name="Path 2558" d="M160,232h3.508v2.339H160Z" transform="translate(-122.95 -136.611)" fill="#e6b510"/>
      <path id="Path_2559" data-name="Path 2559" d="M208,232h14.033v2.339H208Z" transform="translate(-163.933 -136.611)" fill="#e6b510"/>
      <path id="Path_2560" data-name="Path 2560" d="M160,272h3.508v2.339H160Z" transform="translate(-122.95 -170.764)" fill="#e6b510"/>
      <path id="Path_2561" data-name="Path 2561" d="M208,272h4.678v2.339H208Z" transform="translate(-163.933 -170.764)" fill="#e6b510"/>
      <path id="Path_2562" data-name="Path 2562" d="M256,272h7.017v2.339H256Z" transform="translate(-204.916 -170.764)" fill="#e6b510"/>
      <path id="Path_2563" data-name="Path 2563" d="M331.851,186.343l-3.508,3.508a1.169,1.169,0,0,0,0,1.654l3.508,3.508,1.654-1.654-2.681-2.681L333.5,188Z" transform="translate(-266.391 -97.628)" fill="#e6b510"/>
      <path id="Path_2564" data-name="Path 2564" d="M420,186.343,418.343,188l2.681,2.681-2.681,2.681L420,195.014l3.508-3.508a1.169,1.169,0,0,0,0-1.654Z" transform="translate(-343.528 -97.628)" fill="#e6b510"/>
      <path id="Path_2565" data-name="Path 2565" d="M0,0H14.793V2.339H0Z" transform="matrix(0.316, -0.949, 0.949, 0.316, 67.515, 99.675)" fill="#e6b510"/>
    </g>
  </g>
</svg>
