<svg xmlns="http://www.w3.org/2000/svg" xmlns:xlink="http://www.w3.org/1999/xlink" width="70" height="70" viewBox="0 0 70 70">
  <defs>
    <clipPath id="clip-Web_1920_66">
      <rect width="70" height="70"/>
    </clipPath>
  </defs>
  <g id="Web_1920_66" data-name="Web 1920 – 66" clip-path="url(#clip-Web_1920_66)">
    <g id="bandwidth" transform="translate(2.942 2.88)">
      <path id="Path_2402" data-name="Path 2402" d="M43.117,168a3.117,3.117,0,1,0,3.117,3.117A3.117,3.117,0,0,0,43.117,168Zm0,4.156a1.039,1.039,0,1,1,1.039-1.039A1.039,1.039,0,0,1,43.117,172.156Z" transform="translate(-35.844 -147.091)" fill="#e6b510"/>
      <path id="Path_2403" data-name="Path 2403" d="M99.117,168a3.117,3.117,0,1,0,3.117,3.117A3.117,3.117,0,0,0,99.117,168Zm0,4.156a1.039,1.039,0,1,1,1.039-1.039A1.039,1.039,0,0,1,99.117,172.156Z" transform="translate(-84.571 -147.091)" fill="#e6b510"/>
      <path id="Path_2404" data-name="Path 2404" d="M214.546,169.039A1.039,1.039,0,0,0,213.507,168H201.039a1.039,1.039,0,1,0,0,2.078h12.468A1.039,1.039,0,0,0,214.546,169.039Z" transform="translate(-175.064 -147.091)" fill="#e6b510"/>
      <path id="Path_2405" data-name="Path 2405" d="M262.234,200h-5.195a1.039,1.039,0,0,0,0,2.078h5.195a1.039,1.039,0,1,0,0-2.078Z" transform="translate(-223.791 -174.935)" fill="#e6b510"/>
      <path id="Path_2406" data-name="Path 2406" d="M170.078,168h-1.039a1.039,1.039,0,0,0,0,2.078h1.039a1.039,1.039,0,1,0,0-2.078Z" transform="translate(-147.22 -147.091)" fill="#e6b510"/>
      <path id="Path_2407" data-name="Path 2407" d="M43.117,72a3.117,3.117,0,1,0,3.117,3.117A3.117,3.117,0,0,0,43.117,72Zm0,4.156a1.039,1.039,0,1,1,1.039-1.039A1.039,1.039,0,0,1,43.117,76.156Z" transform="translate(-35.844 -63.559)" fill="#e6b510"/>
      <path id="Path_2408" data-name="Path 2408" d="M99.117,72a3.117,3.117,0,1,0,3.117,3.117A3.117,3.117,0,0,0,99.117,72Zm0,4.156a1.039,1.039,0,1,1,1.039-1.039A1.039,1.039,0,0,1,99.117,76.156Z" transform="translate(-84.571 -63.559)" fill="#e6b510"/>
      <path id="Path_2409" data-name="Path 2409" d="M170.078,80h-1.039a1.039,1.039,0,0,0,0,2.078h1.039a1.039,1.039,0,1,0,0-2.078Z" transform="translate(-147.22 -70.52)" fill="#e6b510"/>
      <path id="Path_2410" data-name="Path 2410" d="M43.117,264a3.117,3.117,0,1,0,3.117,3.117A3.117,3.117,0,0,0,43.117,264Zm0,4.156a1.039,1.039,0,1,1,1.039-1.039A1.039,1.039,0,0,1,43.117,268.156Z" transform="translate(-35.844 -230.623)" fill="#e6b510"/>
      <path id="Path_2411" data-name="Path 2411" d="M99.117,264a3.117,3.117,0,1,0,3.117,3.117A3.117,3.117,0,0,0,99.117,264Zm0,4.156a1.039,1.039,0,1,1,1.039-1.039A1.039,1.039,0,0,1,99.117,268.156Z" transform="translate(-84.571 -230.623)" fill="#e6b510"/>
      <path id="Path_2412" data-name="Path 2412" d="M201.039,266.078h12.468a1.039,1.039,0,1,0,0-2.078H201.039a1.039,1.039,0,1,0,0,2.078Z" transform="translate(-175.064 -230.623)" fill="#e6b510"/>
      <path id="Path_2413" data-name="Path 2413" d="M262.234,296h-5.195a1.039,1.039,0,0,0,0,2.078h5.195a1.039,1.039,0,1,0,0-2.078Z" transform="translate(-223.791 -258.467)" fill="#e6b510"/>
      <path id="Path_2414" data-name="Path 2414" d="M170.078,266.078a1.039,1.039,0,1,0,0-2.078h-1.039a1.039,1.039,0,0,0,0,2.078Z" transform="translate(-147.22 -230.623)" fill="#e6b510"/>
      <path id="Path_2415" data-name="Path 2415" d="M71.379,44.537a1.039,1.039,0,0,0,0-2.078H57.872A1.039,1.039,0,0,0,56.833,43.5V61.161H55.794A1.039,1.039,0,0,0,54.755,62.2v3.117H49.56a1.039,1.039,0,0,0-1.039,1.039v1.039H39.17V66.356a1.039,1.039,0,0,0-1.039-1.039H32.936V62.2A1.039,1.039,0,0,0,31.9,61.161H30.858V50.771H47.482a4.161,4.161,0,0,0,4.156-4.156V40.381a4.146,4.146,0,0,0-1.412-3.117,4.146,4.146,0,0,0,1.412-3.117v-2.26a13.507,13.507,0,1,0-2.8-20.368,4.139,4.139,0,0,0-1.358-.23H32.936V8.172A1.039,1.039,0,0,0,31.9,7.133H27.741A1.039,1.039,0,0,0,26.7,8.172v3.117H12.156A4.161,4.161,0,0,0,8,15.445v6.234A4.146,4.146,0,0,0,9.412,24.8,4.146,4.146,0,0,0,8,27.913v6.234a4.146,4.146,0,0,0,1.412,3.117A4.146,4.146,0,0,0,8,40.381v6.234a4.161,4.161,0,0,0,4.156,4.156H28.78v10.39H27.741A1.039,1.039,0,0,0,26.7,62.2v3.117H21.507a1.039,1.039,0,0,0-1.039,1.039v1.039H9.039a1.039,1.039,0,1,0,0,2.078H20.468v1.039a1.039,1.039,0,0,0,1.039,1.039H38.131a1.039,1.039,0,0,0,1.039-1.039V69.473h9.351v1.039a1.039,1.039,0,0,0,1.039,1.039H66.184a1.039,1.039,0,0,0,1.039-1.039V69.473h4.156a1.039,1.039,0,1,0,0-2.078H67.223V66.356a1.039,1.039,0,0,0-1.039-1.039H60.989V62.2a1.039,1.039,0,0,0-1.039-1.039H58.911V44.537ZM58.911,9.081A11.429,11.429,0,1,1,47.482,20.51,11.429,11.429,0,0,1,58.911,9.081Zm-30.131.13h2.078v2.078H28.78Zm-18.7,6.234a2.081,2.081,0,0,1,2.078-2.078h35.3a13.515,13.515,0,0,0-1.435,3.117H33.975a1.039,1.039,0,0,0,0,2.078H45.545c-.051.343-.087.688-.11,1.039H41.248a1.039,1.039,0,1,0,0,2.078h4.207a13.524,13.524,0,0,0,.344,2.078H12.156a2.081,2.081,0,0,1-2.078-2.078Zm0,12.468a2.081,2.081,0,0,1,2.078-2.078H46.5a13.559,13.559,0,0,0,3.061,4.412v3.9a2.081,2.081,0,0,1-2.078,2.078H12.156a2.081,2.081,0,0,1-2.078-2.078Zm2.078,20.78a2.081,2.081,0,0,1-2.078-2.078V40.381A2.081,2.081,0,0,1,12.156,38.3H47.482a2.081,2.081,0,0,1,2.078,2.078v6.234a2.081,2.081,0,0,1-2.078,2.078ZM28.78,63.239h2.078v2.078H28.78Zm8.312,6.234H22.546V67.395H37.092Zm19.741-6.234h2.078v2.078H56.833Zm8.312,4.156v2.078H50.6V67.395Z" transform="translate(-8 -7.004)" fill="#e6b510"/>
      <path id="Path_2416" data-name="Path 2416" d="M402.269,72.692a1.036,1.036,0,0,0-.916-.549h-1.039v-6.1A1.039,1.039,0,0,0,399.275,65h-4.156a1.039,1.039,0,0,0-1.039,1.039v6.1h-1.039a1.04,1.04,0,0,0-.865,1.616l4.156,6.234a1.04,1.04,0,0,0,1.73,0l4.156-6.234A1.038,1.038,0,0,0,402.269,72.692ZM397.2,77.543l-2.214-3.322h.136a1.039,1.039,0,0,0,1.039-1.039v-6.1h2.078v6.1a1.039,1.039,0,0,0,1.039,1.039h.136Z" transform="translate(-342.13 -57.468)" fill="#e6b510"/>
      <path id="Path_2417" data-name="Path 2417" d="M330.218,53.7l-4.156-6.234a1.04,1.04,0,0,0-1.73,0L320.176,53.7a1.04,1.04,0,0,0,.865,1.616h1.039v5.325a1.039,1.039,0,0,0,1.039,1.039h4.156a1.039,1.039,0,0,0,1.039-1.039V55.312h1.039a1.04,1.04,0,0,0,.865-1.616Zm-2.943-.462a1.039,1.039,0,0,0-1.039,1.039V59.6h-2.078V54.273a1.039,1.039,0,0,0-1.039-1.039h-.136l2.214-3.322,2.214,3.322Z" transform="translate(-279.481 -41.806)" fill="#e6b510"/>
    </g>
  </g>
</svg>
