<svg xmlns="http://www.w3.org/2000/svg" xmlns:xlink="http://www.w3.org/1999/xlink" width="70" height="90" viewBox="0 0 70 90">
  <defs>
    <clipPath id="clip-Web_1920_68">
      <rect width="70" height="90"/>
    </clipPath>
  </defs>
  <g id="Web_1920_68" data-name="Web 1920 – 68" clip-path="url(#clip-Web_1920_68)">
    <g id="Group_4023" data-name="Group 4023" transform="translate(-2475 -2166)">
      <g id="choices" transform="translate(2432.969 2174.709)">
        <g id="Group_3696" data-name="Group 3696" transform="translate(54.362 10.997)">
          <g id="Group_3695" data-name="Group 3695">
            <path id="Path_2539" data-name="Path 2539" d="M106.815,80.626a1.146,1.146,0,0,0-1.146,1.146,2.52,2.52,0,1,1-2.52-2.52,1.146,1.146,0,0,0,0-2.291,4.811,4.811,0,1,0,4.811,4.811A1.145,1.145,0,0,0,106.815,80.626Z" transform="translate(-98.338 -76.96)" fill="#e6b510"/>
          </g>
        </g>
        <g id="Group_3698" data-name="Group 3698" transform="translate(54.362 24.437)">
          <g id="Group_3697" data-name="Group 3697">
            <path id="Path_2540" data-name="Path 2540" d="M106.815,174.688a1.146,1.146,0,0,0-1.146,1.146,2.52,2.52,0,1,1-2.52-2.52,1.146,1.146,0,0,0,0-2.291,4.811,4.811,0,1,0,4.811,4.811A1.145,1.145,0,0,0,106.815,174.688Z" transform="translate(-98.338 -171.022)" fill="#e6b510"/>
          </g>
        </g>
        <g id="Group_3700" data-name="Group 3700" transform="translate(66.581 30.547)">
          <g id="Group_3699" data-name="Group 3699">
            <path id="Path_2541" data-name="Path 2541" d="M193.548,213.779h-8.553a1.146,1.146,0,1,0,0,2.291h8.553a1.146,1.146,0,0,0,0-2.291Z" transform="translate(-183.849 -213.779)" fill="#e6b510"/>
          </g>
        </g>
        <g id="Group_3702" data-name="Group 3702" transform="translate(66.581 25.659)">
          <g id="Group_3701" data-name="Group 3701">
            <path id="Path_2542" data-name="Path 2542" d="M193.548,179.574h-8.553a1.146,1.146,0,1,0,0,2.291h8.553a1.146,1.146,0,0,0,0-2.291Z" transform="translate(-183.849 -179.574)" fill="#e6b510"/>
          </g>
        </g>
        <g id="Group_3704" data-name="Group 3704" transform="translate(66.581 43.987)">
          <g id="Group_3703" data-name="Group 3703">
            <path id="Path_2543" data-name="Path 2543" d="M191.1,307.841h-6.109a1.146,1.146,0,0,0,0,2.291H191.1a1.146,1.146,0,1,0,0-2.291Z" transform="translate(-183.849 -307.841)" fill="#e6b510"/>
          </g>
        </g>
        <g id="Group_3706" data-name="Group 3706" transform="translate(66.581 39.1)">
          <g id="Group_3705" data-name="Group 3705">
            <path id="Path_2544" data-name="Path 2544" d="M193.548,273.637h-8.553a1.146,1.146,0,0,0,0,2.291h8.553a1.146,1.146,0,0,0,0-2.291Z" transform="translate(-183.849 -273.637)" fill="#e6b510"/>
          </g>
        </g>
        <g id="Group_3708" data-name="Group 3708" transform="translate(66.581 17.106)">
          <g id="Group_3707" data-name="Group 3707">
            <path id="Path_2545" data-name="Path 2545" d="M204.544,119.716h-19.55a1.146,1.146,0,0,0,0,2.291h19.55a1.146,1.146,0,0,0,0-2.291Z" transform="translate(-183.849 -119.716)" fill="#e6b510"/>
          </g>
        </g>
        <g id="Group_3710" data-name="Group 3710" transform="translate(66.581 12.219)">
          <g id="Group_3709" data-name="Group 3709">
            <path id="Path_2546" data-name="Path 2546" d="M199.657,85.511H184.995a1.146,1.146,0,1,0,0,2.291h14.662a1.146,1.146,0,1,0,0-2.291Z" transform="translate(-183.849 -85.511)" fill="#e6b510"/>
          </g>
        </g>
        <g id="Group_3712" data-name="Group 3712" transform="translate(54.362 37.878)">
          <g id="Group_3711" data-name="Group 3711">
            <path id="Path_2547" data-name="Path 2547" d="M106.815,268.751a1.146,1.146,0,0,0-1.146,1.146,2.52,2.52,0,1,1-2.52-2.52,1.146,1.146,0,0,0,0-2.291,4.811,4.811,0,1,0,4.811,4.811A1.145,1.145,0,0,0,106.815,268.751Z" transform="translate(-98.338 -265.085)" fill="#e6b510"/>
          </g>
        </g>
        <g id="Group_3714" data-name="Group 3714" transform="translate(47.031)">
          <g id="Group_3713" data-name="Group 3713" transform="translate(0)">
            <path id="Path_2548" data-name="Path 2548" d="M92.164,0H50.62a3.593,3.593,0,0,0-3.589,3.589V54.907A3.593,3.593,0,0,0,50.62,58.5H71.392a1.146,1.146,0,1,0,0-2.291H50.62a1.3,1.3,0,0,1-1.3-1.3V3.589a1.3,1.3,0,0,1,1.3-1.3H92.164a1.3,1.3,0,0,1,1.3,1.3V41.467a1.146,1.146,0,0,0,2.291,0V3.589A3.593,3.593,0,0,0,92.164,0Z" transform="translate(-47.031 0)" fill="#e6b510"/>
          </g>
        </g>
        <g id="Group_3716" data-name="Group 3716" transform="translate(74.526 25.66)">
          <g id="Group_3715" data-name="Group 3715">
            <path id="Path_2549" data-name="Path 2549" d="M267.9,200.371a4.226,4.226,0,0,0-2.971.835,4.172,4.172,0,0,0-3.138-2.057,4.227,4.227,0,0,0-2.971.835,4.172,4.172,0,0,0-3.138-2.057,4.232,4.232,0,0,0-2.338.439V183.778a4.2,4.2,0,0,0-4.629-4.179,4.334,4.334,0,0,0-3.771,4.353v14.625l-3.367,3.367a7.21,7.21,0,0,0-1.932,6.792L242.2,219.6a9.661,9.661,0,0,0,9.441,7.477h10.332a9.71,9.71,0,0,0,9.7-9.7V204.724A4.334,4.334,0,0,0,267.9,200.371Zm1.48,17.008a7.416,7.416,0,0,1-7.408,7.407H251.645a7.379,7.379,0,0,1-7.211-5.711l-2.556-10.865a4.933,4.933,0,0,1,1.322-4.647l1.747-1.747v3.955a1.146,1.146,0,1,0,2.291,0V183.952a2.025,2.025,0,0,1,1.708-2.073,1.91,1.91,0,0,1,2.11,1.9v20.161a1.146,1.146,0,1,0,2.291,0v-1.833a1.91,1.91,0,0,1,2.11-1.9,2.026,2.026,0,0,1,1.708,2.073v2.88a1.146,1.146,0,0,0,2.291,0v-1.833a1.91,1.91,0,0,1,2.11-1.9,2.026,2.026,0,0,1,1.708,2.073v2.88a1.146,1.146,0,0,0,2.291,0v-1.833a1.91,1.91,0,0,1,2.11-1.9,2.025,2.025,0,0,1,1.708,2.073v12.656Z" transform="translate(-239.452 -179.578)" fill="#e6b510"/>
          </g>
        </g>
      </g>
    </g>
  </g>
</svg>
