<svg xmlns="http://www.w3.org/2000/svg" xmlns:xlink="http://www.w3.org/1999/xlink" width="70" height="70" viewBox="0 0 70 70">
  <defs>
    <clipPath id="clip-Web_1920_59">
      <rect width="70" height="70"/>
    </clipPath>
  </defs>
  <g id="Web_1920_59" data-name="Web 1920 – 59" clip-path="url(#clip-Web_1920_59)">
    <g id="Group_3644" data-name="Group 3644" transform="translate(8.259 2.88)">
      <g id="Group_32" data-name="Group 32">
        <path id="Path_14" data-name="Path 14" d="M2712.807,1417.938l-17.587-5.025v-8.781h11.159v2.022h-1.663a.947.947,0,0,0-.947.948v3.916a.947.947,0,0,0,.947.947h5.221a.947.947,0,0,0,.947-.947V1407.1a.947.947,0,0,0-.947-.948h-1.664v-2.022h4.275a.947.947,0,0,0,.26-1.858l-18.251-5.214h0l-.019-.005-.022-.006c-.021-.005-.041-.01-.062-.014l-.046-.007c-.015,0-.029,0-.044-.005s-.042,0-.063,0h-15.708l-.065,0-.043.006a.453.453,0,0,0-.047.007c-.021,0-.041.009-.061.014l-.023.005-.02.006h0l-18.252,5.215a.947.947,0,0,0,.26,1.858h4.275v2.022h-1.664a.947.947,0,0,0-.948.948v3.916a.947.947,0,0,0,.948.947h5.221a.947.947,0,0,0,.947-.947V1407.1a.947.947,0,0,0-.947-.948H2666.5v-2.022h11.158v8.781l-17.588,5.025a.947.947,0,0,0,.26,1.858h4.275v2.021h-1.664a.948.948,0,0,0-.948.948v3.916a.947.947,0,0,0,.948.947h5.221a.946.946,0,0,0,.947-.947v-3.916a.947.947,0,0,0-.947-.948H2666.5V1419.8h11.158v9.362l-3.873,13.556v0l-.007.027h0v.01l-3.714,13h-1.9a.947.947,0,0,0-.947.947v2.969h-1.935a.947.947,0,0,0,0,1.894H2707.6a.947.947,0,0,0,0-1.894h-1.936V1456.7a.946.946,0,0,0-.946-.947h-1.9l-3.714-13v-.007l-.009-.03v0l-3.873-13.555v-9.363h11.158v2.022h-1.663a.947.947,0,0,0-.947.948v3.916a.946.946,0,0,0,.947.947h5.221a.946.946,0,0,0,.947-.947v-3.916a.947.947,0,0,0-.947-.948h-1.664V1419.8h4.275a.947.947,0,0,0,.26-1.858Zm-3.817-9.89v2.022h-3.327v-2.022Zm-13.77-8.828,10.565,3.018h-10.565v-3.018Zm-28,8.828v2.022h-3.328v-2.022Zm0,15.663v2.022h-3.328v-2.022Zm12.336-24.8h13.769v3.328h-13.769Zm13.769,5.221v7.726l-11.588-7.726Zm-13.769.823,11.588,7.726h-11.588v-7.726Zm0,9.619h13.769v3.328h-13.769Zm-1.859,27.474,8.743-6.12,8.743,6.12Zm16.479,1.894-7.735,3.868-7.737-3.868Zm-12.563-13.7h9.655l-4.827,3.378Zm11.712-10.442v7.725l-11.588-7.725Zm-13.769.822,11.588,7.726h-11.588Zm-12.459-18.38,10.565-3.019v3.019Zm0,15.663,10.565-3.019v3.019Zm12.057,12.927,5.635,3.944-8.451,5.917Zm-3.864,13.525,9.033,4.517-12.044,6.022Zm26.813,13.3h1.664v2.022h-34.654v-2.022h10.607a.947.947,0,0,0,0-1.894h-4.931l11.652-5.825,11.652,5.825h-14.151a.947.947,0,0,0,0,1.894H2702.1Zm-1.5-2.757-12.044-6.022,9.033-4.517Zm-4.057-14.2-8.452-5.917,5.634-3.944Zm-1.326-22.787v-3.019l10.566,3.019Zm13.77,5.809v2.022h-3.327v-2.022Z" transform="translate(-2659.389 -1397.017)" fill="#e6b510"/>
      </g>
    </g>
  </g>
</svg>
