<svg xmlns="http://www.w3.org/2000/svg" xmlns:xlink="http://www.w3.org/1999/xlink" width="70" height="70" viewBox="0 0 70 70">
  <defs>
    <clipPath id="clip-Web_1920_80">
      <rect width="70" height="70"/>
    </clipPath>
  </defs>
  <g id="Web_1920_80" data-name="Web 1920 – 80" clip-path="url(#clip-Web_1920_80)">
    <g id="algorithm-2" transform="translate(2 2)">
      <path id="Path_2531" data-name="Path 2531" d="M66.232,23.095H56.561a25.326,25.326,0,0,0-7.349-9.318A4.2,4.2,0,0,0,42,9.83a25.423,25.423,0,0,0-13.648-.907V1H1V22.043H11.183a24.926,24.926,0,0,0-2.466,7.435,4.194,4.194,0,0,0,.011,8.277,25.076,25.076,0,0,0,2.459,7.434H1V66.232H28.356V58.31a25.385,25.385,0,0,0,5.261.558A25.081,25.081,0,0,0,42,57.406a4.173,4.173,0,0,0,2.1,1.318,4.248,4.248,0,0,0,1.1.145,4.193,4.193,0,0,0,4.012-5.423,25.424,25.424,0,0,0,7.361-9.309h9.663ZM43.368,11.521a2.1,2.1,0,1,1-.211,1.6,2.091,2.091,0,0,1,.211-1.6ZM26.251,9.468a24.888,24.888,0,0,0-2.477.888l.822,1.938c.542-.229,1.1-.42,1.654-.606v8.251H19.937V3.1H26.25V9.468ZM3.1,3.1h14.73V19.938H3.1ZM7.313,33.616a2.1,2.1,0,1,1,2.1,2.1A2.106,2.106,0,0,1,7.313,33.616ZM3.1,47.294h9.3a25.314,25.314,0,0,0,2.063,2.772l1.6-1.372c-.389-.453-.758-.923-1.109-1.4h2.882V64.127H3.1ZM26.251,64.128H19.938V47.294h6.313ZM47.222,55.2a2.1,2.1,0,1,1-.21-1.6A2.087,2.087,0,0,1,47.222,55.2Zm.876-3.561A4.179,4.179,0,0,0,41.084,55.5a23.3,23.3,0,0,1-12.729.641V45.19H13.589a22.966,22.966,0,0,1-2.762-7.626,4.183,4.183,0,0,0-.009-7.9,22.852,22.852,0,0,1,2.764-7.623H28.356V11.094a23.308,23.308,0,0,1,12.727.642,4.193,4.193,0,0,0,4.1,5.047,4.133,4.133,0,0,0,2.923-1.2,23.235,23.235,0,0,1,6.13,7.511H38.877V44.137H54.211A23.315,23.315,0,0,1,48.1,51.642Zm-7.118-9.609V25.2h6.313V42.033Zm23.147,0H57.42c.215-.6.412-1.214.58-1.835l-2.033-.548a22.629,22.629,0,0,1-.8,2.382H49.4V25.2h14.73Z" transform="translate(0)" fill="#e6b510"/>
      <path id="Path_2532" data-name="Path 2532" d="M7.1,53H5v6.313h6.313v-2.1H7.1Z" transform="translate(0.209 2.711)" fill="#e6b510"/>
      <path id="Path_2533" data-name="Path 2533" d="M5,49H7.1v2.1H5Z" transform="translate(0.209 2.503)" fill="#e6b510"/>
      <path id="Path_2534" data-name="Path 2534" d="M5,5H7.1V7.1H5Z" transform="translate(0.209 0.209)" fill="#e6b510"/>
      <path id="Path_2535" data-name="Path 2535" d="M9,5h2.1V7.1H9Z" transform="translate(0.417 0.209)" fill="#e6b510"/>
      <path id="Path_2536" data-name="Path 2536" d="M13,5h2.1V7.1H13Z" transform="translate(0.626 0.209)" fill="#e6b510"/>
      <path id="Path_2537" data-name="Path 2537" d="M58,36h2.1v2.1H58Z" transform="translate(2.972 1.825)" fill="#e6b510"/>
      <path id="Path_2538" data-name="Path 2538" d="M58,26h2.1v8.417H58Z" transform="translate(2.972 1.303)" fill="#e6b510"/>
    </g>
  </g>
</svg>
