<svg xmlns="http://www.w3.org/2000/svg" xmlns:xlink="http://www.w3.org/1999/xlink" width="70" height="70" viewBox="0 0 70 70">
  <defs>
    <clipPath id="clip-Web_1920_58">
      <rect width="70" height="70"/>
    </clipPath>
  </defs>
  <g id="Web_1920_58" data-name="Web 1920 – 58" clip-path="url(#clip-Web_1920_58)">
    <g id="solar-energy" transform="translate(2.911 2.88)">
      <path id="Path_2396" data-name="Path 2396" d="M117.606,149.879a32.274,32.274,0,1,1,32.274-32.274A32.31,32.31,0,0,1,117.606,149.879Zm0-61.32a29.046,29.046,0,1,0,29.046,29.046A29.08,29.08,0,0,0,117.606,88.559Zm0,0" transform="translate(-85.332 -85.332)" fill="#e6b510"/>
      <path id="Path_2401" data-name="Path 2401" d="M185.65,176.413a1.612,1.612,0,0,1-1.571-1.977l4.384-19H180.81a1.613,1.613,0,0,1-1.22-2.669l20.978-24.2a1.613,1.613,0,0,1,2.791,1.42l-4.384,19h7.653a1.613,1.613,0,0,1,1.22,2.669l-20.978,24.2A1.608,1.608,0,0,1,185.65,176.413Zm-1.307-24.2h6.148a1.614,1.614,0,0,1,1.572,1.977l-3.381,14.652,14.412-16.629h-6.148a1.614,1.614,0,0,1-1.573-1.977l3.382-14.652Zm0,0" transform="translate(-161.445 -119.935)" fill="#e6b510"/>
    </g>
  </g>
</svg>
