<svg xmlns="http://www.w3.org/2000/svg" xmlns:xlink="http://www.w3.org/1999/xlink" width="22.05" height="22" viewBox="0 0 22.05 22">
  <defs>
    <clipPath id="clip-Web_1920_364">
      <rect width="22.05" height="22"/>
    </clipPath>
  </defs>
  <g id="Web_1920_364" data-name="Web 1920 – 364" clip-path="url(#clip-Web_1920_364)">
    <g id="layer1">
      <path id="path3078" d="M55.5,1002.345H77.495v11.874l-1.089,1.7,1.089,1.514v6.907H55.5v-11.194l.68-.782-.68-.748Z" transform="translate(-55.5 -1002.345)" fill="#016fd0"/>
      <path id="path3082" d="M249.14,1544.353v-3.519h3.726l.4.521.413-.521H267.2v3.276a1.562,1.562,0,0,1-.763.243h-7.488l-.451-.555v.555h-1.477v-.947a1.24,1.24,0,0,1-.638.132h-.5v.815h-2.236l-.4-.532-.405.532Z" transform="translate(-245.207 -1529.002)" fill="#fff"/>
      <path id="path3080" d="M55.5,1337.581l.823-1.959h1.424l.467,1.1v-1.1h1.77l.278.793.27-.793h7.946v.4a1.7,1.7,0,0,1,1.1-.4l2.578.009.459,1.083v-1.092H74.1l.408.622v-.622H76v3.519H74.509l-.391-.624v.624H71.942l-.219-.555h-.585l-.215.555H69.447a1.446,1.446,0,0,1-.968-.391v.391H66.253l-.442-.555v.555H57.536l-.219-.555h-.583l-.217.555H55.5Z" transform="translate(-55.5 -1328.299)" fill="#fff"/>
      <path id="path3046" d="M56.826,1354.929l-1.133,2.635h.738l.209-.528h1.216l.208.528h.754l-1.132-2.635Zm.419.613.371.922h-.742Z" transform="translate(-55.689 -1347.174)" fill="#016fd0"/>
      <path id="path3048" d="M198.223,1357.544v-2.635l1.048,0,.61,1.7.6-1.7h1.04v2.635h-.659V1355.6l-.7,1.941h-.578l-.7-1.941v1.941Z" transform="translate(-195.016 -1347.155)" fill="#016fd0"/>
      <path id="path3050" d="M364.861,1357.544v-2.635h2.149v.589h-1.484v.451h1.449v.555h-1.449v.468h1.484v.572Z" transform="translate(-358.053 -1347.155)" fill="#016fd0"/>
      <path id="path3052" d="M477.5,1354.929v2.635h.659v-.936h.277l.79.936h.8l-.867-.971a.8.8,0,0,0,.723-.809.852.852,0,0,0-.921-.855Zm.659.589h.753a.3.3,0,0,1,.312.277.3.3,0,0,1-.3.277h-.763Z" transform="translate(-468.214 -1347.174)" fill="#016fd0"/>
      <path id="path3054" d="M596.359,1357.544h-.672v-2.635h.672Z" transform="translate(-583.782 -1347.155)" fill="#016fd0"/>
      <path id="path3056" d="M641.166,1357.544h-.145a1.161,1.161,0,0,1-1.129-1.306,1.207,1.207,0,0,1,1.309-1.328h.728v.624h-.755a.634.634,0,0,0-.615.711.645.645,0,0,0,.711.725h.173Z" transform="translate(-627.03 -1347.155)" fill="#016fd0"/>
      <path id="path3058" d="M711.085,1354.929l-1.133,2.635h.738l.209-.528h1.215l.208.528h.754l-1.132-2.635Zm.419.613.37.922h-.742Z" transform="translate(-695.565 -1347.174)" fill="#016fd0"/>
      <path id="path3060" d="M852.433,1357.544v-2.635h.837l1.069,1.655v-1.655H855v2.635h-.81l-1.1-1.7v1.7Z" transform="translate(-834.945 -1347.155)" fill="#016fd0"/>
      <path id="path3062" d="M269.2,1562.756v-2.635h2.149v.589h-1.484v.451h1.449v.555h-1.449v.468h1.484v.572Z" transform="translate(-264.496 -1547.853)" fill="#016fd0"/>
      <path id="path3064" d="M737.947,1562.756v-2.635H740.1v.589h-1.484v.451h1.442v.555h-1.442v.468H740.1v.572Z" transform="translate(-722.928 -1547.853)" fill="#016fd0"/>
      <path id="path3066" d="M367.49,1562.756l1.047-1.3-1.071-1.333h.83l.638.824.64-.824h.8l-1.057,1.317,1.048,1.318h-.83l-.62-.812-.6.812Z" transform="translate(-360.605 -1547.853)" fill="#016fd0"/>
      <path id="path3068" d="M499.869,1560.141v2.635h.676v-.832h.693a.911.911,0,0,0,1.031-.917.867.867,0,0,0-.946-.886Zm.676.6h.73a.3.3,0,0,1,.325.3.3.3,0,0,1-.327.3h-.728Z" transform="translate(-490.093 -1547.873)" fill="#016fd0"/>
      <path id="path3072" d="M619.448,1560.121v2.635h.659v-.936h.277l.79.936h.8l-.867-.971a.8.8,0,0,0,.723-.809.852.852,0,0,0-.921-.855Zm.659.589h.753a.3.3,0,0,1,.312.277.3.3,0,0,1-.3.277h-.763Z" transform="translate(-607.042 -1547.853)" fill="#016fd0"/>
      <path id="path3074" d="M843.549,1562.756v-.572h1.318c.2,0,.279-.105.279-.221s-.084-.223-.279-.223h-.6a.736.736,0,0,1-.806-.789c0-.423.264-.83,1.033-.83h1.283l-.277.593h-1.109c-.212,0-.277.111-.277.218a.23.23,0,0,0,.243.229h.624a.723.723,0,0,1,.828.756.79.79,0,0,1-.859.839Z" transform="translate(-826.178 -1547.853)" fill="#016fd0"/>
      <path id="path3076" d="M951.145,1562.756v-.572h1.318c.2,0,.28-.105.28-.221s-.084-.223-.28-.223h-.6a.736.736,0,0,1-.806-.789c0-.423.264-.83,1.034-.83h1.283l-.277.593h-1.109c-.212,0-.278.111-.278.218a.23.23,0,0,0,.243.229h.624a.723.723,0,0,1,.828.756.79.79,0,0,1-.859.839Z" transform="translate(-931.357 -1547.853)" fill="#016fd0"/>
    </g>
  </g>
</svg>
