<svg xmlns="http://www.w3.org/2000/svg" xmlns:xlink="http://www.w3.org/1999/xlink" width="53.58" height="22" viewBox="0 0 53.58 22">
  <defs>
    <clipPath id="clip-Web_1920_365">
      <rect width="53.58" height="22"/>
    </clipPath>
  </defs>
  <g id="Web_1920_365" data-name="Web 1920 – 365" clip-path="url(#clip-Web_1920_365)">
    <path id="XMLID_34_" d="M9.849,2.836A3.292,3.292,0,0,1,7.211,4.082,3.732,3.732,0,0,1,8.153,1.35,3.934,3.934,0,0,1,10.77,0a3.974,3.974,0,0,1-.921,2.836m.911,1.444c-1.455-.084-2.7.827-3.391.827s-1.758-.785-2.91-.764A4.3,4.3,0,0,0,.806,6.562c-1.57,2.7-.408,6.7,1.109,8.9.743,1.088,1.633,2.282,2.8,2.24,1.109-.042,1.549-.722,2.889-.722s1.737.722,2.91.7c1.214-.021,1.978-1.088,2.721-2.177A9.547,9.547,0,0,0,14.454,13a3.943,3.943,0,0,1-2.365-3.59A4.027,4.027,0,0,1,14,6.039a4.148,4.148,0,0,0-3.245-1.758m8.4-3.035V17.562H21.7V11.984H25.2A5.179,5.179,0,0,0,30.656,6.6a5.118,5.118,0,0,0-5.369-5.359H19.164ZM21.7,3.381h2.92c2.2,0,3.454,1.172,3.454,3.234s-1.256,3.245-3.464,3.245H21.7ZM35.282,17.688a4.19,4.19,0,0,0,3.736-2.083h.052v1.957h2.344V9.441c0-2.355-1.884-3.873-4.783-3.873-2.69,0-4.678,1.539-4.752,3.653h2.282a2.223,2.223,0,0,1,2.4-1.664c1.549,0,2.418.722,2.418,2.051v.9l-3.161.188c-2.941.178-4.532,1.382-4.532,3.475C31.284,16.285,32.927,17.688,35.282,17.688Zm.68-1.936c-1.35,0-2.208-.649-2.208-1.643,0-1.026.827-1.622,2.407-1.716l2.815-.178v.921A2.753,2.753,0,0,1,35.962,15.752ZM44.544,22c2.47,0,3.632-.942,4.647-3.8L53.64,5.725H51.065l-2.983,9.639H48.03L45.047,5.725H42.4L46.69,17.6l-.23.722a2.013,2.013,0,0,1-2.135,1.7c-.2,0-.586-.021-.743-.042v1.957A6.977,6.977,0,0,0,44.544,22Z" transform="translate(-0.059)"/>
  </g>
</svg>
