<svg xmlns="http://www.w3.org/2000/svg" xmlns:xlink="http://www.w3.org/1999/xlink" width="109" height="44" viewBox="0 0 109 44">
  <defs>
    <clipPath id="clip-Web_1920_117">
      <rect width="109" height="44"/>
    </clipPath>
  </defs>
  <g id="Web_1920_117" data-name="Web 1920 – 117" clip-path="url(#clip-Web_1920_117)">
    <g id="Group_25" data-name="Group 25" transform="translate(-96.427 -137)">
      <path id="Path_12" data-name="Path 12" d="M121.453,154.028a9.061,9.061,0,0,1,3.6,4.361,9.426,9.426,0,0,1,.663,3.745c0,4.6-2.512,7.774-7.252,9.291a16.194,16.194,0,0,1-5.261.759H98.086a1.68,1.68,0,0,1-1.659-1.659v-3.413a1.69,1.69,0,0,1,1.659-1.707h15.5a6.891,6.891,0,0,0,4.076-1,3.056,3.056,0,0,0,1.138-2.56,3.36,3.36,0,0,0-1.185-2.7,6.608,6.608,0,0,0-4.408-1.28H98.086a1.69,1.69,0,0,1-1.659-1.707V152.89a1.679,1.679,0,0,1,1.659-1.659h14.266c3.033,0,3.981-1.185,4.455-2.086a3.435,3.435,0,0,0,.332-1.564,4.943,4.943,0,0,0-.237-1.564,2.634,2.634,0,0,0-.663-1.043,4.337,4.337,0,0,0-3.46-1.185H98.086a1.69,1.69,0,0,1-1.659-1.706v-3.413a1.68,1.68,0,0,1,1.659-1.659h14.266c3.887,0,6.92,1.09,9.052,3.318a10.1,10.1,0,0,1,.048,13.7Zm42.609-17.018a1.68,1.68,0,0,1,1.659,1.659V170.43a1.68,1.68,0,0,1-1.659,1.659h-3.6a1.649,1.649,0,0,1-1.659-1.659V149l-8.768,11.283a1.764,1.764,0,0,1-1.327.616,1.6,1.6,0,0,1-1.327-.663l-15.546-20.574a1.6,1.6,0,0,1-.142-1.707,1.672,1.672,0,0,1,1.469-.948h4.171a1.661,1.661,0,0,1,1.327.663l10.048,13.274,9.811-13.274a1.685,1.685,0,0,1,1.374-.663ZM136.762,160a1.649,1.649,0,0,1,1.659,1.659v8.77a1.68,1.68,0,0,1-1.659,1.659h-3.6a1.679,1.679,0,0,1-1.659-1.659v-8.77A1.649,1.649,0,0,1,133.159,160Zm54.127-16.213a1.641,1.641,0,0,1-1.422-1.659v-3.461a1.528,1.528,0,0,1,.569-1.233,1.733,1.733,0,0,1,1.327-.426,16.829,16.829,0,0,1,7.252,2.892,15.914,15.914,0,0,1,5.83,7.917,1.707,1.707,0,0,1-.189,1.517,1.667,1.667,0,0,1-1.375.711h-3.792a1.719,1.719,0,0,1-1.564-1,8.965,8.965,0,0,0-3.175-3.935,8.782,8.782,0,0,0-3.46-1.327Zm11.992,15.739a1.666,1.666,0,0,1,1.375.711,1.706,1.706,0,0,1,.189,1.517,15.916,15.916,0,0,1-5.83,7.917,16.839,16.839,0,0,1-7.252,2.892h-.237a1.5,1.5,0,0,1-1.09-.427,1.529,1.529,0,0,1-.569-1.233v-3.461a1.642,1.642,0,0,1,1.374-1.659,8.081,8.081,0,0,0,3.508-1.327,8.965,8.965,0,0,0,3.175-3.935,1.72,1.72,0,0,1,1.564-1Zm-16.968-21.949a1.6,1.6,0,0,1,.616,1.28v3.7a1.768,1.768,0,0,1-1.232,1.612,6.676,6.676,0,0,0-1.043.332,9.37,9.37,0,0,0-3.223,2.323,13.089,13.089,0,0,0,0,15.928A8.858,8.858,0,0,0,185.3,165.4a1.665,1.665,0,0,1,1.232,1.564v3.745a1.6,1.6,0,0,1-.616,1.28,1.612,1.612,0,0,1-1.09.379h-.332a15.774,15.774,0,0,1-8.579-4.93,20.042,20.042,0,0,1,0-25.315,15.414,15.414,0,0,1,8.579-4.883,1.561,1.561,0,0,1,1.422.332Z" transform="translate(0 0)" fill="#fff"/>
      <path id="Path_13" data-name="Path 13" d="M102.128,239.195q1.2,0,1.2.927a.837.837,0,0,1-.511.79.905.905,0,0,1,.519.351,1.041,1.041,0,0,1,.171.6.967.967,0,0,1-.366.8,1.5,1.5,0,0,1-.961.292h-1.822v-3.761Zm-.105,1.522q.5,0,.5-.448,0-.432-.558-.432h-.785v.879Zm.047,1.6q.606,0,.606-.5,0-.537-.59-.537h-.906v1.032Zm5.673-3.118,1.406,3.761h-.859l-.284-.838H106.6l-.295.838h-.837l1.427-3.761Zm-.437.927-.49,1.38h.974l-.474-1.38Zm4.8-.927v3.761h-.827v-3.761Zm3.361,0v1.559l1.469-1.559h1.032L116.5,240.68l1.611,2.276h-1.037l-1.132-1.691-.474.479v1.212h-.827v-3.761Zm6.658,0,1.406,3.761h-.858l-.284-.838h-1.406l-.295.838h-.838l1.427-3.761Zm-.437.927-.49,1.38h.974l-.474-1.38Zm4.8-.927v3.065h1.832v.7h-2.659v-3.761Zm8.539,0,.879,2.586h.011l.832-2.586h1.164v3.761h-.774V240.29h-.011l-.922,2.665h-.637l-.921-2.639h-.011v2.639h-.774v-3.761Zm6.247,0v3.761h-.827v-3.761Zm3.356,0,1.57,2.523h.011v-2.523h.774v3.761h-.827l-1.564-2.518h-.011v2.518h-.774v-3.761Zm5.715,0v3.761h-.827v-3.761Zm3.356,0,1.57,2.523h.011v-2.523h.774v3.761h-.827l-1.564-2.518h-.011v2.518h-.774v-3.761Zm6.573-.09a1.645,1.645,0,0,1,1.09.374,1.338,1.338,0,0,1,.495.953h-.79a.794.794,0,0,0-.284-.474.827.827,0,0,0-.511-.158.9.9,0,0,0-.753.35,1.508,1.508,0,0,0-.268.94,1.423,1.423,0,0,0,.274.919.908.908,0,0,0,.748.34.806.806,0,0,0,.9-.811h-.832v-.617h1.58v2.033H161.4l-.084-.427a1.24,1.24,0,0,1-1.032.516,1.742,1.742,0,0,1-1.34-.548,1.985,1.985,0,0,1-.508-1.406,2.042,2.042,0,0,1,.506-1.43,1.727,1.727,0,0,1,1.343-.556Zm9.076,0a1.674,1.674,0,0,1,1.106.372,1.431,1.431,0,0,1,.516.982h-.8a.725.725,0,0,0-.279-.469.843.843,0,0,0-.542-.189.9.9,0,0,0-.753.347,1.5,1.5,0,0,0-.269.943,1.433,1.433,0,0,0,.271.919.908.908,0,0,0,.751.34.788.788,0,0,0,.579-.219,1.035,1.035,0,0,0,.274-.624h.8a1.657,1.657,0,0,1-.514,1.127,1.625,1.625,0,0,1-1.14.411,1.748,1.748,0,0,1-1.337-.545,1.977,1.977,0,0,1-.511-1.409,2.042,2.042,0,0,1,.505-1.43,1.729,1.729,0,0,1,1.343-.556Zm5.71,0a1.734,1.734,0,0,1,1.34.553,2.034,2.034,0,0,1,.508,1.433,1.98,1.98,0,0,1-.51,1.406,1.91,1.91,0,0,1-2.678,0,1.985,1.985,0,0,1-.508-1.406,2.029,2.029,0,0,1,.511-1.43,1.731,1.731,0,0,1,1.338-.556Zm-1.021,1.986a1.446,1.446,0,0,0,.268.914.9.9,0,0,0,.753.345.909.909,0,0,0,.748-.34,1.425,1.425,0,0,0,.274-.919,1.487,1.487,0,0,0-.271-.948.909.909,0,0,0-.755-.342.9.9,0,0,0-.745.342,1.489,1.489,0,0,0-.271.948Zm6.4-1.9.879,2.586h.011l.832-2.586h1.164v3.761h-.774V240.29h-.011l-.922,2.665h-.637l-.921-2.639h-.011v2.639h-.774v-3.761Zm7.121,0a1.328,1.328,0,0,1,.948.327,1.29,1.29,0,0,1,0,1.762,1.327,1.327,0,0,1-.942.324H186.7v1.348h-.827v-3.761Zm-.216,1.77a.893.893,0,0,0,.535-.131.505.505,0,0,0,.176-.432.513.513,0,0,0-.171-.426.852.852,0,0,0-.534-.137H186.7v1.127Zm5.71-1.77,1.406,3.761h-.858l-.284-.838h-1.406l-.295.838h-.838l1.427-3.761Zm-.437.927-.49,1.38h.974l-.474-1.38Zm4.8-.927L199,241.717h.011v-2.523h.774v3.761h-.827l-1.564-2.518h-.011v2.518h-.774v-3.761Zm5.41,0,.879,1.485.874-1.485h.922l-1.4,2.317v1.444h-.827v-1.464l-1.385-2.3Z" transform="translate(-2.39 -62.161)" fill="#fff"/>
    </g>
  </g>
</svg>
