<svg xmlns="http://www.w3.org/2000/svg" xmlns:xlink="http://www.w3.org/1999/xlink" width="1244" height="852" viewBox="0 0 1244 852">
  <defs>
    <filter id="Mask" x="252.863" y="726" width="37" height="37" filterUnits="userSpaceOnUse">
      <feOffset dx="-3" dy="-3" input="SourceAlpha"/>
      <feGaussianBlur stdDeviation="3" result="blur"/>
      <feFlood flood-color="#fff"/>
      <feComposite operator="in" in2="blur"/>
      <feComposite in="SourceGraphic"/>
    </filter>
    <filter id="Mask-2" x="588.5" y="174.5" width="33" height="33" filterUnits="userSpaceOnUse">
      <feOffset dx="-3" dy="-3" input="SourceAlpha"/>
      <feGaussianBlur stdDeviation="1.5" result="blur-2"/>
      <feFlood flood-color="#fff"/>
      <feComposite operator="in" in2="blur-2"/>
      <feComposite in="SourceGraphic"/>
    </filter>
    <filter id="Mask-3" x="667.5" y="174.5" width="33" height="33" filterUnits="userSpaceOnUse">
      <feOffset dx="-3" dy="-3" input="SourceAlpha"/>
      <feGaussianBlur stdDeviation="1.5" result="blur-3"/>
      <feFlood flood-color="#fff"/>
      <feComposite operator="in" in2="blur-3"/>
      <feComposite in="SourceGraphic"/>
    </filter>
    <filter id="Mask-4" x="739.5" y="174.5" width="33" height="33" filterUnits="userSpaceOnUse">
      <feOffset dx="-3" dy="-3" input="SourceAlpha"/>
      <feGaussianBlur stdDeviation="1.5" result="blur-4"/>
      <feFlood flood-color="#fff"/>
      <feComposite operator="in" in2="blur-4"/>
      <feComposite in="SourceGraphic"/>
    </filter>
    <filter id="Rectangle_17378" x="7" y="10.968" width="1234" height="842" filterUnits="userSpaceOnUse">
      <feOffset dx="2" dy="5" input="SourceAlpha"/>
      <feGaussianBlur stdDeviation="5" result="blur-5"/>
      <feFlood flood-color="#e6e6e6"/>
      <feComposite operator="in" in2="blur-5"/>
      <feComposite in="SourceGraphic"/>
    </filter>
    <filter id="Rectangle_17379" x="0" y="3.968" width="1234" height="842" filterUnits="userSpaceOnUse">
      <feOffset dx="-5" dy="-2" input="SourceAlpha"/>
      <feGaussianBlur stdDeviation="5" result="blur-6"/>
      <feFlood flood-color="#fff"/>
      <feComposite operator="in" in2="blur-6"/>
      <feComposite in="SourceGraphic"/>
    </filter>
    <linearGradient id="linear-gradient" x1="0.5" x2="0.5" y2="1" gradientUnits="objectBoundingBox">
      <stop offset="0" stop-color="#f5b300"/>
      <stop offset="0" stop-color="#f5b404" stop-opacity="0.984"/>
      <stop offset="1" stop-color="#fff" stop-opacity="0.102"/>
    </linearGradient>
    <clipPath id="clip-path">
      <g transform="matrix(1, 0, 0, 1, 0, 0)" filter="url(#Mask)">
        <rect id="Mask-5" data-name="Mask" width="19" height="19" rx="9.5" fill="#f5f5f5"/>
      </g>
    </clipPath>
    <filter id="Neuo_dark_shade_" x="265.863" y="739" width="19" height="19" filterUnits="userSpaceOnUse">
      <feOffset dx="1" dy="1" input="SourceAlpha"/>
      <feGaussianBlur stdDeviation="1" result="blur-7"/>
      <feFlood flood-opacity="0.161"/>
      <feComposite operator="in" in2="blur-7"/>
      <feComposite in="SourceGraphic"/>
    </filter>
    <filter id="Neuo_white_shade_" x="263.863" y="737" width="19" height="19" filterUnits="userSpaceOnUse">
      <feOffset dx="-1" dy="-1" input="SourceAlpha"/>
      <feGaussianBlur stdDeviation="1" result="blur-8"/>
      <feFlood flood-color="#fff"/>
      <feComposite operator="in" in2="blur-8"/>
      <feComposite in="SourceGraphic"/>
    </filter>
    <filter id="Button_background" x="255.863" y="729" width="31" height="31" filterUnits="userSpaceOnUse">
      <feOffset dx="-3" dy="-3" input="SourceAlpha"/>
      <feGaussianBlur stdDeviation="3" result="blur-9"/>
      <feFlood flood-color="#fff"/>
      <feComposite operator="in" in2="blur-9"/>
      <feComposite in="SourceGraphic"/>
    </filter>
    <clipPath id="clip-path-2">
      <g transform="matrix(1, 0, 0, 1, 0, 0)" filter="url(#Mask-2)">
        <rect id="Mask-6" data-name="Mask" width="24" height="24" rx="12" transform="translate(0)" fill="#f5f5f5"/>
      </g>
    </clipPath>
    <filter id="Neuo_dark_shade_2" x="598" y="184" width="22" height="22" filterUnits="userSpaceOnUse">
      <feOffset dx="1" dy="1" input="SourceAlpha"/>
      <feGaussianBlur stdDeviation="1" result="blur-10"/>
      <feFlood flood-opacity="0.161"/>
      <feComposite operator="in" in2="blur-10"/>
      <feComposite in="SourceGraphic"/>
    </filter>
    <filter id="Neuo_white_shade_2" x="596" y="182" width="22" height="22" filterUnits="userSpaceOnUse">
      <feOffset dx="-1" dy="-1" input="SourceAlpha"/>
      <feGaussianBlur stdDeviation="1" result="blur-11"/>
      <feFlood flood-color="#fff"/>
      <feComposite operator="in" in2="blur-11"/>
      <feComposite in="SourceGraphic"/>
    </filter>
    <filter id="Button_background-2" x="588" y="174" width="34" height="34" filterUnits="userSpaceOnUse">
      <feOffset dx="-3" dy="-3" input="SourceAlpha"/>
      <feGaussianBlur stdDeviation="3" result="blur-12"/>
      <feFlood flood-color="#fff"/>
      <feComposite operator="in" in2="blur-12"/>
      <feComposite in="SourceGraphic"/>
    </filter>
    <filter id="Neuo_dark_shade_3" x="677" y="184" width="22" height="22" filterUnits="userSpaceOnUse">
      <feOffset dx="1" dy="1" input="SourceAlpha"/>
      <feGaussianBlur stdDeviation="1" result="blur-13"/>
      <feFlood flood-opacity="0.161"/>
      <feComposite operator="in" in2="blur-13"/>
      <feComposite in="SourceGraphic"/>
    </filter>
    <filter id="Neuo_white_shade_3" x="675" y="182" width="22" height="22" filterUnits="userSpaceOnUse">
      <feOffset dx="-1" dy="-1" input="SourceAlpha"/>
      <feGaussianBlur stdDeviation="1" result="blur-14"/>
      <feFlood flood-color="#fff"/>
      <feComposite operator="in" in2="blur-14"/>
      <feComposite in="SourceGraphic"/>
    </filter>
    <filter id="Button_background-3" x="667" y="174" width="34" height="34" filterUnits="userSpaceOnUse">
      <feOffset dx="-3" dy="-3" input="SourceAlpha"/>
      <feGaussianBlur stdDeviation="3" result="blur-15"/>
      <feFlood flood-color="#fff"/>
      <feComposite operator="in" in2="blur-15"/>
      <feComposite in="SourceGraphic"/>
    </filter>
    <filter id="Neuo_dark_shade_4" x="749" y="184" width="22" height="22" filterUnits="userSpaceOnUse">
      <feOffset dx="1" dy="1" input="SourceAlpha"/>
      <feGaussianBlur stdDeviation="1" result="blur-16"/>
      <feFlood flood-opacity="0.161"/>
      <feComposite operator="in" in2="blur-16"/>
      <feComposite in="SourceGraphic"/>
    </filter>
    <filter id="Neuo_white_shade_4" x="747" y="182" width="22" height="22" filterUnits="userSpaceOnUse">
      <feOffset dx="-1" dy="-1" input="SourceAlpha"/>
      <feGaussianBlur stdDeviation="1" result="blur-17"/>
      <feFlood flood-color="#fff"/>
      <feComposite operator="in" in2="blur-17"/>
      <feComposite in="SourceGraphic"/>
    </filter>
    <filter id="Button_background-4" x="739" y="174" width="34" height="34" filterUnits="userSpaceOnUse">
      <feOffset dx="-3" dy="-3" input="SourceAlpha"/>
      <feGaussianBlur stdDeviation="3" result="blur-18"/>
      <feFlood flood-color="#fff"/>
      <feComposite operator="in" in2="blur-18"/>
      <feComposite in="SourceGraphic"/>
    </filter>
    <filter id="Ellipse_166" x="225" y="377" width="46" height="46" filterUnits="userSpaceOnUse">
      <feOffset dy="2" input="SourceAlpha"/>
      <feGaussianBlur stdDeviation="3" result="blur-19"/>
      <feFlood flood-opacity="0.161"/>
      <feComposite operator="in" in2="blur-19"/>
      <feComposite in="SourceGraphic"/>
    </filter>
    <clipPath id="clip-Web_1920_208">
      <rect width="1244" height="852"/>
    </clipPath>
  </defs>
  <g id="Web_1920_208" data-name="Web 1920 – 208" clip-path="url(#clip-Web_1920_208)">
    <g id="Group_4049" data-name="Group 4049" transform="translate(1224 20.968) rotate(90)">
      <g transform="matrix(0, -1, 1, 0, -20.97, 1224)" filter="url(#Rectangle_17378)">
        <rect id="Rectangle_17378-2" data-name="Rectangle 17378" width="812" height="1204" rx="15" transform="translate(1224 20.97) rotate(90)" fill="#f5f5f5"/>
      </g>
      <g transform="matrix(0, -1, 1, 0, -20.97, 1224)" filter="url(#Rectangle_17379)">
        <rect id="Rectangle_17379-2" data-name="Rectangle 17379" width="812" height="1204" rx="15" transform="translate(1224 20.97) rotate(90)" fill="#f7f7f7"/>
      </g>
      <path id="bg" d="M72.135,0h372.7c39.839,0,72.135,100.53,72.135,224.541V254.48c0,124.011-32.3,224.541-72.135,224.541H72.135C32.3,479.021,0,378.49,0,254.48V224.541C0,100.53,32.3,0,72.135,0Z" transform="translate(148.006 660.714)" fill="none" opacity="0.3"/>
    </g>
    <text id="Total_profit_for_the_selected_period:_USD_RUB_" data-name="Total profit for the selected period: [USD/RUB/%]" transform="translate(1198 201)" fill="#3e3e3e" font-size="18" font-family="Roboto-Light, Roboto" font-weight="300"><tspan x="-379.74" y="0">Total profit for the selected period: [USD/RUB/%]</tspan></text>
    <g id="Group_4050" data-name="Group 4050" transform="translate(59 40)">
      <text id="Starting_Amount" data-name="Starting Amount" fill="#303030" font-size="24" font-family="montserrat" font-weight="500"><tspan x="0" y="23">Starting Amount</tspan></text>
      <g id="border" transform="translate(0 49)" fill="none" stroke="#171717" stroke-width="1" opacity="0.6">
        <rect width="180" height="40" rx="20" stroke="none"/>
        <rect x="0.5" y="0.5" width="179" height="39" rx="19.5" fill="none"/>
      </g>
      <text id="_5.000" data-name="$ 5.000" transform="translate(22 76)" fill="#3e3e3e" font-size="20" font-family="Montserrat-Regular, Montserrat" letter-spacing="0.02em"><tspan x="0" y="0">$ 5.000</tspan></text>
      <g id="border-2" data-name="border" transform="translate(210 49)" fill="none" stroke="#171717" stroke-width="1" opacity="0.6">
        <rect width="160" height="40" rx="20" stroke="none"/>
        <rect x="0.5" y="0.5" width="159" height="39" rx="19.5" fill="none"/>
      </g>
      <text id="Choose_" data-name="Choose $ " transform="translate(233 75)" fill="#3e3e3e" font-size="16" font-family="Montserrat-Regular, Montserrat" letter-spacing="0.02em"><tspan x="0" y="0">Choose $ </tspan></text>
      <g id="Polygon_1" data-name="Polygon 1" transform="translate(354.036 76.061) rotate(180)" fill="#787878">
        <path d="M 11.32814788818359 9.560776710510254 L 0.888505756855011 9.560776710510254 L 6.10832691192627 0.963423490524292 L 11.32814788818359 9.560776710510254 Z" stroke="none"/>
        <path d="M 6.10832691192627 1.92686653137207 L 1.777024269104004 9.060776710510254 L 10.43962955474854 9.060776710510254 L 6.10832691192627 1.92686653137207 M 6.10832691192627 -2.86102294921875e-06 L 12.21665668487549 10.06077671051025 L -2.86102294921875e-06 10.06077671051025 L 6.10832691192627 -2.86102294921875e-06 Z" stroke="none" fill="#707070"/>
      </g>
    </g>
    <g id="Group_4051" data-name="Group 4051" transform="translate(708.956 40)">
      <text id="Investment_period_" data-name="Investment period " transform="translate(0.044 23)" fill="#303030" font-size="24" font-family="Montserrat-Medium, Montserrat" font-weight="500"><tspan x="0" y="0">Investment period </tspan></text>
      <g id="border-3" data-name="border" transform="translate(0.044 49)" fill="none" stroke="#171717" stroke-width="1" opacity="0.6">
        <rect width="160" height="40" rx="20" stroke="none"/>
        <rect x="0.5" y="0.5" width="159" height="39" rx="19.5" fill="none"/>
      </g>
      <text id="_0_5_yr" data-name="0,5 yr" transform="translate(23.044 76)" fill="#3e3e3e" font-size="19" font-family="Montserrat-Regular, Montserrat" letter-spacing="0.02em"><tspan x="0" y="0">0,5 YR</tspan></text>
      <g id="Polygon_5" data-name="Polygon 5" transform="translate(145.249 76.061) rotate(180)" fill="#787878">
        <path d="M 11.32814788818359 9.560776710510254 L 0.888505756855011 9.560776710510254 L 6.10832691192627 0.963423490524292 L 11.32814788818359 9.560776710510254 Z" stroke="none"/>
        <path d="M 6.10832691192627 1.92686653137207 L 1.777024269104004 9.060776710510254 L 10.43962955474854 9.060776710510254 L 6.10832691192627 1.92686653137207 M 6.10832691192627 -2.86102294921875e-06 L 12.21665668487549 10.06077671051025 L -2.86102294921875e-06 10.06077671051025 L 6.10832691192627 -2.86102294921875e-06 Z" stroke="none" fill="#707070"/>
      </g>
    </g>
    <text id="THIS_investment_Will_be_worth:_5.000" data-name="THIS investment Will be worth: $5.000" transform="translate(380 801)" fill="#171717" font-size="20" font-family="Montserrat-SemiBold, Montserrat" font-weight="600" letter-spacing="0.01em"><tspan x="0" y="0">THIS INVESTMENT WILL BE WORTH: </tspan><tspan y="0" fill="#e6b510" font-size="26">$5.000</tspan></text>
    <rect id="Rectangle_17508" data-name="Rectangle 17508" width="1204" height="5" transform="translate(20 250)" fill="#eaebeb"/>
    <g id="Group_4052" data-name="Group 4052" transform="translate(-340.637 -1667.729)">
      <path id="Path_88" data-name="Path 88" d="M5825.643,518.574s-31.684-75.5-116.383-77.042-160.175,212.011-243.142,215.1-85.269-43.252-183.216-7.53-101.937-77.236-160.44-66.838-70.024,57.927-119.664,54.956-65.741-176.764-128.986-169.371c-74.84-1.056-33.576,222.879-198.473,290.638-2.552-3.5,1150.3-1.908,1150.3-1.908Z" transform="translate(-4287.334 1597.738)" opacity="0.942" fill="url(#linear-gradient)"/>
      <text id="_5k_4_5k_4k_3_5k_3k_2_5k_2k_1_5k_1k_0_5k_0" data-name="$ 5k
$ 4,5k
$ 4k
$ 3,5k
$ 3k
$ 2,5k
$ 2k
$ 1,5k
$ 1k
$ 0,5k
0" transform="translate(387.638 1976.946)" fill="#787878" font-size="14" font-family="Roboto-Regular, Roboto"><tspan x="0" y="0">$ 5k</tspan><tspan x="0" y="40">$ 4,5k</tspan><tspan x="0" y="80">$ 4k</tspan><tspan x="0" y="120">$ 3,5k</tspan><tspan x="0" y="160">$ 3k </tspan><tspan x="0" y="200">$ 2,5k</tspan><tspan x="0" y="240">$ 2k</tspan><tspan x="0" y="280">$ 1,5k</tspan><tspan x="0" y="320">$ 1k</tspan><tspan x="0" y="360">$ 0,5k </tspan><tspan x="0" y="400">0</tspan></text>
      <text id="Jan_18_" data-name="Jan’18   " transform="translate(457.297 2377.127)" fill="#3e3e3e" font-size="13" font-family="Roboto-Regular, Roboto"><tspan x="0" y="0" xml:space="preserve">Jan’18   </tspan></text>
      <text id="Feb_18" data-name="Feb’18" transform="translate(557.57 2377.127)" fill="#3e3e3e" font-size="13" font-family="Roboto-Regular, Roboto"><tspan x="0" y="0">Feb’18</tspan></text>
      <text id="Mar_18" data-name="Mar’18" transform="translate(649.385 2377.127)" fill="#3e3e3e" font-size="13" font-family="Roboto-Regular, Roboto"><tspan x="0" y="0">Mar’18</tspan></text>
      <text id="Apl_18_" data-name="Apl’18 " transform="translate(741.204 2377.127)" fill="#3e3e3e" font-size="13" font-family="Roboto-Regular, Roboto"><tspan x="0" y="0">Apl’18 </tspan></text>
      <text id="May_18_" data-name="May’18 " transform="translate(833.982 2377.127)" fill="#3e3e3e" font-size="13" font-family="Roboto-Regular, Roboto"><tspan x="0" y="0">May’18 </tspan></text>
      <text id="Jun_18" data-name="Jun’18" transform="translate(932.57 2377.127)" fill="#3e3e3e" font-size="13" font-family="Roboto-Regular, Roboto"><tspan x="0" y="0">Jun’18</tspan></text>
      <text id="Jul_18" data-name="Jul’18" transform="translate(1023.425 2378.127)" fill="#3e3e3e" font-size="14" font-family="Roboto-Regular, Roboto"><tspan x="0" y="0">Jul’18</tspan></text>
      <text id="Aug_18_" data-name="Aug’18 " transform="translate(1109.432 2378.127)" fill="#3e3e3e" font-size="14" font-family="Roboto-Regular, Roboto"><tspan x="0" y="0">Aug’18 </tspan></text>
      <text id="Sept_18_" data-name="Sept’18 " transform="translate(1207.042 2378.127)" fill="#3e3e3e" font-size="14" font-family="Roboto-Regular, Roboto"><tspan x="0" y="0">Sept’18 </tspan></text>
      <text id="Oct_18" data-name="Oct’18" transform="translate(1307.573 2377.127)" fill="#3e3e3e" font-size="13" font-family="Roboto-Regular, Roboto"><tspan x="0" y="0">Oct’18</tspan></text>
      <text id="Nov_18" data-name="Nov’18" transform="translate(1398.167 2377.127)" fill="#3e3e3e" font-size="13" font-family="Roboto-Regular, Roboto"><tspan x="0" y="0">Nov’18</tspan></text>
      <text id="Dec_18_" data-name="Dec’18 " transform="translate(1491.139 2377.127)" fill="#3e3e3e" font-size="13" font-family="Roboto-Regular, Roboto"><tspan x="0" y="0">Dec’18 </tspan></text>
    </g>
    <g id="Group_4053" data-name="Group 4053" transform="translate(-1286.137 -2693)">
      <path id="Path_2522" data-name="Path 2522" d="M0,0H1148" transform="translate(1334.5 3440.5)" fill="none" stroke="#e6b510" stroke-width="1"/>
      <g id="Light_Button_round_empty" data-name="Light Button round empty" transform="translate(1570 3431) rotate(90)">
        <g id="Button" clip-path="url(#clip-path)">
          <g transform="matrix(0, -1, 1, 0, -738, 283.86)" filter="url(#Neuo_dark_shade_)">
            <rect id="Neuo_dark_shade_5" data-name="Neuo (dark shade)" width="13" height="13" rx="6.5" transform="translate(280.86 741) rotate(90)" fill="#f5f5f5"/>
          </g>
          <g transform="matrix(0, -1, 1, 0, -738, 283.86)" filter="url(#Neuo_white_shade_)">
            <rect id="Neuo_white_shade_5" data-name="Neuo (white shade)" width="13" height="13" rx="6.5" transform="translate(280.86 741) rotate(90)" fill="#f5f5f5"/>
          </g>
          <g transform="matrix(0, -1, 1, 0, -738, 283.86)" filter="url(#Button_background)">
            <rect id="Button_background-5" data-name="Button background" width="13" height="13" rx="6.5" transform="translate(280.86 741) rotate(90)" fill="#f5f5f5"/>
          </g>
        </g>
      </g>
    </g>
    <g id="Group_4054" data-name="Group 4054" transform="translate(478.879 40)">
      <text id="Start_Date_" data-name="Start Date " transform="translate(0.121 23)" fill="#303030" font-size="24" font-family="Montserrat-Medium, Montserrat" font-weight="500"><tspan x="0" y="0">Start Date </tspan></text>
      <g id="border-4" data-name="border" transform="translate(0.121 49)" fill="none" stroke="#171717" stroke-width="1" opacity="0.6">
        <rect width="180" height="40" rx="20" stroke="none"/>
        <rect x="0.5" y="0.5" width="179" height="39" rx="19.5" fill="none"/>
      </g>
      <text id="_01.04.2018" data-name="01.04.2018" transform="translate(22.121 76)" fill="#3e3e3e" font-size="20" font-family="Montserrat-Regular, Montserrat" letter-spacing="0.02em"><tspan x="0" y="0">01.04.2018</tspan></text>
      <g id="Polygon_4" data-name="Polygon 4" transform="translate(167.992 76.061) rotate(180)" fill="#787878">
        <path d="M 11.32814788818359 9.560776710510254 L 0.888505756855011 9.560776710510254 L 6.10832691192627 0.963423490524292 L 11.32814788818359 9.560776710510254 Z" stroke="none"/>
        <path d="M 6.10832691192627 1.92686653137207 L 1.777024269104004 9.060776710510254 L 10.43962955474854 9.060776710510254 L 6.10832691192627 1.92686653137207 M 6.10832691192627 -2.86102294921875e-06 L 12.21665668487549 10.06077671051025 L -2.86102294921875e-06 10.06077671051025 L 6.10832691192627 -2.86102294921875e-06 Z" stroke="none" fill="#707070"/>
      </g>
    </g>
    <g id="Group_4055" data-name="Group 4055" transform="translate(-304 -2494)">
      <g id="Group_3939" data-name="Group 3939" transform="translate(-1 -3)">
        <g id="Light_Button_round_empty-2" data-name="Light Button round empty" transform="translate(901 2679)">
          <g id="Button-2" data-name="Button" transform="translate(0 0)" clip-path="url(#clip-path-2)">
            <g transform="matrix(1, 0, 0, 1, -596, -182)" filter="url(#Neuo_dark_shade_2)">
              <rect id="Neuo_dark_shade_6" data-name="Neuo (dark shade)" width="16" height="16" rx="8" transform="translate(600 186)" fill="#f5f5f5"/>
            </g>
            <g transform="matrix(1, 0, 0, 1, -596, -182)" filter="url(#Neuo_white_shade_2)">
              <rect id="Neuo_white_shade_6" data-name="Neuo (white shade)" width="16" height="16" rx="8" transform="translate(600 186)" fill="#f5f5f5"/>
            </g>
            <g transform="matrix(1, 0, 0, 1, -596, -182)" filter="url(#Button_background-2)">
              <rect id="Button_background-6" data-name="Button background" width="16" height="16" rx="8" transform="translate(600 186)" fill="#f5f5f5"/>
            </g>
          </g>
        </g>
        <g id="Ellipse_179" data-name="Ellipse 179" transform="translate(907 2685)" fill="#e6b510" stroke="#e6b510" stroke-width="1">
          <circle cx="6" cy="6" r="6" stroke="none"/>
          <circle cx="6" cy="6" r="5.5" fill="none"/>
        </g>
      </g>
      <text id="_" data-name=" $ " transform="translate(928 2694)" fill="#3e3e3e" font-size="16" font-family="Montserrat-Regular, Montserrat" letter-spacing="0.02em"><tspan x="0" y="0" xml:space="preserve"> $ </tspan></text>
    </g>
    <g id="Group_4056" data-name="Group 4056" transform="translate(-225 -2494)">
      <g id="Group_3939-2" data-name="Group 3939" transform="translate(-1 -3)">
        <g id="Light_Button_round_empty-3" data-name="Light Button round empty" transform="translate(901 2679)">
          <g id="Button-3" data-name="Button" transform="translate(0 0)" clip-path="url(#clip-path-2)">
            <g transform="matrix(1, 0, 0, 1, -675, -182)" filter="url(#Neuo_dark_shade_3)">
              <rect id="Neuo_dark_shade_7" data-name="Neuo (dark shade)" width="16" height="16" rx="8" transform="translate(679 186)" fill="#f5f5f5"/>
            </g>
            <g transform="matrix(1, 0, 0, 1, -675, -182)" filter="url(#Neuo_white_shade_3)">
              <rect id="Neuo_white_shade_7" data-name="Neuo (white shade)" width="16" height="16" rx="8" transform="translate(679 186)" fill="#f5f5f5"/>
            </g>
            <g transform="matrix(1, 0, 0, 1, -675, -182)" filter="url(#Button_background-3)">
              <rect id="Button_background-7" data-name="Button background" width="16" height="16" rx="8" transform="translate(679 186)" fill="#f5f5f5"/>
            </g>
          </g>
        </g>
        <g id="Ellipse_179-2" data-name="Ellipse 179" transform="translate(907 2685)" fill="none" stroke="#e6b510" stroke-width="1">
          <circle cx="6" cy="6" r="6" stroke="none"/>
          <circle cx="6" cy="6" r="5.5" fill="none"/>
        </g>
      </g>
      <text id="_2" data-name="₽" transform="translate(928 2694)" fill="#3e3e3e" font-size="16" font-family="Montserrat-Regular, Montserrat" letter-spacing="0.02em"><tspan x="0" y="0">₽</tspan></text>
    </g>
    <g id="Group_4057" data-name="Group 4057" transform="translate(-153 -2494)">
      <g id="Group_3939-3" data-name="Group 3939" transform="translate(-1 -3)">
        <g id="Light_Button_round_empty-4" data-name="Light Button round empty" transform="translate(901 2679)">
          <g id="Button-4" data-name="Button" transform="translate(0 0)" clip-path="url(#clip-path-2)">
            <g transform="matrix(1, 0, 0, 1, -747, -182)" filter="url(#Neuo_dark_shade_4)">
              <rect id="Neuo_dark_shade_8" data-name="Neuo (dark shade)" width="16" height="16" rx="8" transform="translate(751 186)" fill="#f5f5f5"/>
            </g>
            <g transform="matrix(1, 0, 0, 1, -747, -182)" filter="url(#Neuo_white_shade_4)">
              <rect id="Neuo_white_shade_8" data-name="Neuo (white shade)" width="16" height="16" rx="8" transform="translate(751 186)" fill="#f5f5f5"/>
            </g>
            <g transform="matrix(1, 0, 0, 1, -747, -182)" filter="url(#Button_background-4)">
              <rect id="Button_background-8" data-name="Button background" width="16" height="16" rx="8" transform="translate(751 186)" fill="#f5f5f5"/>
            </g>
          </g>
        </g>
        <g id="Ellipse_179-3" data-name="Ellipse 179" transform="translate(907 2685)" fill="none" stroke="#e6b510" stroke-width="1">
          <circle cx="6" cy="6" r="6" stroke="none"/>
          <circle cx="6" cy="6" r="5.5" fill="none"/>
        </g>
      </g>
      <text id="_3" data-name="%" transform="translate(928 2694)" fill="#3e3e3e" font-size="16" font-family="Montserrat-Regular, Montserrat" letter-spacing="0.02em"><tspan x="0" y="0">%</tspan></text>
    </g>
    <g id="btn_find_out_more" data-name="btn_find out more" transform="translate(59 170.418)">
      <path id="bg-2" data-name="bg" d="M50.651,0h261.7C340.323,0,363,8.231,363,18.385v2.451c0,10.154-22.677,18.385-50.651,18.385H50.651C22.677,39.222,0,30.991,0,20.837V18.385C0,8.231,22.677,0,50.651,0Z" fill="none" opacity="0.3"/>
      <rect id="border-5" data-name="border" width="400" height="40" rx="20" transform="translate(0 -0.418)" fill="#303030"/>
      <text id="Calculate" transform="translate(200 24.582)" fill="#fff" font-size="14" font-family="Montserrat-Bold, Montserrat" font-weight="700" letter-spacing="0.02em"><tspan x="-44.674" y="0">CALCULATE</tspan></text>
    </g>
    <text id="Period_month" data-name="Period, month" transform="translate(47 757)" fill="#787878" font-size="14" font-family="Roboto-Regular, Roboto"><tspan x="0" y="13">Period, month</tspan></text>
    <g id="Group_4058" data-name="Group 4058" transform="translate(-348 -2028)">
      <g id="Group_3943" data-name="Group 3943" transform="translate(-25)">
        <g id="Group_3944" data-name="Group 3944" transform="translate(3 -10)">
          <g transform="matrix(1, 0, 0, 1, 370, 2038)" filter="url(#Ellipse_166)">
            <g id="Ellipse_166-2" data-name="Ellipse 166" transform="translate(234 384)" fill="rgba(255,255,255,0.42)" stroke="#fff" stroke-width="2">
              <circle cx="14" cy="14" r="14" stroke="none"/>
              <circle cx="14" cy="14" r="13" fill="none"/>
            </g>
          </g>
          <circle id="Ellipse_180" data-name="Ellipse 180" cx="9" cy="9" r="9" transform="translate(609 2427)" fill="#fff"/>
        </g>
      </g>
      <text id="_3_045" data-name="$ 3,045" transform="translate(625.982 2436)" fill="#1e2633" font-size="30" font-family="Montserrat-Medium, Montserrat" font-weight="500"><tspan x="0" y="0">$ 3,045</tspan></text>
    </g>
    <g id="Group_4059" data-name="Group 4059" transform="translate(991.146 40)">
      <text id="Hash_Rate" data-name="Hash Rate" transform="translate(-0.146 23)" fill="#303030" font-size="24" font-family="Montserrat-Medium, Montserrat" font-weight="500"><tspan x="0" y="0">Hash Rate</tspan></text>
      <g id="border-6" data-name="border" transform="translate(-0.146 49)" fill="none" stroke="#171717" stroke-width="1" opacity="0.6">
        <rect width="160" height="40" rx="20" stroke="none"/>
        <rect x="0.5" y="0.5" width="159" height="39" rx="19.5" fill="none"/>
      </g>
      <text id="TH_80" data-name="TH 80" transform="translate(21.854 76)" fill="#3e3e3e" font-size="20" font-family="Montserrat-Regular, Montserrat" letter-spacing="0.02em"><tspan x="0" y="0">TH 80</tspan></text>
    </g>
  </g>
</svg>
