<svg xmlns="http://www.w3.org/2000/svg" xmlns:xlink="http://www.w3.org/1999/xlink" width="34" height="34" viewBox="0 0 34 34">
  <defs>
    <clipPath id="clip-Web_1920_224">
      <rect width="34" height="34"/>
    </clipPath>
  </defs>
  <g id="Web_1920_224" data-name="Web 1920 – 224" clip-path="url(#clip-Web_1920_224)">
    <g id="ico_pinterest" transform="translate(2 1)">
      <circle id="Ellipse_6" data-name="Ellipse 6" cx="15.5" cy="15.5" r="15.5" fill="none" stroke="#e6b510" stroke-width="2"/>
      <g id="Het1PX.tif" transform="translate(6.971 9.554)">
        <g id="Group_52" data-name="Group 52">
          <path id="Path_112" data-name="Path 112" d="M2641.395,988.212a9.2,9.2,0,0,1-.216,1.122q-1.007,4.771-2.022,9.54a1.679,1.679,0,0,1-.178.529.593.593,0,0,1-.7.3,1.381,1.381,0,0,1-.518-.251c-1.018-.756-2.04-1.505-3.054-2.265a.2.2,0,0,0-.312.022c-.5.5-1.01.984-1.513,1.48a.886.886,0,0,1-.682.293.354.354,0,0,1-.37-.275c-.314-.981-.634-1.959-.951-2.938-.107-.332-.221-.663-.322-1a.292.292,0,0,0-.22-.219c-1-.306-1.99-.619-2.984-.93a1.562,1.562,0,0,1-.38-.156.361.361,0,0,1-.059-.643,1.774,1.774,0,0,1,.585-.328l4.069-1.571,8.786-3.387.069-.028A.671.671,0,0,1,2641.395,988.212Zm-9.189,9.834a.084.084,0,0,0,.051-.089c.067-.715.136-1.429.2-2.144a.6.6,0,0,1,.208-.434q2.863-2.572,5.718-5.153c.12-.108.242-.216.359-.328.049-.046.113-.1.075-.175s-.124-.077-.2-.068a.948.948,0,0,0-.394.165q-3.524,2.224-7.049,4.443a.215.215,0,0,0-.1.3c.291.87.573,1.743.857,2.614Z" transform="translate(-2626.741 -987.444)" fill="#e6b510"/>
        </g>
      </g>
    </g>
  </g>
</svg>
