<svg xmlns="http://www.w3.org/2000/svg" xmlns:xlink="http://www.w3.org/1999/xlink" width="34" height="34" viewBox="0 0 34 34">
  <defs>
    <clipPath id="clip-Web_1920_221">
      <rect width="34" height="34"/>
    </clipPath>
  </defs>
  <g id="Web_1920_221" data-name="Web 1920 – 221" clip-path="url(#clip-Web_1920_221)">
    <g id="ico_facebook" transform="translate(1.529 1)">
      <circle id="Ellipse_2" data-name="Ellipse 2" cx="15.5" cy="15.5" r="15.5" fill="none" stroke="#e6b510" stroke-width="2"/>
      <g id="Group_54" data-name="Group 54" transform="translate(8.225 9.319)">
        <g id="g4780" transform="translate(0)">
          <g id="g15">
            <path id="path17-6" d="M1349.251,2139.813c-.39-.313-.806-.595-1.215-.882-.817-.574-1.564-.618-2.174.3a.951.951,0,0,1-1.323.313,5.862,5.862,0,0,1-3.073-3,1.154,1.154,0,0,1,.374-1.617,1.147,1.147,0,0,0,.659-1.015,6.857,6.857,0,0,0-2.278-3.107,1.154,1.154,0,0,0-.791,0,2.232,2.232,0,0,0-1.514,3.174,16.472,16.472,0,0,0,9.127,9.171,4.146,4.146,0,0,0,.651.184,2.966,2.966,0,0,0,2.438-1.855c.316-.893-.353-1.248-.881-1.674Z" transform="translate(-1337.695 -2130.402)" fill="#e6b510"/>
            <path id="path19-1" d="M1349.814,2130.79c3.12.48,4.558,1.963,4.955,5.1.037.29-.071.727.342.735.433.008.329-.422.333-.712a5.93,5.93,0,0,0-5.54-5.8c-.226.032-.694-.156-.723.351-.02.341.374.285.632.325Z" transform="translate(-1343.042 -2130.106)" fill="#e6b510"/>
            <path id="path21-2" d="M1350.833,2132.953c-.3-.035-.7-.177-.766.239-.073.437.368.393.652.456,1.926.431,2.6,1.132,2.914,3.043.047.278-.046.712.427.64.351-.053.224-.425.254-.642a3.929,3.929,0,0,0-3.481-3.735Z" transform="translate(-1343.451 -2131.407)" fill="#e6b510"/>
            <path id="path23" d="M1351.4,2135.8c-.2,0-.4.027-.47.241-.111.32.122.4.359.434a1.4,1.4,0,0,1,1.285,1.38c.021.215.157.388.364.363.286-.035.312-.289.3-.532a2.082,2.082,0,0,0-1.841-1.887Z" transform="translate(-1343.845 -2132.759)" fill="#e6b510"/>
          </g>
        </g>
      </g>
    </g>
  </g>
</svg>
