<svg xmlns="http://www.w3.org/2000/svg" xmlns:xlink="http://www.w3.org/1999/xlink" width="81" height="81" viewBox="0 0 81 81">
  <defs>
    <clipPath id="clip-Web_1920_114">
      <rect width="81" height="81"/>
    </clipPath>
  </defs>
  <g id="Web_1920_114" data-name="Web 1920 – 114" clip-path="url(#clip-Web_1920_114)">
    <path id="Path_2652" data-name="Path 2652" d="M3363.945,1434.762H3361.1l-23.541-7.5a6.056,6.056,0,0,0-.215-9.444,6.562,6.562,0,0,1-2.394-5.222v-1.027h3.46a1.31,1.31,0,0,0,1.31-1.309v-13.468a1.311,1.311,0,0,0-1.31-1.31h-9.541a1.31,1.31,0,0,0-1.31,1.31v13.468a1.309,1.309,0,0,0,1.31,1.309h3.46v1.026a9.193,9.193,0,0,0,3.418,7.3,3.428,3.428,0,0,1,1.352,2.794,3.525,3.525,0,0,1-3.41,3.41h-.049a3.462,3.462,0,0,1-3.461-3.461,1.309,1.309,0,0,0-2.618,0h0a6.031,6.031,0,0,0,1.811,4.329c.119.116.244.224.369.332l-23.427,7.467h-2.977a1.311,1.311,0,0,0-1.311,1.31h0v39.094a1.312,1.312,0,0,0,1.308,1.313h60.611a1.309,1.309,0,0,0,1.309-1.31v-39.1A1.309,1.309,0,0,0,3363.945,1434.762Zm-33.766-36.664h6.922v10.85h-6.922Zm21.607,69.027v-23.009h4.115v23.009Zm-6.735,0v-23.009h4.115v23.009Zm-6.734,0v-23.009h4.116v23.009Zm-6.734,0v-23.009h4.115v23.009Zm-6.734,0v-23.009h4.115v23.009Zm-6.735,0v-23.009h4.115v23.009Zm-6.734,0v-23.009h4.116v23.009Zm-6.735,0v-23.009h4.115v23.009Zm53.876-23.007h4.115v23.007h-4.115Zm-24.812-15.339,18.773,5.986h-37.547Zm-29.063,8.6h57.99v4.115h-57.99Zm57.99,36.475h-57.99v-4.113h57.99Z" transform="translate(-3292.303 -1394.575)" fill="#fff"/>
  </g>
</svg>
