<svg xmlns="http://www.w3.org/2000/svg" xmlns:xlink="http://www.w3.org/1999/xlink" width="81" height="81" viewBox="0 0 81 81">
  <defs>
    <clipPath id="clip-Web_1920_111">
      <rect width="81" height="81"/>
    </clipPath>
  </defs>
  <g id="Web_1920_111" data-name="Web 1920 – 111" clip-path="url(#clip-Web_1920_111)">
    <g id="Outline" transform="translate(0.787 0.902)">
      <g id="Group_3511" data-name="Group 3511" transform="translate(0 0)">
        <path id="Path_2465" data-name="Path 2465" d="M43,45.352v5.407a1.352,1.352,0,1,0,2.7,0V45.352a1.352,1.352,0,1,0-2.7,0Z" transform="translate(12.348 12.69)" fill="#fff"/>
        <path id="Path_2466" data-name="Path 2466" d="M39,46.352V57.166a1.352,1.352,0,1,0,2.7,0V46.352a1.352,1.352,0,1,0-2.7,0Z" transform="translate(10.948 13.021)" fill="#fff"/>
        <path id="Path_2467" data-name="Path 2467" d="M25.7,43.352a1.352,1.352,0,1,0-2.7,0v4.055a1.352,1.352,0,0,0,2.7,0Z" transform="translate(5.349 11.992)" fill="#fff"/>
        <path id="Path_2468" data-name="Path 2468" d="M19,45.352V58.869a1.352,1.352,0,1,0,2.7,0V45.352a1.352,1.352,0,0,0-2.7,0Z" transform="translate(3.949 12.669)" fill="#fff"/>
        <path id="Path_2469" data-name="Path 2469" d="M24.352,49A1.352,1.352,0,0,0,23,50.352v2.7a1.352,1.352,0,1,0,2.7,0v-2.7A1.352,1.352,0,0,0,24.352,49Z" transform="translate(5.349 14.442)" fill="#fff"/>
        <path id="Path_2470" data-name="Path 2470" d="M32.555,19.422a1.352,1.352,0,0,0,1.757-.753l2.7-6.759a1.352,1.352,0,0,0-1.86-1.713l-2.228,1.114,1.384-3.456A1.353,1.353,0,1,0,31.8,6.849l-2.7,6.759a1.352,1.352,0,0,0,1.86,1.719l2.228-1.114L31.8,17.67A1.352,1.352,0,0,0,32.555,19.422Z" transform="translate(7.443 -0.6)" fill="#fff"/>
        <path id="Path_2471" data-name="Path 2471" d="M81.65,35.751A1.35,1.35,0,0,0,83,34.4V16.849a1.35,1.35,0,0,0-1.35-1.35H72.2a1.35,1.35,0,0,0-1.35,1.35V23.6H50.119A12.107,12.107,0,0,0,52.954,7.985a1.351,1.351,0,1,0-2.326,1.373,9.473,9.473,0,1,1-3.341-3.343A1.35,1.35,0,0,0,48.66,3.69,12.139,12.139,0,0,0,34.881,23.6H14.15V16.849A1.35,1.35,0,0,0,12.8,15.5H3.35A1.35,1.35,0,0,0,2,16.849V42.5a1.35,1.35,0,1,0,2.7,0V18.2h6.75V38.326l-3.632,38.8L4.7,75.88V47.9a1.35,1.35,0,1,0-2.7,0V81.655a1.35,1.35,0,1,0,2.7,0V78.789l3.549,1.42a19.439,19.439,0,0,0,13.146.468l.043-.015c.44-.142.88-.281,1.312-.454a16.739,16.739,0,0,1,12.5,0,19.439,19.439,0,0,0,13.146.468l.043-.015c.44-.142.88-.281,1.312-.454a16.739,16.739,0,0,1,12.5,0,19.445,19.445,0,0,0,14.5,0l3.549-1.42v2.866a1.35,1.35,0,1,0,2.7,0V39.8a1.35,1.35,0,1,0-2.7,0V75.88L75.749,77.7a16.739,16.739,0,0,1-12.5,0,19.6,19.6,0,0,0-3.2-.959V72.2a1.35,1.35,0,1,0-2.7,0v4.158a19.438,19.438,0,0,0-8.1,1.165V60.053a6.75,6.75,0,1,1,13.5,0V74.027a1.35,1.35,0,1,0,2.7,0V60.053c0-.069-.008-.135-.009-.205a10.667,10.667,0,0,0,1.359-5.2,10.8,10.8,0,1,0-21.6,0,10.654,10.654,0,0,0,1.361,5.2c0,.068-.011.135-.011.2v18.34a16.725,16.725,0,0,1-10.3-.693,19.428,19.428,0,0,0-14-.173V60.053a6.75,6.75,0,1,1,13.5,0V74.027a1.35,1.35,0,1,0,2.7,0V60.053c0-.069-.008-.135-.009-.205a10.667,10.667,0,0,0,1.359-5.2,10.8,10.8,0,1,0-21.6,0,10.654,10.654,0,0,0,1.361,5.2c0,.068-.011.135-.011.2V78.392a16.7,16.7,0,0,1-9.111-.279L14.15,38.451V34.4h56.7v2.7H18.2a1.35,1.35,0,0,0,0,2.7H71.008l4.072,32.57a1.35,1.35,0,0,0,1.338,1.183,1.194,1.194,0,0,0,.169-.011,1.35,1.35,0,0,0,1.172-1.507L73.55,38.368V18.2H80.3V34.4A1.35,1.35,0,0,0,81.65,35.751ZM47.9,54.653a8.1,8.1,0,1,1,16.2,0c0,.165-.023.325-.034.489a9.429,9.429,0,0,0-16.132.014C47.924,54.987,47.9,54.821,47.9,54.653Zm-27,0a8.1,8.1,0,1,1,16.2,0c0,.165-.023.325-.034.489a9.429,9.429,0,0,0-16.132.014C20.924,54.987,20.9,54.821,20.9,54.653ZM24.95,26.3h2.7v5.4h-2.7Zm-2.7,5.4h-2.7V26.3h2.7Zm8.1-5.4h2.7v5.4h-2.7Zm5.4,0h2.7v5.4h-2.7Zm5.4,0h2.7v5.4h-2.7Zm5.4,0h2.7v5.4h-2.7Zm5.4,0h2.7v5.4h-2.7Zm5.4,0h2.7v5.4h-2.7Zm5.4,0h2.7v5.4h-2.7Zm-48.6,0h2.7v5.4h-2.7Zm54,5.4V26.3h2.7v5.4Z" transform="translate(-2 -2.005)" fill="#fff"/>
      </g>
    </g>
  </g>
</svg>
