<svg xmlns="http://www.w3.org/2000/svg" xmlns:xlink="http://www.w3.org/1999/xlink" width="81" height="81" viewBox="0 0 81 81">
  <defs>
    <clipPath id="clip-Web_1920_112">
      <rect width="81" height="81"/>
    </clipPath>
  </defs>
  <g id="Web_1920_112" data-name="Web 1920 – 112" clip-path="url(#clip-Web_1920_112)">
    <g id="chip-2" transform="translate(3 3)">
      <path id="Path_2645" data-name="Path 2645" d="M151.98,144.067H158V133.933h-6.02c-.072-.182-.145-.359-.22-.531l4.257-4.257-7.162-7.162-4.257,4.257c-.172-.075-.348-.148-.531-.22V120H133.933v6.02c-.182.072-.359.145-.531.22l-4.257-4.257-7.162,7.162,4.257,4.257c-.075.172-.148.348-.22.531H120v10.133h6.02c.072.182.145.359.22.531l-4.257,4.257,7.162,7.162,4.257-4.257c.172.075.348.148.531.22V158h10.133v-6.02c.182-.072.359-.145.531-.22l4.257,4.257,7.162-7.162-4.257-4.257C151.835,144.425,151.907,144.249,151.98,144.067Zm.455,4.788-3.58,3.58-3.775-3.78-.832.457a10.447,10.447,0,0,1-1.83.766l-.884.283v5.306h-5.067v-5.306l-.879-.283a10.434,10.434,0,0,1-1.831-.766l-.832-.457-3.78,3.78-3.58-3.58,3.78-3.775-.457-.832a10.446,10.446,0,0,1-.766-1.83l-.283-.884h-5.306v-5.067h5.306l.283-.879a10.433,10.433,0,0,1,.766-1.831l.457-.832-3.78-3.78,3.58-3.58,3.775,3.78.832-.457a10.447,10.447,0,0,1,1.83-.766l.884-.283v-5.306h5.067v5.306l.879.283a10.433,10.433,0,0,1,1.831.766l.832.457,3.78-3.78,3.58,3.58-3.78,3.775.457.832a10.448,10.448,0,0,1,.766,1.83l.283.879h5.306v5.067h-5.306l-.283.879a10.407,10.407,0,0,1-.766,1.83l-.457.833Zm0,0" transform="translate(-101 -101)" fill="#fff"/>
      <path id="Path_2646" data-name="Path 2646" d="M199.6,192a7.6,7.6,0,1,0,7.6,7.6A7.6,7.6,0,0,0,199.6,192Zm0,12.667a5.067,5.067,0,1,1,5.067-5.067A5.067,5.067,0,0,1,199.6,204.667Zm0,0" transform="translate(-161.6 -161.6)" fill="#fff"/>
      <path id="Path_2647" data-name="Path 2647" d="M72.2,41.8a3.8,3.8,0,0,0,0-7.6H67.133V29.133H72.2a3.8,3.8,0,0,0,0-7.6H67.133V16.467a1.267,1.267,0,0,0-.371-.9L60.429,9.238a1.267,1.267,0,0,0-.9-.371H54.467V3.8a3.8,3.8,0,0,0-7.6,0V8.867H41.8V3.8a3.8,3.8,0,0,0-7.6,0V8.867H27.867V3.8a3.8,3.8,0,0,0-7.6,0V8.867h-3.8a1.267,1.267,0,0,0-.9.371L9.238,15.571a1.267,1.267,0,0,0-.371.9v5.067H3.8a3.8,3.8,0,0,0,0,7.6H8.867V34.2H3.8a3.8,3.8,0,0,0,0,7.6H8.867v6.333H3.8a3.8,3.8,0,0,0,0,7.6H8.867v3.8a1.267,1.267,0,0,0,.371.9l6.333,6.333a1.267,1.267,0,0,0,.9.371h3.8V72.2a3.8,3.8,0,0,0,7.6,0V67.133H34.2V72.2a3.8,3.8,0,0,0,7.6,0V67.133h5.067V72.2a3.8,3.8,0,0,0,7.6,0V67.133h5.067a1.268,1.268,0,0,0,.9-.38l6.333-6.387a1.268,1.268,0,0,0,.367-.887V55.733H72.2a3.8,3.8,0,0,0,0-7.6H67.133V41.8Zm0-5.067a1.267,1.267,0,0,1,0,2.533H67.133V36.733Zm0-12.667a1.267,1.267,0,0,1,0,2.533H67.133V24.067ZM49.4,3.8a1.267,1.267,0,0,1,2.533,0V8.867H49.4Zm-12.667,0a1.267,1.267,0,0,1,2.533,0V8.867H36.733ZM22.8,3.8a1.267,1.267,0,0,1,2.533,0V8.867H22.8ZM3.8,26.6a1.267,1.267,0,1,1,0-2.533H8.867V26.6Zm0,12.667a1.267,1.267,0,0,1,0-2.533H8.867v2.533ZM3.8,53.2a1.267,1.267,0,1,1,0-2.533H8.867V53.2Zm21.533,19a1.267,1.267,0,0,1-2.533,0V67.133h2.533Zm13.933,0a1.267,1.267,0,0,1-2.533,0V67.133h2.533Zm12.667,0a1.267,1.267,0,0,1-2.533,0V67.133h2.533ZM64.6,58.958,59.005,64.6H16.991L11.4,59.009V16.991L16.991,11.4H59.009L64.6,16.991Zm7.6-8.291a1.267,1.267,0,0,1,0,2.533H67.133V50.667Zm0,0" fill="#fff"/>
      <path id="Path_2648" data-name="Path 2648" d="M104,104h2.533v2.533H104Zm0,0" transform="translate(-87.533 -87.533)" fill="#fff"/>
      <path id="Path_2649" data-name="Path 2649" d="M360,104h2.533v2.533H360Zm0,0" transform="translate(-303 -87.533)" fill="#fff"/>
      <path id="Path_2650" data-name="Path 2650" d="M104,360h2.533v2.533H104Zm0,0" transform="translate(-87.533 -303)" fill="#fff"/>
      <path id="Path_2651" data-name="Path 2651" d="M360,360h2.533v2.533H360Zm0,0" transform="translate(-303 -303)" fill="#fff"/>
    </g>
  </g>
</svg>
