<svg xmlns="http://www.w3.org/2000/svg" xmlns:xlink="http://www.w3.org/1999/xlink" width="81" height="81" viewBox="0 0 81 81">
  <defs>
    <clipPath id="clip-Web_1920_110">
      <rect width="81" height="81"/>
    </clipPath>
  </defs>
  <g id="Web_1920_110" data-name="Web 1920 – 110" clip-path="url(#clip-Web_1920_110)">
    <g id="Group_33" data-name="Group 33" transform="translate(6.852 0.902)">
      <g id="Group_32" data-name="Group 32">
        <path id="Path_14" data-name="Path 14" d="M2726.5,1423.271l-22.1-6.306v-11.02h14.021v2.537h-2.09a1.19,1.19,0,0,0-1.19,1.189v4.914a1.189,1.189,0,0,0,1.19,1.188h6.559a1.189,1.189,0,0,0,1.19-1.188v-4.914a1.19,1.19,0,0,0-1.19-1.189h-2.09v-2.537h5.371a1.188,1.188,0,0,0,.326-2.331l-22.931-6.543h0l-.023-.007-.028-.007c-.026-.006-.052-.013-.078-.018l-.057-.009c-.019,0-.037-.006-.056-.007s-.052,0-.079,0h-19.736c-.026,0-.055,0-.081,0l-.054.008a.571.571,0,0,0-.059.009c-.026,0-.051.012-.076.017l-.029.006-.025.008h0l-22.933,6.544a1.188,1.188,0,0,0,.327,2.331h5.371v2.537h-2.09a1.19,1.19,0,0,0-1.191,1.189v4.914a1.19,1.19,0,0,0,1.191,1.188h6.559a1.189,1.189,0,0,0,1.19-1.188v-4.914a1.19,1.19,0,0,0-1.19-1.189h-2.089v-2.537h14.02v11.02l-22.1,6.306a1.188,1.188,0,0,0,.327,2.331h5.371v2.536h-2.09a1.19,1.19,0,0,0-1.191,1.189v4.914a1.189,1.189,0,0,0,1.191,1.188h6.559a1.189,1.189,0,0,0,1.19-1.188v-4.914a1.19,1.19,0,0,0-1.19-1.189h-2.089V1425.6h14.02v11.748l-4.866,17.011v0l-.009.033h0l0,.008v0l-4.667,16.316h-2.383a1.189,1.189,0,0,0-1.19,1.188v3.726H2666.8a1.189,1.189,0,1,0,0,2.377h53.163a1.189,1.189,0,1,0,0-2.377h-2.432v-3.726a1.189,1.189,0,0,0-1.189-1.188h-2.384l-4.667-16.314,0-.008-.011-.038,0-.005-4.865-17.01V1425.6h14.02v2.537h-2.09a1.19,1.19,0,0,0-1.19,1.189v4.914a1.189,1.189,0,0,0,1.19,1.188h6.56a1.189,1.189,0,0,0,1.189-1.188v-4.914a1.189,1.189,0,0,0-1.189-1.189h-2.091V1425.6h5.371a1.188,1.188,0,0,0,.326-2.331Zm-4.8-12.412v2.537h-4.18v-2.537Zm-17.3-11.078,13.275,3.788h-13.275v-3.788Zm-35.177,11.078v2.537h-4.181v-2.537Zm0,19.656v2.537h-4.181v-2.537Zm15.5-31.122h17.3v4.176h-17.3Zm17.3,6.552v9.7l-14.56-9.7Zm-17.3,1.033,14.559,9.7h-14.559v-9.7Zm0,12.071h17.3v4.176h-17.3Zm-2.335,34.478,10.985-7.68,10.985,7.68Zm20.7,2.377-9.719,4.854-9.721-4.854Zm-15.785-17.2h12.131l-6.065,4.24Zm14.716-13.1v9.694l-14.56-9.694Zm-17.3,1.031,14.56,9.7h-14.56Zm-15.654-23.065,13.274-3.789v3.789Zm0,19.656,13.274-3.789v3.789Zm15.149,16.222,7.08,4.95-10.618,7.425Zm-4.855,16.972,11.349,5.668-15.132,7.556Zm33.689,16.684h2.09v2.537h-43.539V1473.1h13.326a1.188,1.188,0,1,0,0-2.377h-6.2l14.639-7.31,14.64,7.31h-17.779a1.188,1.188,0,1,0,0,2.377h22.818Zm-1.887-3.46-15.132-7.556,11.349-5.668Zm-5.1-17.822-10.62-7.425,7.079-4.95Zm-1.666-28.6v-3.789l13.275,3.789Zm17.3,7.29v2.537h-4.18v-2.537Z" transform="translate(-2659.389 -1397.017)" fill="#fff"/>
      </g>
    </g>
  </g>
</svg>
