<svg xmlns="http://www.w3.org/2000/svg" xmlns:xlink="http://www.w3.org/1999/xlink" width="100" height="81" viewBox="0 0 100 81">
  <defs>
    <clipPath id="clip-Web_1920_115">
      <rect width="100" height="81"/>
    </clipPath>
  </defs>
  <g id="Web_1920_115" data-name="Web 1920 – 115" clip-path="url(#clip-Web_1920_115)">
    <g id="Group_37" data-name="Group 37" transform="translate(1.658 10.194)">
      <path id="Path_23" data-name="Path 23" d="M3299.017,1560.483h87.436a1.56,1.56,0,0,0,1.562-1.561v-10.93h4.685a1.56,1.56,0,0,0,1.562-1.562v-7.806a1.56,1.56,0,0,0-1.562-1.561h-4.685v-9.369h4.685a1.56,1.56,0,0,0,1.562-1.561v-7.807a1.559,1.559,0,0,0-1.562-1.561h-4.685v-7.807a1.56,1.56,0,0,0-1.562-1.562h-10.928v-7.807a1.561,1.561,0,0,0-1.562-1.562h-12.492a1.561,1.561,0,0,0-1.561,1.562v7.807h-3.123v-7.807a1.56,1.56,0,0,0-1.561-1.562h-37.473a1.561,1.561,0,0,0-1.562,1.562v7.807h-17.175a1.561,1.561,0,0,0-1.562,1.562v49.964A1.561,1.561,0,0,0,3299.017,1560.483Zm85.875-12.492h-3.123v-10.929h3.123Zm6.246-7.806v4.683h-3.123v-4.683Zm-6.246-12.492h-3.123v-10.929h3.123Zm6.246-7.807v4.684h-3.123v-4.684ZM3372.4,1507.4h-3.123v-6.246h3.123Zm-9.368-6.246h3.123v6.246h-3.123Zm-9.369,6.246h-3.122v-6.246h3.122Zm-18.737-3.123v3.123h-3.123v-6.246h9.369v6.246h-3.122v-3.123Zm9.369-3.123h3.123v6.246H3344.3Zm-24.981,0h9.369v6.246h-3.123v-3.123h-3.123v3.123h-3.123Zm-18.736,9.369h84.313v3.123h-4.685a1.559,1.559,0,0,0-1.561,1.561v14.052a1.56,1.56,0,0,0,1.561,1.562h4.685v3.122h-4.685a1.56,1.56,0,0,0-1.561,1.562v14.052a1.56,1.56,0,0,0,1.561,1.562h4.685v6.246h-84.313Z" transform="translate(-3297.456 -1498.027)" fill="#fff"/>
      <path id="Path_24" data-name="Path 24" d="M3329.513,1509.787a20.3,20.3,0,1,0,20.3,20.3A20.322,20.322,0,0,0,3329.513,1509.787Zm6.7,24.524a9.163,9.163,0,0,1,2.665,6.435v3.715a17.071,17.071,0,0,1-8.688,2.763l.424-.424a12.3,12.3,0,0,0,3.58-8.64v-.538a12.461,12.461,0,0,0-.071-1.273,7.847,7.847,0,0,0,1.98-2.127C3336.141,1534.255,3336.183,1534.278,3336.217,1534.311Zm-13.406-8.453a9.163,9.163,0,0,1-2.665-6.434v-3.715a17.065,17.065,0,0,1,8.688-2.763l-.425.422a12.308,12.308,0,0,0-3.579,8.641v.536a11.969,11.969,0,0,0,.072,1.275,7.879,7.879,0,0,0-1.985,2.132C3322.882,1525.921,3322.845,1525.892,3322.811,1525.858Zm11.387,4.227a4.684,4.684,0,1,1-4.685-4.684A4.69,4.69,0,0,1,3334.2,1530.085Zm-10.949,4.614a7.865,7.865,0,0,0,2.127,1.979c-.033.035-.056.074-.088.109a9.166,9.166,0,0,1-6.435,2.665h-3.714a17.042,17.042,0,0,1-2.764-8.687l.423.422a12.3,12.3,0,0,0,8.639,3.581h.538A12.4,12.4,0,0,0,3323.249,1534.7Zm-4.4,7.876a12.307,12.307,0,0,0,8.643-3.579,12.069,12.069,0,0,0,1.038-1.2,7.441,7.441,0,0,0,.98.1,7.831,7.831,0,0,0,1.562-.158v.426a9.162,9.162,0,0,1-2.666,6.434l-2.319,2.32a17.129,17.129,0,0,1-8.327-4.339Zm16.925-17.1a7.793,7.793,0,0,0-2.133-1.984c.032-.035.061-.074.1-.106a9.161,9.161,0,0,1,6.434-2.666h3.715a17.069,17.069,0,0,1,2.764,8.688l-.424-.424a12.3,12.3,0,0,0-8.641-3.579h-.536A12.029,12.029,0,0,0,3335.778,1525.472Zm4.4-7.879a12.047,12.047,0,0,0-9.682,4.783,7.987,7.987,0,0,0-.98-.1,7.761,7.761,0,0,0-1.561.158v-.426a9.164,9.164,0,0,1,2.666-6.435l2.32-2.321a17.134,17.134,0,0,1,8.326,4.339Zm-23.152.741v1.09a12.05,12.05,0,0,0,4.782,9.682,7.634,7.634,0,0,0-.1.978,7.927,7.927,0,0,0,.156,1.561h-.426a9.165,9.165,0,0,1-6.434-2.666l-2.319-2.319A17.117,17.117,0,0,1,3317.023,1518.334Zm24.982,23.5v-1.09a12.013,12.013,0,0,0-4.784-9.681,7.366,7.366,0,0,0,.1-.98,7.768,7.768,0,0,0-.158-1.561h.426a9.161,9.161,0,0,1,6.434,2.665l2.322,2.321A17.119,17.119,0,0,1,3342,1541.835Z" transform="translate(-3293.602 -1494.172)" fill="#fff"/>
      <path id="Path_25" data-name="Path 25" d="M3357,1530.954h-6.246a1.559,1.559,0,0,0-1.561,1.56v9.369a1.561,1.561,0,0,0,1.561,1.562H3357a1.561,1.561,0,0,0,1.562-1.562v-9.369A1.559,1.559,0,0,0,3357,1530.954Zm-1.561,9.368h-3.123v-6.246h3.123Z" transform="translate(-3280.497 -1487.235)" fill="#fff"/>
      <path id="Path_26" data-name="Path 26" d="M3357,1519.194h-6.246a1.561,1.561,0,0,0-1.561,1.562v9.369a1.561,1.561,0,0,0,1.561,1.562H3357a1.561,1.561,0,0,0,1.562-1.562v-9.369A1.561,1.561,0,0,0,3357,1519.194Zm-1.561,9.369h-3.123v-6.246h3.123Z" transform="translate(-3280.497 -1491.089)" fill="#fff"/>
      <rect id="Rectangle_30" data-name="Rectangle 30" width="3.123" height="3.123" transform="translate(6.245 53.087)" fill="#fff"/>
      <rect id="Rectangle_31" data-name="Rectangle 31" width="3.123" height="3.123" transform="translate(6.245 15.614)" fill="#fff"/>
      <rect id="Rectangle_32" data-name="Rectangle 32" width="3.123" height="3.123" transform="translate(62.455 53.087)" fill="#fff"/>
      <rect id="Rectangle_33" data-name="Rectangle 33" width="3.123" height="3.123" transform="translate(62.455 15.614)" fill="#fff"/>
    </g>
  </g>
</svg>
