<svg xmlns="http://www.w3.org/2000/svg" width="12.318" height="15.568" viewBox="0 0 12.318 15.568"><defs><style>.a{fill:#787878;}</style></defs><path class="a" d="M65.231,9.176l-5.284,5.285V.324a.324.324,0,0,0-.649,0V14.461L54.014,9.176a.324.324,0,0,0-.459.459l5.838,5.838a.324.324,0,0,0,.459,0h0l5.838-5.838a.324.324,0,0,0-.459-.459Z" transform="translate(-53.463)"/><path class="a" d="M59.6,305.29a.324.324,0,0,1-.23-.095l-5.838-5.838a.324.324,0,0,1,.459-.459l5.609,5.608L65.21,298.9a.324.324,0,0,1,.459.459L59.83,305.2A.324.324,0,0,1,59.6,305.29Z" transform="translate(-53.443 -289.722)"/><path class="a" d="M245.646,15.568a.324.324,0,0,1-.324-.324V.324a.324.324,0,0,1,.649,0V15.243A.324.324,0,0,1,245.646,15.568Z" transform="translate(-239.488)"/></svg>