<svg xmlns="http://www.w3.org/2000/svg" width="22.911" height="15.274" viewBox="0 0 22.911 15.274"><defs><style>.a{fill:#f0f0f0;}.b{fill:#d80027;}.c{fill:#0052b4;}</style></defs><rect class="a" width="22.911" height="15.274" transform="translate(0 0)"/><path class="b" d="M12.887,85.33H10.023v6.2H0V94.4H10.023v6.2h2.864V94.4H22.911V91.535H12.887Z" transform="translate(0 -85.33)"/><g transform="translate(13.946 10.293)"><path class="c" d="M393.785,315.358l5.29,2.939v-2.939Z" transform="translate(-390.11 -315.358)"/><path class="c" d="M311.652,315.358l8.965,4.981V318.93l-6.43-3.572Z" transform="translate(-311.652 -315.358)"/><path class="c" d="M318.229,348.652,311.652,345v3.654Z" transform="translate(-311.652 -343.672)"/></g><path class="a" d="M311.652,315.358l8.965,4.981V318.93l-6.43-3.572Z" transform="translate(-297.706 -305.065)"/><path class="b" d="M311.652,315.358l8.965,4.981V318.93l-6.43-3.572Z" transform="translate(-297.706 -305.065)"/><g transform="translate(0 10.293)"><path class="c" d="M4.043,315.356,0,317.6v-2.246Z" transform="translate(0 -315.356)"/><path class="c" d="M33.315,329.51v4.347H25.491Z" transform="translate(-24.35 -328.877)"/></g><path class="b" d="M6.43,315.358,0,318.93v1.408H0l8.965-4.981Z" transform="translate(0 -305.065)"/><g transform="translate(0 0)"><path class="c" d="M5.29,133.9,0,130.958V133.9Z" transform="translate(0 -128.916)"/><path class="c" d="M8.965,90.311,0,85.33v1.408l6.43,3.572Z" transform="translate(0 -85.33)"/><path class="c" d="M53.366,85.33l6.577,3.654V85.33Z" transform="translate(-50.978 -85.33)"/></g><path class="a" d="M8.965,90.311,0,85.33v1.408l6.43,3.572Z" transform="translate(0 -85.33)"/><path class="b" d="M8.965,90.311,0,85.33v1.408l6.43,3.572Z" transform="translate(0 -85.33)"/><g transform="translate(13.946 0)"><path class="c" d="M421.659,148.692l4.043-2.246v2.246Z" transform="translate(-416.736 -143.711)"/><path class="c" d="M311.652,89.678V85.331h7.824Z" transform="translate(-311.652 -85.331)"/></g><path class="b" d="M314.187,90.311l6.43-3.572V85.33h0l-8.965,4.981Z" transform="translate(-297.706 -85.33)"/></svg>