<svg xmlns="http://www.w3.org/2000/svg" xmlns:xlink="http://www.w3.org/1999/xlink" width="22" height="22" viewBox="0 0 22 22">
  <defs>
    <clipPath id="clip-Web_1920_147">
      <rect width="22" height="22"/>
    </clipPath>
  </defs>
  <g id="Web_1920_147" data-name="Web 1920 – 147" clip-path="url(#clip-Web_1920_147)">
    <path id="instagram" d="M16.824,0H5.176A5.192,5.192,0,0,0,0,5.176V16.824A5.192,5.192,0,0,0,5.176,22H16.824A5.192,5.192,0,0,0,22,16.824V5.176A5.192,5.192,0,0,0,16.824,0Zm3.882,16.824a3.887,3.887,0,0,1-3.882,3.882H5.176a3.887,3.887,0,0,1-3.882-3.882V9.059h4.15a6.071,6.071,0,0,0-.591,2.588,6.147,6.147,0,1,0,12.294,0,6.071,6.071,0,0,0-.591-2.588h4.15Zm-4.853-5.176A4.853,4.853,0,1,1,11,6.794,4.858,4.858,0,0,1,15.853,11.647Zm-.127-3.882a6.064,6.064,0,0,0-9.452,0H1.294V5.176A3.887,3.887,0,0,1,5.176,1.294H16.824a3.887,3.887,0,0,1,3.882,3.882V7.765Zm2.979-4.242V5.2a.7.7,0,0,1-.7.7h-1.77a.706.706,0,0,1-.7-.7V3.523a.7.7,0,0,1,.7-.7H18a.7.7,0,0,1,.7.7Z" transform="translate(0 0.316)" fill="#fff"/>
  </g>
</svg>
