<svg xmlns="http://www.w3.org/2000/svg" xmlns:xlink="http://www.w3.org/1999/xlink" width="80" height="83" viewBox="0 0 80 83">
  <defs>
    <clipPath id="clip-Web_1920_204">
      <rect width="80" height="83"/>
    </clipPath>
  </defs>
  <g id="Web_1920_204" data-name="Web 1920 – 204" clip-path="url(#clip-Web_1920_204)">
    <path id="blockchain" d="M81.873,19.13c-.006-.035,0-.071-.014-.106a1.127,1.127,0,0,0-.11-.269.878.878,0,0,0-.06-.079,1.118,1.118,0,0,0-.117-.153c-.026-.027-.06-.046-.089-.07a1.109,1.109,0,0,0-.138-.108l-.008,0-.007-.005-9.417-5.4a1.128,1.128,0,0,0-1.121,0l-9.423,5.4-.007.005-.008,0a1.111,1.111,0,0,0-.138.109.809.809,0,0,0-.088.07,1.118,1.118,0,0,0-.119.155c-.019.027-.043.05-.059.078a1.129,1.129,0,0,0-.11.269c-.009.033-.008.068-.014.1a1.106,1.106,0,0,0-.024.187v2.3l-8.38-5.248a1.1,1.1,0,0,0,.023-.171V6.77a1.107,1.107,0,0,0-.024-.184c-.006-.035,0-.071-.014-.106a1.127,1.127,0,0,0-.11-.268,1.139,1.139,0,0,0-.073-.1,1.116,1.116,0,0,0-.1-.136,1.152,1.152,0,0,0-.107-.084,1.107,1.107,0,0,0-.121-.095h-.006l0-.01L42.458.4a1.128,1.128,0,0,0-1.121,0l-9.423,5.4-.008.006H31.9a1.107,1.107,0,0,0-.122.1,1.149,1.149,0,0,0-.106.083,1.118,1.118,0,0,0-.1.138,1.144,1.144,0,0,0-.071.095,1.127,1.127,0,0,0-.11.269c-.009.033-.008.068-.014.1a1.108,1.108,0,0,0-.024.187v9.425a1.1,1.1,0,0,0,.023.172L22.992,21.61v-2.3a1.107,1.107,0,0,0-.024-.184c-.006-.035,0-.071-.014-.106a1.127,1.127,0,0,0-.11-.269.881.881,0,0,0-.06-.079,1.119,1.119,0,0,0-.117-.153c-.026-.027-.06-.046-.089-.07a1.108,1.108,0,0,0-.138-.108l-.008,0-.007-.005-9.419-5.4a1.128,1.128,0,0,0-1.121,0l-9.421,5.4-.007.005-.008,0a1.111,1.111,0,0,0-.138.109.808.808,0,0,0-.088.07,1.118,1.118,0,0,0-.119.155c-.019.027-.043.05-.059.078a1.129,1.129,0,0,0-.11.269c-.009.033-.008.068-.014.1a1.107,1.107,0,0,0-.024.187v9.421a1.127,1.127,0,0,0,.587.989l8.834,4.824V47.454l-8.853,5.07-.007.005-.008,0a1.111,1.111,0,0,0-.138.109.809.809,0,0,0-.088.07,1.118,1.118,0,0,0-.119.155c-.019.027-.043.05-.059.078a1.129,1.129,0,0,0-.11.269c-.009.033-.008.068-.014.1A1.107,1.107,0,0,0,1.9,53.5v9.421a1.127,1.127,0,0,0,.588.989l9.42,5.142a1.109,1.109,0,0,0,.164.064.951.951,0,0,0,.09.035,1.09,1.09,0,0,0,.573,0c.031-.008.059-.024.09-.035a1.109,1.109,0,0,0,.164-.064l8-4.366,10.37,6.9v4.672a1.127,1.127,0,0,0,.587.989L41.36,82.4a1.11,1.11,0,0,0,.164.064.952.952,0,0,0,.09.035,1.09,1.09,0,0,0,.573,0c.031-.008.059-.024.09-.035a1.11,1.11,0,0,0,.164-.064l9.417-5.143a1.127,1.127,0,0,0,.587-.989V71.591l10.37-6.9,8,4.366a1.111,1.111,0,0,0,.164.064.955.955,0,0,0,.09.035,1.09,1.09,0,0,0,.573,0c.031-.008.059-.024.09-.035a1.11,1.11,0,0,0,.164-.064l9.417-5.141a1.127,1.127,0,0,0,.587-.989V53.5a1.105,1.105,0,0,0-.024-.184c-.006-.035,0-.071-.014-.106a1.127,1.127,0,0,0-.11-.269.885.885,0,0,0-.06-.079,1.12,1.12,0,0,0-.117-.153c-.026-.027-.06-.046-.089-.07a1.109,1.109,0,0,0-.138-.108l-.008,0-.007-.005-8.853-5.07V34.548l8.833-4.822a1.127,1.127,0,0,0,.587-.989V19.315a1.108,1.108,0,0,0-.023-.184ZM48.72,66.978,41.9,70.7l-6.822-3.724-.289-.158L41.9,62.748l7.111,4.069ZM20.738,28.066l-7.166,3.911V25.126l7.166-3.911ZM12.445,49.407l7.111,4.072-.289.158-6.822,3.724L5.622,53.636l-.289-.158Zm9.325,2.743-8.2-4.7V34.548l7.468-4.077L31.35,37.18V45.4ZM33.6,15.522V8.67l7.166,3.914v6.849Zm16.586,0-7.166,3.912V12.584L50.19,8.671ZM41.9,32.472l7.111,4.072-.289.158L41.9,40.427,35.075,36.7l-.289-.158Zm-8.293,6L40.77,42.38v6.853L33.6,45.32Zm9.42,3.912,7.166-3.912V45.32l-7.166,3.913Zm9.42-5.2,10.311-6.711,7.468,4.078V47.454l-8.2,4.7L52.445,45.4ZM70.222,25.126v6.851l-7.164-3.911V21.215ZM63.058,62.255V55.4l7.166,3.912v6.851Zm15.115-8.618L71.35,57.361l-6.823-3.724-.289-.158,7.111-4.072,7.111,4.072ZM71.35,15.218l7.111,4.072-.289.158L71.35,23.172l-6.823-3.724-.289-.158ZM60.843,29.024,51.28,35.248,43.025,30.52V22l7.562-4.129L60.8,24.27v4.464a1.125,1.125,0,0,0,.04.29ZM41.9,2.674l7.11,4.073-6.8,3.711-.312.17-.312-.17-6.8-3.712Zm-8.689,15.2L40.77,22V30.52l-8.255,4.728-9.562-6.224a1.125,1.125,0,0,0,.039-.29V24.27ZM12.445,15.218l7.111,4.072-.289.158-6.822,3.724L5.622,19.448l-.289-.158Zm-8.292,6,7.166,3.912v6.851L4.153,28.066Zm0,34.188,7.166,3.912v6.851L4.153,62.255Zm9.42,3.912L20.739,55.4v6.851l-7.166,3.911Zm9.356,3.96a1.116,1.116,0,0,0,.064-.352V54.047l9.559-6.732L40.77,51.8v9l-8.856,5.07-.007.005-.008,0a1.111,1.111,0,0,0-.138.109.809.809,0,0,0-.088.07,1.118,1.118,0,0,0-.119.155c-.019.027-.043.05-.059.078a1.129,1.129,0,0,0-.11.269c-.009.033-.008.068-.014.1a1.108,1.108,0,0,0-.024.187v2.039ZM33.6,70.983v-2.24l7.166,3.912v6.851L33.6,75.6Zm9.42,8.523V72.656l7.166-3.912V75.6Zm9.42-12.662a1.108,1.108,0,0,0-.024-.184c-.006-.035,0-.071-.014-.106a1.127,1.127,0,0,0-.11-.269.88.88,0,0,0-.06-.079,1.119,1.119,0,0,0-.117-.153c-.026-.027-.06-.046-.089-.07a1.107,1.107,0,0,0-.138-.108l-.008,0-.007-.005L43.025,60.8v-9l8.217-4.486L60.8,54.047v8.876a1.116,1.116,0,0,0,.064.352l-8.421,5.608Zm20.032-.679V59.314L79.642,55.4v6.852Zm0-34.188V25.126l7.166-3.911v6.851Z" transform="translate(-0.897 0.752)" fill="#e6b510"/>
  </g>
</svg>
