<svg xmlns="http://www.w3.org/2000/svg" xmlns:xlink="http://www.w3.org/1999/xlink" width="15.59" height="15.59" viewBox="0 0 15.59 15.59">
  <defs>
    <clipPath id="clip-Web_1920_321">
      <rect width="15.59" height="15.59"/>
    </clipPath>
  </defs>
  <g id="Web_1920_321" data-name="Web 1920 – 321" clip-path="url(#clip-Web_1920_321)">
    <g id="like" transform="translate(0 1.783)">
      <g id="Group_3812" data-name="Group 3812" transform="translate(0 0)">
        <path id="Path_2617" data-name="Path 2617" d="M11.449,30a3.691,3.691,0,0,0-2.305.8,5.251,5.251,0,0,0-1.349,1.622A5.251,5.251,0,0,0,6.446,30.8,3.691,3.691,0,0,0,4.141,30,4.232,4.232,0,0,0,0,34.492c0,2.766,2.221,4.659,5.583,7.524.571.487,1.218,1.038,1.891,1.626a.487.487,0,0,0,.641,0c.673-.588,1.32-1.14,1.891-1.627,3.362-2.865,5.583-4.758,5.583-7.524A4.232,4.232,0,0,0,11.449,30Z" transform="translate(0 -30)" fill="#e6b510"/>
      </g>
    </g>
  </g>
</svg>
