<svg xmlns="http://www.w3.org/2000/svg" xmlns:xlink="http://www.w3.org/1999/xlink" width="10" height="13.33" viewBox="0 0 10 13.33">
  <defs>
    <clipPath id="clip-Web_1920_377">
      <rect width="10" height="13.33"/>
    </clipPath>
  </defs>
  <g id="Web_1920_377" data-name="Web 1920 – 377" clip-path="url(#clip-Web_1920_377)">
    <g id="lock" transform="translate(-64 7)">
      <g id="Group_3763" data-name="Group 3763" transform="translate(64 -7)">
        <g id="Group_3762" data-name="Group 3762" transform="translate(0)">
          <path id="Path_2589" data-name="Path 2589" d="M213.848,279.6l-.2,1.786a.315.315,0,0,0,.313.349h1.259a.315.315,0,0,0,.313-.349l-.2-1.786a1.245,1.245,0,0,0,.515-1.013,1.259,1.259,0,1,0-2.518,0A1.245,1.245,0,0,0,213.848,279.6Zm.744-1.642a.627.627,0,0,1,.272,1.194.315.315,0,0,0-.176.318l.182,1.636h-.556l.182-1.636a.315.315,0,0,0-.176-.318.627.627,0,0,1,.272-1.194Z" transform="translate(-209.592 -270.507)" fill="#303030"/>
          <path id="Path_2590" data-name="Path 2590" d="M73.722,5h-.833V3.889a3.889,3.889,0,0,0-7.778,0V5h-.833A.278.278,0,0,0,64,5.278v6.944a1.112,1.112,0,0,0,1.111,1.111h7.778A1.112,1.112,0,0,0,74,12.222V5.278A.278.278,0,0,0,73.722,5ZM65.667,3.889a3.333,3.333,0,0,1,6.667,0V5h-.556V3.889a2.778,2.778,0,1,0-5.556,0V5h-.556Zm5.556,0V5H66.778V3.889a2.222,2.222,0,0,1,4.444,0Zm2.222,8.333a.556.556,0,0,1-.556.556H65.111a.556.556,0,0,1-.556-.556V5.556h8.889Z" transform="translate(-64)" fill="#303030"/>
        </g>
      </g>
    </g>
  </g>
</svg>
