<svg xmlns="http://www.w3.org/2000/svg" xmlns:xlink="http://www.w3.org/1999/xlink" width="28.28" height="22" viewBox="0 0 28.28 22">
  <defs>
    <clipPath id="clip-Web_1920_363">
      <rect width="28.28" height="22"/>
    </clipPath>
  </defs>
  <g id="Web_1920_363" data-name="Web 1920 – 363" clip-path="url(#clip-Web_1920_363)">
    <g id="Group_4085" data-name="Group 4085">
      <g id="Mastercard-logo" transform="translate(0 0)">
        <g id="Group_3752" data-name="Group 3752" transform="translate(0 0)">
          <g id="Group_3748" data-name="Group 3748" transform="translate(1.435 18.63)">
            <path id="Path_2581" data-name="Path 2581" d="M-159.415-18.7v.057h.053a.056.056,0,0,0,.029-.007.025.025,0,0,0,.011-.022.024.024,0,0,0-.011-.021.051.051,0,0,0-.029-.007Zm.053-.04a.1.1,0,0,1,.063.018.061.061,0,0,1,.022.05.057.057,0,0,1-.018.044.087.087,0,0,1-.051.021l.07.08h-.054l-.065-.08h-.021v.08h-.046v-.213Zm-.014.287a.169.169,0,0,0,.069-.014.182.182,0,0,0,.057-.038.178.178,0,0,0,.038-.057.182.182,0,0,0,.014-.07.182.182,0,0,0-.014-.07.184.184,0,0,0-.038-.057.182.182,0,0,0-.057-.038.178.178,0,0,0-.069-.013.186.186,0,0,0-.071.013.181.181,0,0,0-.058.038.174.174,0,0,0-.038.057.172.172,0,0,0-.014.07.172.172,0,0,0,.014.07.168.168,0,0,0,.038.057.181.181,0,0,0,.058.038.177.177,0,0,0,.071.014m0-.41a.231.231,0,0,1,.092.018.233.233,0,0,1,.074.049.226.226,0,0,1,.05.073.219.219,0,0,1,.018.089.219.219,0,0,1-.018.089.238.238,0,0,1-.05.073.253.253,0,0,1-.074.049.231.231,0,0,1-.092.018.235.235,0,0,1-.093-.018.241.241,0,0,1-.075-.049.238.238,0,0,1-.05-.073.219.219,0,0,1-.018-.089.219.219,0,0,1,.018-.089.225.225,0,0,1,.05-.073.223.223,0,0,1,.075-.049.235.235,0,0,1,.093-.018m-21.656-.822a.7.7,0,0,1,.7-.741.7.7,0,0,1,.7.741.7.7,0,0,1-.7.741.7.7,0,0,1-.7-.741m1.879,0v-1.158h-.5v.281a.881.881,0,0,0-.733-.339,1.162,1.162,0,0,0-1.161,1.216,1.162,1.162,0,0,0,1.161,1.216.881.881,0,0,0,.733-.339v.281h.5Zm17.055,0a.7.7,0,0,1,.7-.741.7.7,0,0,1,.7.741.7.7,0,0,1-.7.741.7.7,0,0,1-.7-.741m1.88,0v-2.087h-.505v1.211a.881.881,0,0,0-.733-.339,1.162,1.162,0,0,0-1.161,1.216,1.161,1.161,0,0,0,1.161,1.216.881.881,0,0,0,.733-.339v.281h.505Zm-12.67-.765a.576.576,0,0,1,.588.562h-1.2a.6.6,0,0,1,.617-.562m.01-.451a1.133,1.133,0,0,0-1.156,1.216,1.143,1.143,0,0,0,1.19,1.216,1.413,1.413,0,0,0,.952-.324l-.247-.373a1.112,1.112,0,0,1-.675.242.644.644,0,0,1-.694-.567h1.724c.005-.063.01-.126.01-.193a1.111,1.111,0,0,0-1.1-1.216m6.094,1.216a.7.7,0,0,1,.7-.741.7.7,0,0,1,.7.741.7.7,0,0,1-.7.741.7.7,0,0,1-.7-.741m1.879,0v-1.158h-.5v.281a.881.881,0,0,0-.733-.339,1.162,1.162,0,0,0-1.161,1.216,1.162,1.162,0,0,0,1.161,1.216.882.882,0,0,0,.733-.339v.281h.5Zm-4.73,0a1.171,1.171,0,0,0,1.238,1.216,1.217,1.217,0,0,0,.835-.276l-.242-.407a1.022,1.022,0,0,1-.608.208.692.692,0,0,1-.7-.741.692.692,0,0,1,.7-.741,1.022,1.022,0,0,1,.608.208l.242-.407a1.217,1.217,0,0,0-.835-.276,1.171,1.171,0,0,0-1.238,1.216m6.507-1.216a.685.685,0,0,0-.612.339v-.281h-.5v2.315h.505v-1.3c0-.383.165-.6.5-.6a.82.82,0,0,1,.316.058l.156-.475a1.077,1.077,0,0,0-.36-.063m-13.53.242a1.74,1.74,0,0,0-.947-.242c-.588,0-.967.281-.967.741,0,.378.282.61.8.683l.238.034c.277.039.407.111.407.242,0,.179-.185.281-.529.281a1.238,1.238,0,0,1-.772-.242l-.238.392a1.677,1.677,0,0,0,1,.3c.67,0,1.059-.315,1.059-.756,0-.407-.306-.62-.811-.692l-.238-.034c-.218-.029-.394-.072-.394-.227s.165-.271.442-.271a1.5,1.5,0,0,1,.724.2Zm6.512-.242a.684.684,0,0,0-.611.339v-.281h-.5v2.315h.5v-1.3c0-.383.165-.6.5-.6a.82.82,0,0,1,.316.058l.156-.475a1.077,1.077,0,0,0-.36-.063m-4.307.058h-.825v-.7h-.51v.7h-.471v.46h.471v1.056c0,.537.209.857.806.857a1.187,1.187,0,0,0,.631-.179l-.146-.431a.936.936,0,0,1-.447.131c-.252,0-.335-.155-.335-.388v-1.046h.825ZM-182-18.529v-1.453a.863.863,0,0,0-.913-.92.9.9,0,0,0-.816.412.853.853,0,0,0-.767-.412.768.768,0,0,0-.68.344v-.286h-.505v2.315h.51v-1.283a.542.542,0,0,1,.569-.615c.335,0,.5.218.5.61v1.288h.51v-1.283a.547.547,0,0,1,.568-.615c.345,0,.51.218.51.61v1.288Z" transform="translate(185.679 21.774)" fill="#231f20"/>
          </g>
          <g id="Group_3749" data-name="Group 3749" transform="translate(27.276 13.818)">
            <path id="Path_2582" data-name="Path 2582" d="M-4.472-2.059V-2.4H-4.56l-.1.232-.1-.232h-.089v.338h.063v-.255l.1.22h.065l.1-.221v.256Zm-.559,0v-.281h.113V-2.4h-.288v.057h.113v.281Z" transform="translate(5.207 2.397)" fill="#f79410"/>
          </g>
          <path id="Path_2583" data-name="Path 2583" d="M3350.634,2161.283H3343v-13.712h7.63Z" transform="translate(-3332.681 -2145.706)" fill="#ff5f00"/>
          <g id="Group_3750" data-name="Group 3750">
            <path id="Path_2584" data-name="Path 2584" d="M-65.614-53.089a8.706,8.706,0,0,1,3.33-6.856,8.682,8.682,0,0,0-5.389-1.865,8.72,8.72,0,0,0-8.719,8.72,8.72,8.72,0,0,0,8.719,8.721,8.682,8.682,0,0,0,5.389-1.865,8.706,8.706,0,0,1-3.33-6.856" transform="translate(76.392 61.809)" fill="#eb001b"/>
          </g>
          <g id="Group_3751" data-name="Group 3751" transform="translate(14.168)">
            <path id="Path_2585" data-name="Path 2585" d="M-85.892-53.089a8.72,8.72,0,0,1-8.719,8.721A8.685,8.685,0,0,1-100-46.233a8.7,8.7,0,0,0,3.331-6.856A8.7,8.7,0,0,0-100-59.945a8.685,8.685,0,0,1,5.39-1.865,8.72,8.72,0,0,1,8.719,8.72" transform="translate(100.001 61.809)" fill="#f79e1b"/>
          </g>
        </g>
      </g>
    </g>
  </g>
</svg>
