<svg xmlns="http://www.w3.org/2000/svg" xmlns:xlink="http://www.w3.org/1999/xlink" width="145" height="145" viewBox="0 0 145 145">
  <defs>
    <clipPath id="clip-Web_1920_177">
      <rect width="145" height="145"/>
    </clipPath>
  </defs>
  <g id="Web_1920_177" data-name="Web 1920 – 177" clip-path="url(#clip-Web_1920_177)">
    <g id="Group_4045" data-name="Group 4045" transform="translate(-65 -2089.263)">
      <g id="server-2" transform="translate(65.496 2090)">
        <path id="Path_2496" data-name="Path 2496" d="M149.609,151.726H109.785v-2.339a2.341,2.341,0,0,0-2.343-2.339H95.729v-7.016a2.341,2.341,0,0,0-2.343-2.339H91.044V114.306H137.9a9.371,9.371,0,0,0,9.37-9.355V90.919a9.325,9.325,0,0,0-3.184-7.017,9.325,9.325,0,0,0,3.184-7.015V62.855a9.325,9.325,0,0,0-3.184-7.017,9.325,9.325,0,0,0,3.184-7.015V34.79a9.371,9.371,0,0,0-9.37-9.355H95.729V18.419a2.341,2.341,0,0,0-2.343-2.339h-9.37a2.341,2.341,0,0,0-2.343,2.339v7.016H39.507a9.371,9.371,0,0,0-9.37,9.355V48.823A9.325,9.325,0,0,0,33.32,55.84a9.325,9.325,0,0,0-3.184,7.015V76.887A9.325,9.325,0,0,0,33.32,83.9a9.325,9.325,0,0,0-3.184,7.015v14.032a9.371,9.371,0,0,0,9.37,9.355H86.359v23.387H84.016a2.341,2.341,0,0,0-2.343,2.339v7.016H69.961a2.341,2.341,0,0,0-2.343,2.339v2.339H18.423a2.339,2.339,0,1,0,0,4.677H67.618v2.339a2.341,2.341,0,0,0,2.343,2.339h37.482a2.341,2.341,0,0,0,2.343-2.339V156.4h39.824a2.339,2.339,0,1,0,0-4.677ZM86.359,20.758h4.685v4.677H86.359ZM34.822,34.79a4.687,4.687,0,0,1,4.685-4.677H137.9a4.687,4.687,0,0,1,4.685,4.677V48.823A4.687,4.687,0,0,1,137.9,53.5H39.507a4.687,4.687,0,0,1-4.685-4.677Zm0,28.065a4.687,4.687,0,0,1,4.685-4.677H137.9a4.687,4.687,0,0,1,4.685,4.677V76.887a4.687,4.687,0,0,1-4.685,4.677H39.507a4.687,4.687,0,0,1-4.685-4.677Zm4.685,46.774a4.687,4.687,0,0,1-4.685-4.677V90.919a4.687,4.687,0,0,1,4.685-4.677H137.9a4.687,4.687,0,0,1,4.685,4.677v14.032a4.687,4.687,0,0,1-4.685,4.677Zm46.852,32.742h4.685v4.677H86.359ZM105.1,156.4H72.3v-4.677h32.8Z" transform="translate(-16.081 -16.081)" fill="#e6b510"/>
        <path id="Path_2497" data-name="Path 2497" d="M969.4,948.758h-2.282a2.282,2.282,0,1,0,0,4.564H969.4a2.282,2.282,0,0,0,0-4.564Z" transform="translate(-826.685 -812.887)" fill="#e6b510"/>
        <path id="Path_2498" data-name="Path 2498" d="M183.734,337.694a6.847,6.847,0,1,0,6.847,6.846A6.847,6.847,0,0,0,183.734,337.694Zm0,9.129a2.282,2.282,0,1,1,2.282-2.282A2.282,2.282,0,0,1,183.734,346.822Z" transform="translate(-153.439 -290.798)" fill="#e6b510"/>
        <path id="Path_2499" data-name="Path 2499" d="M296.3,337.694a6.847,6.847,0,1,0,6.847,6.846A6.846,6.846,0,0,0,296.3,337.694Zm0,9.129a2.282,2.282,0,1,1,2.282-2.282A2.282,2.282,0,0,1,296.3,346.822Z" transform="translate(-249.591 -290.798)" fill="#e6b510"/>
        <path id="Path_2500" data-name="Path 2500" d="M659.1,339.976a2.282,2.282,0,0,0-2.282-2.282H629.427a2.282,2.282,0,1,0,0,4.564h27.386A2.282,2.282,0,0,0,659.1,339.976Z" transform="translate(-537.647 -290.882)" fill="#e6b510"/>
        <path id="Path_2501" data-name="Path 2501" d="M753.4,402.016H741.992a2.282,2.282,0,1,0,0,4.564H753.4a2.282,2.282,0,0,0,0-4.564Z" transform="translate(-634.144 -345.842)" fill="#e6b510"/>
        <path id="Path_2502" data-name="Path 2502" d="M567.387,337.694H565.1a2.282,2.282,0,0,0,0,4.564h2.282a2.282,2.282,0,1,0,0-4.564Z" transform="translate(-483.209 -290.882)" fill="#e6b510"/>
        <path id="Path_2503" data-name="Path 2503" d="M183.734,144.726a6.847,6.847,0,1,0,6.847,6.847A6.847,6.847,0,0,0,183.734,144.726Zm0,9.129a2.282,2.282,0,1,1,2.282-2.282A2.282,2.282,0,0,1,183.734,153.855Z" transform="translate(-153.439 -126.468)" fill="#e6b510"/>
        <path id="Path_2504" data-name="Path 2504" d="M296.3,144.726a6.847,6.847,0,1,0,6.847,6.847A6.846,6.846,0,0,0,296.3,144.726Zm0,9.129a2.282,2.282,0,1,1,2.282-2.282A2.282,2.282,0,0,1,296.3,153.855Z" transform="translate(-249.591 -126.468)" fill="#e6b510"/>
        <path id="Path_2505" data-name="Path 2505" d="M659.1,163.089a2.282,2.282,0,0,0-2.282-2.282H629.427a2.282,2.282,0,1,0,0,4.564h27.386A2.282,2.282,0,0,0,659.1,163.089Z" transform="translate(-537.647 -140.267)" fill="#e6b510"/>
        <path id="Path_2506" data-name="Path 2506" d="M753.4,209.048H741.992a2.282,2.282,0,1,0,0,4.564H753.4a2.282,2.282,0,0,0,0-4.564Z" transform="translate(-634.144 -180.961)" fill="#e6b510"/>
        <path id="Path_2507" data-name="Path 2507" d="M567.387,160.806H565.1a2.282,2.282,0,0,0,0,4.564h2.282a2.282,2.282,0,1,0,0-4.564Z" transform="translate(-483.209 -140.267)" fill="#e6b510"/>
        <path id="Path_2508" data-name="Path 2508" d="M183.734,530.661a6.846,6.846,0,1,0,6.847,6.847A6.847,6.847,0,0,0,183.734,530.661Zm0,9.129a2.282,2.282,0,1,1,2.282-2.282A2.282,2.282,0,0,1,183.734,539.79Z" transform="translate(-153.439 -455.629)" fill="#e6b510"/>
        <path id="Path_2509" data-name="Path 2509" d="M296.3,530.661a6.846,6.846,0,1,0,6.847,6.847A6.847,6.847,0,0,0,296.3,530.661Zm0,9.129a2.282,2.282,0,1,1,2.282-2.282A2.282,2.282,0,0,1,296.3,539.79Z" transform="translate(-249.591 -455.629)" fill="#e6b510"/>
        <path id="Path_2510" data-name="Path 2510" d="M629.427,535.226h27.386a2.282,2.282,0,0,0,0-4.564H629.427a2.282,2.282,0,1,0,0,4.564Z" transform="translate(-537.647 -455.762)" fill="#e6b510"/>
        <path id="Path_2511" data-name="Path 2511" d="M753.4,594.984H741.992a2.282,2.282,0,1,0,0,4.564H753.4a2.282,2.282,0,0,0,0-4.564Z" transform="translate(-634.144 -510.722)" fill="#e6b510"/>
        <path id="Path_2512" data-name="Path 2512" d="M565.1,535.226h2.282a2.282,2.282,0,1,0,0-4.564H565.1a2.282,2.282,0,0,0,0,4.564Z" transform="translate(-483.209 -455.762)" fill="#e6b510"/>
      </g>
    </g>
  </g>
</svg>
