<svg xmlns="http://www.w3.org/2000/svg" xmlns:xlink="http://www.w3.org/1999/xlink" width="145" height="145" viewBox="0 0 145 145">
  <defs>
    <clipPath id="clip-Web_1920_176">
      <rect width="145" height="145"/>
    </clipPath>
  </defs>
  <g id="Web_1920_176" data-name="Web 1920 – 176" clip-path="url(#clip-Web_1920_176)">
    <path id="Path_2654" data-name="Path 2654" d="M3412.868,1465.8h-5.09l-42.142-13.433a10.838,10.838,0,0,0-.384-16.905,11.746,11.746,0,0,1-4.285-9.348v-1.838h6.194a2.344,2.344,0,0,0,2.345-2.344v-24.109a2.346,2.346,0,0,0-2.345-2.346h-17.08a2.345,2.345,0,0,0-2.344,2.346v24.109a2.344,2.344,0,0,0,2.344,2.344h6.193v1.836a16.455,16.455,0,0,0,6.119,13.064,6.139,6.139,0,0,1,2.419,5,6.311,6.311,0,0,1-6.1,6.105h-.089a6.2,6.2,0,0,1-6.2-6.2,2.343,2.343,0,1,0-4.687,0h0a10.8,10.8,0,0,0,3.242,7.749c.211.208.436.4.659.594L3309.7,1465.8h-5.328a2.346,2.346,0,0,0-2.346,2.346h0v69.984a2.348,2.348,0,0,0,2.342,2.35h108.5a2.344,2.344,0,0,0,2.344-2.346v-69.988A2.343,2.343,0,0,0,3412.868,1465.8Zm-60.444-65.634h12.391v19.423h-12.391Zm38.679,123.567v-41.188h7.366v41.188Zm-12.057,0v-41.188h7.367v41.188Zm-12.054,0v-41.188h7.368v41.188Zm-12.056,0v-41.188h7.367v41.188Zm-12.055,0v-41.188h7.368v41.188Zm-12.055,0v-41.188h7.366v41.188Zm-12.054,0v-41.188h7.368v41.188Zm-12.055,0v-41.188h7.366v41.188Zm96.443-41.186h7.366v41.186h-7.366Zm-44.417-27.458,33.606,10.716h-67.215Zm-52.026,15.4h103.81v7.367h-103.81Zm103.81,65.295h-103.81v-7.364h103.81Z" transform="translate(-3286.025 -1394.503)" fill="#e6b510"/>
  </g>
</svg>
