<svg xmlns="http://www.w3.org/2000/svg" xmlns:xlink="http://www.w3.org/1999/xlink" width="145" height="145" viewBox="0 0 145 145">
  <defs>
    <clipPath id="clip-Web_1920_178">
      <rect width="145" height="145"/>
    </clipPath>
  </defs>
  <g id="Web_1920_178" data-name="Web 1920 – 178" clip-path="url(#clip-Web_1920_178)">
    <g id="solar-energy" transform="translate(-9.333 -9.333)">
      <path id="Path_2396" data-name="Path 2396" d="M157.832,230.332a72.5,72.5,0,1,1,72.5-72.5A72.583,72.583,0,0,1,157.832,230.332Zm0-137.75a65.25,65.25,0,1,0,65.25,65.25A65.327,65.327,0,0,0,157.832,92.582Zm0,0" transform="translate(-75.999 -75.999)" fill="#e6b510"/>
      <path id="Path_2401" data-name="Path 2401" d="M193.288,237.772a3.4,3.4,0,0,1-1.595-.4,3.71,3.71,0,0,1-1.835-4.087L199.43,190.2H182.72a3.522,3.522,0,0,1-3.206-2.137,3.762,3.762,0,0,1,.542-3.914l45.8-54.885a3.433,3.433,0,0,1,4.259-.868,3.7,3.7,0,0,1,1.835,4.087l-9.571,43.081h16.709a3.522,3.522,0,0,1,3.206,2.137,3.762,3.762,0,0,1-.542,3.914l-45.8,54.885A3.457,3.457,0,0,1,193.288,237.772Zm-2.853-54.885h13.422a3.471,3.471,0,0,1,2.754,1.38,3.772,3.772,0,0,1,.677,3.1l-7.381,33.224,31.463-37.706H217.95a3.482,3.482,0,0,1-2.758-1.38,3.784,3.784,0,0,1-.677-3.1L221.9,145.18Zm0,0" transform="translate(-129.071 -101.054)" fill="#e6b510"/>
    </g>
  </g>
</svg>
