<svg xmlns="http://www.w3.org/2000/svg" xmlns:xlink="http://www.w3.org/1999/xlink" width="90.1" height="22" viewBox="0 0 90.1 22">
  <defs>
    <clipPath id="clip-Web_1920_366">
      <rect width="90.1" height="22"/>
    </clipPath>
  </defs>
  <g id="Web_1920_366" data-name="Web 1920 – 366" clip-path="url(#clip-Web_1920_366)">
    <g id="PayPal" transform="translate(0)">
      <path id="Path_2575" data-name="Path 2575" d="M43.421,6.749H38.391a.7.7,0,0,0-.691.59l-2.035,12.9a.419.419,0,0,0,.415.484h2.4a.7.7,0,0,0,.691-.591l.549-3.479a.7.7,0,0,1,.69-.591H42c3.314,0,5.226-1.6,5.726-4.781a3.875,3.875,0,0,0-.641-3.248,4.667,4.667,0,0,0-3.667-1.284ZM44,11.46c-.275,1.805-1.654,1.805-2.988,1.805h-.759l.533-3.371a.419.419,0,0,1,.414-.354h.348c.908,0,1.765,0,2.208.518A1.676,1.676,0,0,1,44,11.46ZM58.459,11.4H56.049a.419.419,0,0,0-.414.354l-.107.674-.168-.244a3.429,3.429,0,0,0-2.845-1.01,5.54,5.54,0,0,0-5.379,4.845,4.547,4.547,0,0,0,.9,3.7,3.769,3.769,0,0,0,3.034,1.225A4.609,4.609,0,0,0,54.4,19.567l-.107.669a.419.419,0,0,0,.413.485h2.17a.7.7,0,0,0,.691-.591l1.3-8.245a.418.418,0,0,0-.413-.484ZM55.1,16.091a2.685,2.685,0,0,1-2.718,2.3,1.866,1.866,0,0,1-2-2.342,2.7,2.7,0,0,1,2.7-2.319,2.032,2.032,0,0,1,1.606.656A2.085,2.085,0,0,1,55.1,16.091ZM71.288,11.4H68.868a.7.7,0,0,0-.579.307L64.95,16.627,63.535,11.9a.7.7,0,0,0-.671-.5H60.485a.419.419,0,0,0-.4.555l2.666,7.825-2.507,3.539a.419.419,0,0,0,.342.662h2.418a.7.7,0,0,0,.574-.3l8.052-11.622a.419.419,0,0,0-.344-.658Z" transform="translate(-9.818 -1.983)" fill="#253b80"/>
      <path id="Path_2576" data-name="Path 2576" d="M92.2,6.749H87.171a.7.7,0,0,0-.69.59l-2.035,12.9a.419.419,0,0,0,.413.484h2.582a.489.489,0,0,0,.483-.413l.577-3.657a.7.7,0,0,1,.69-.591h1.592c3.315,0,5.226-1.6,5.726-4.781a3.872,3.872,0,0,0-.642-3.248A4.663,4.663,0,0,0,92.2,6.749Zm.58,4.711c-.274,1.805-1.654,1.805-2.988,1.805h-.758l.533-3.371a.418.418,0,0,1,.413-.354h.348c.908,0,1.765,0,2.208.518A1.677,1.677,0,0,1,92.782,11.46Zm14.456-.058h-2.408a.417.417,0,0,0-.413.354l-.107.674-.169-.244a3.427,3.427,0,0,0-2.844-1.01A5.539,5.539,0,0,0,95.92,16.02a4.549,4.549,0,0,0,.9,3.7,3.771,3.771,0,0,0,3.034,1.225,4.609,4.609,0,0,0,3.334-1.379l-.107.669a.419.419,0,0,0,.415.485h2.169a.7.7,0,0,0,.69-.591l1.3-8.245a.42.42,0,0,0-.416-.484Zm-3.358,4.689a2.684,2.684,0,0,1-2.718,2.3,1.866,1.866,0,0,1-2-2.342,2.7,2.7,0,0,1,2.7-2.319,2.032,2.032,0,0,1,1.606.656A2.075,2.075,0,0,1,103.881,16.091Zm6.2-8.988-2.065,13.136a.419.419,0,0,0,.413.484H110.5a.7.7,0,0,0,.691-.591l2.036-12.9a.419.419,0,0,0-.413-.485h-2.324a.42.42,0,0,0-.413.355Z" transform="translate(-23.14 -1.983)" fill="#179bd7"/>
      <path id="Path_2577" data-name="Path 2577" d="M5.625,21.518,6.01,19.1l-.857-.02H1.061L3.9,1.219a.232.232,0,0,1,.231-.2h6.9c2.291,0,3.871.472,4.7,1.4a3.191,3.191,0,0,1,.752,1.4,5,5,0,0,1,.005,1.926l-.009.056V6.3l.387.217a2.712,2.712,0,0,1,.783.592,2.742,2.742,0,0,1,.636,1.412,5.916,5.916,0,0,1-.09,2.049,7.17,7.17,0,0,1-.847,2.319,4.787,4.787,0,0,1-1.342,1.457,5.471,5.471,0,0,1-1.808.808,9.1,9.1,0,0,1-2.26.259H11.4a1.638,1.638,0,0,0-1.05.382,1.606,1.606,0,0,0-.547.967l-.04.218-.68,4.266-.031.157a.134.134,0,0,1-.043.091.115.115,0,0,1-.071.025H5.625Z" transform="translate(-0.281 -0.271)" fill="#253b80"/>
      <path id="Path_2578" data-name="Path 2578" d="M18.59,7.667q-.031.2-.071.4c-.91,4.672-4.023,6.286-8,6.286H8.5a.983.983,0,0,0-.972.833L6.488,21.763l-.293,1.863a.518.518,0,0,0,.511.6H10.3a.864.864,0,0,0,.853-.728l.035-.182.676-4.29.043-.235a.863.863,0,0,1,.853-.73h.537c3.479,0,6.2-1.412,7-5.5a4.682,4.682,0,0,0-.719-4.135,3.433,3.433,0,0,0-.983-.758Z" transform="translate(-1.636 -2.226)" fill="#179bd7"/>
      <path id="Path_2579" data-name="Path 2579" d="M18.118,7.034a7.177,7.177,0,0,0-.885-.2,11.243,11.243,0,0,0-1.785-.13H10.041a.862.862,0,0,0-.853.73l-1.15,7.287-.033.213a.983.983,0,0,1,.972-.833H11c3.976,0,7.089-1.615,8-6.286.027-.138.05-.273.071-.4a4.851,4.851,0,0,0-.748-.316q-.1-.034-.2-.064Z" transform="translate(-2.117 -1.843)" fill="#222d65"/>
      <path id="Path_2580" data-name="Path 2580" d="M7.072,5.606a.857.857,0,0,1,.853-.722h5.408a11.355,11.355,0,0,1,1.785.129,7.238,7.238,0,0,1,1.089.257,4.951,4.951,0,0,1,.748.312,4.336,4.336,0,0,0-.936-3.926C14.99.5,13.132,0,10.756,0h-6.9a.983.983,0,0,0-.975.825L.007,18.859a.583.583,0,0,0,.135.473.6.6,0,0,0,.45.206h4.26l1.07-6.718,1.15-7.213Z" transform="translate(0 0)" fill="#253b80"/>
    </g>
  </g>
</svg>
