<svg xmlns="http://www.w3.org/2000/svg" xmlns:xlink="http://www.w3.org/1999/xlink" width="16" height="16" viewBox="0 0 16 16">
  <defs>
    <clipPath id="clip-Web_1920_336">
      <rect width="16" height="16"/>
    </clipPath>
  </defs>
  <g id="Web_1920_336" data-name="Web 1920 – 336" clip-path="url(#clip-Web_1920_336)">
    <path id="pencil" d="M15.854,3.647l-3.5-3.5a.5.5,0,0,0-.707,0l-11.5,11.5A.5.5,0,0,0,0,12v3.5a.5.5,0,0,0,.5.5H4a.5.5,0,0,0,.353-.146l11.5-11.5a.5.5,0,0,0,0-.707ZM3.793,15H1V12.207l8.25-8.25L12.043,6.75,3.793,15ZM12.75,6.043,9.957,3.25,12,1.207,14.793,4Z" fill="#303030"/>
  </g>
</svg>
