<svg xmlns="http://www.w3.org/2000/svg" xmlns:xlink="http://www.w3.org/1999/xlink" width="24" height="24" viewBox="0 0 24 24">
  <defs>
    <clipPath id="clip-Web_1920_145">
      <rect width="24" height="24"/>
    </clipPath>
  </defs>
  <g id="Web_1920_145" data-name="Web 1920 – 145" clip-path="url(#clip-Web_1920_145)">
    <path id="Path_2655" data-name="Path 2655" d="M11,0A11,11,0,1,1,0,11,11,11,0,0,1,11,0Z" transform="translate(1 1)" fill="none" stroke="#fff" stroke-width="2"/>
    <g id="Group_54" data-name="Group 54" transform="translate(6.846 7.624)">
      <g id="g4780" transform="translate(0)">
        <g id="g15">
          <path id="path17-6" d="M1345.877,2137.166c-.276-.222-.57-.421-.861-.625-.579-.406-1.107-.438-1.539.216a.673.673,0,0,1-.937.222,4.151,4.151,0,0,1-2.176-2.121.817.817,0,0,1,.265-1.146.811.811,0,0,0,.467-.719,4.855,4.855,0,0,0-1.613-2.2.817.817,0,0,0-.56,0,1.581,1.581,0,0,0-1.072,2.247,11.664,11.664,0,0,0,6.462,6.494,2.984,2.984,0,0,0,.461.13,2.1,2.1,0,0,0,1.726-1.313c.224-.632-.25-.884-.624-1.185Z" transform="translate(-1337.695 -2130.502)" fill="#fff"/>
          <path id="path19-1" d="M1349.629,2130.59a3.643,3.643,0,0,1,3.509,3.614c.026.205-.05.515.242.521s.233-.3.235-.5a4.2,4.2,0,0,0-3.922-4.109c-.16.023-.491-.11-.512.249-.014.242.265.2.448.23Z" transform="translate(-1344.834 -2130.106)" fill="#fff"/>
          <path id="path21-2" d="M1350.606,2132.937c-.213-.025-.493-.125-.542.169s.26.278.462.323a2.207,2.207,0,0,1,2.063,2.155c.033.2-.032.5.3.453.249-.038.159-.3.18-.455a2.782,2.782,0,0,0-2.465-2.645Z" transform="translate(-1345.38 -2131.843)" fill="#fff"/>
          <path id="path23" d="M1351.258,2135.8c-.142,0-.281.019-.333.17-.078.227.086.28.254.308a.994.994,0,0,1,.91.978c.015.152.111.274.257.257.2-.024.221-.2.215-.376a1.474,1.474,0,0,0-1.3-1.336Z" transform="translate(-1345.906 -2133.648)" fill="#fff"/>
        </g>
      </g>
    </g>
  </g>
</svg>
