<svg xmlns="http://www.w3.org/2000/svg" xmlns:xlink="http://www.w3.org/1999/xlink" width="46" height="31" viewBox="0 0 46 31">
  <defs>
    <clipPath id="clip-Web_1920_93">
      <rect width="46" height="31"/>
    </clipPath>
  </defs>
  <g id="Web_1920_93" data-name="Web 1920 – 93" clip-path="url(#clip-Web_1920_93)">
    <g id="Group_4033" data-name="Group 4033" transform="translate(-840 -3539)" opacity="0.338">
      <path id="Path_2472" data-name="Path 2472" d="M8.437,0a8.425,8.425,0,1,0,6.881,13.271A14.564,14.564,0,0,1,.777,27.574a.766.766,0,0,0,0,1.532A16.1,16.1,0,0,0,16.862,13.021v-4.6A8.435,8.435,0,0,0,8.437,0Z" transform="translate(859.416 3569.106) rotate(180)" fill="#a2a2a2"/>
      <path id="Path_2473" data-name="Path 2473" d="M8.437,0a8.425,8.425,0,1,0,6.881,13.271A14.564,14.564,0,0,1,.777,27.574a.766.766,0,0,0,0,1.532A16.1,16.1,0,0,0,16.862,13.021v-4.6A8.435,8.435,0,0,0,8.437,0Z" transform="translate(883.416 3569.106) rotate(180)" fill="#a2a2a2"/>
    </g>
  </g>
</svg>
