<svg xmlns="http://www.w3.org/2000/svg" xmlns:xlink="http://www.w3.org/1999/xlink" width="25.391" height="16.35" viewBox="0 0 25.391 16.35">
  <defs>
    <clipPath id="clip-Web_1920_296">
      <rect width="25.39" height="16.35"/>
    </clipPath>
  </defs>
  <g id="Web_1920_296" data-name="Web 1920 – 296" clip-path="url(#clip-Web_1920_296)">
    <g id="share-2" transform="translate(6.061)">
      <g id="Group_3813" data-name="Group 3813" transform="translate(0 0)">
        <path id="Path_2618" data-name="Path 2618" d="M32.788,11.563a2.38,2.38,0,0,0-1.612.632L25.33,8.785a2.271,2.271,0,0,0,0-1.149L31.115,4.26a2.456,2.456,0,1,0-.788-1.8,2.422,2.422,0,0,0,.074.574L24.616,6.414a2.462,2.462,0,1,0,0,3.594l5.847,3.409a2.322,2.322,0,0,0-.066.537,2.392,2.392,0,1,0,2.392-2.392Z" transform="translate(-20.48 -0.001)" fill="#a2a2a2"/>
      </g>
    </g>
  </g>
</svg>
