<svg xmlns="http://www.w3.org/2000/svg" xmlns:xlink="http://www.w3.org/1999/xlink" width="73" height="74" viewBox="0 0 73 74">
  <defs>
    <clipPath id="clip-Web_1920_244">
      <rect width="73" height="74"/>
    </clipPath>
  </defs>
  <g id="Web_1920_244" data-name="Web 1920 – 244" clip-path="url(#clip-Web_1920_244)">
    <g id="computer-settings" transform="translate(0.015 0.5)">
      <path id="Path_2456" data-name="Path 2456" d="M71.645,62.226H69.29V23.371a3.537,3.537,0,0,0-3.532-3.532H47.205l-.15-.15a10.6,10.6,0,0,0,.425-1.028h2.971a1.178,1.178,0,0,0,1.177-1.177v-4.71A1.178,1.178,0,0,0,50.452,11.6H47.482a10.6,10.6,0,0,0-.425-1.028l2.1-2.1a1.176,1.176,0,0,0,0-1.665L45.826,3.473a1.176,1.176,0,0,0-1.665,0l-2.1,2.1q-.5-.237-1.028-.425V2.177A1.178,1.178,0,0,0,39.855,1h-4.71a1.178,1.178,0,0,0-1.177,1.177V5.147a10.6,10.6,0,0,0-1.028.425l-2.1-2.1a1.176,1.176,0,0,0-1.665,0L25.844,6.8a1.176,1.176,0,0,0,0,1.665l2.1,2.1q-.237.5-.425,1.028H24.548a1.178,1.178,0,0,0-1.177,1.177v4.71a1.178,1.178,0,0,0,1.177,1.177h2.969a10.6,10.6,0,0,0,.425,1.028l-.148.15H9.242A3.537,3.537,0,0,0,5.71,23.371V62.226H3.355A2.357,2.357,0,0,0,1,64.581v3.532A5.894,5.894,0,0,0,6.887,74H68.113A5.894,5.894,0,0,0,74,68.113V64.581A2.357,2.357,0,0,0,71.645,62.226ZM57.516,48.1v10.6H55.161V48.1H52.806v10.6H50.452V51.629H48.1v7.065H45.742V55.161H43.387v3.532H41.032V56.339H38.677v2.355H36.323V56.339H33.968v2.355H31.613V51.629H29.258v7.065H26.9V50.452H24.548v8.242H22.194v-4.71H19.839v4.71H17.484V50.452H15.129v8.242H11.6V52.116l4.71-4.71,3.877,3.877a1.176,1.176,0,0,0,1.665,0l5.176-5.176,12.138,8.827a1.175,1.175,0,0,0,1.376.007L56.273,43.7l7.13,6.112v8.878H59.871V48.1ZM63.4,46.714l-6.3-5.4a1.179,1.179,0,0,0-1.451-.065L39.861,52.532,27.6,43.612a1.176,1.176,0,0,0-1.525.12l-5.055,5.055L17.139,44.91a1.176,1.176,0,0,0-1.665,0L11.6,48.787V25.726H28.116l1.059,1.059a1.212,1.212,0,0,0,1.665,0l2.1-2.1a10.33,10.33,0,0,0,1.029.425v2.972a1.178,1.178,0,0,0,1.177,1.177h4.71a1.178,1.178,0,0,0,1.177-1.177V25.11a10.743,10.743,0,0,0,1.029-.425l2.1,2.1a1.177,1.177,0,0,0,1.665,0l1.058-1.06H63.4ZM25.726,16.306V13.952h2.663a1.178,1.178,0,0,0,1.14-.883,8.155,8.155,0,0,1,.877-2.118,1.177,1.177,0,0,0-.181-1.431L28.342,7.637l1.666-1.666,1.883,1.883a1.175,1.175,0,0,0,1.431.181,8.189,8.189,0,0,1,2.118-.877,1.177,1.177,0,0,0,.883-1.14V3.355h2.355V6.018a1.178,1.178,0,0,0,.883,1.14,8.155,8.155,0,0,1,2.118.877,1.181,1.181,0,0,0,1.431-.181l1.883-1.883,1.666,1.666L44.775,9.52a1.176,1.176,0,0,0-.181,1.431,8.189,8.189,0,0,1,.877,2.118,1.178,1.178,0,0,0,1.14.883h2.663v2.355H46.611a1.178,1.178,0,0,0-1.14.883,8.156,8.156,0,0,1-.877,2.118,1.177,1.177,0,0,0,.181,1.431l1.883,1.883-1.666,1.666L43.109,22.4a1.179,1.179,0,0,0-1.432-.181,8.2,8.2,0,0,1-2.118.877,1.179,1.179,0,0,0-.882,1.141V26.9H36.323V24.24a1.178,1.178,0,0,0-.883-1.14,8.2,8.2,0,0,1-2.118-.877,1.175,1.175,0,0,0-1.432.181l-1.883,1.884-1.666-1.666,1.883-1.883a1.176,1.176,0,0,0,.181-1.431,8.189,8.189,0,0,1-.877-2.118,1.174,1.174,0,0,0-1.139-.884ZM8.065,23.371a1.179,1.179,0,0,1,1.177-1.177h16.34a1.168,1.168,0,0,0,.206,1.177H11.6a2.357,2.357,0,0,0-2.355,2.355V58.694A2.357,2.357,0,0,0,11.6,61.048H63.4a2.357,2.357,0,0,0,2.355-2.355V25.726A2.357,2.357,0,0,0,63.4,23.371H49.211a1.168,1.168,0,0,0,.206-1.177H65.758a1.179,1.179,0,0,1,1.177,1.177V62.226H45.742a2.357,2.357,0,0,0-2.355,2.355H31.613a2.357,2.357,0,0,0-2.355-2.355H8.065ZM71.645,68.113a3.537,3.537,0,0,1-3.532,3.532H6.887a3.537,3.537,0,0,1-3.532-3.532V64.581h25.9a2.357,2.357,0,0,0,2.355,2.355H43.387a2.357,2.357,0,0,0,2.355-2.355h25.9Z" transform="translate(-1 -1)" fill="#e6b510"/>
      <path id="Path_2457" data-name="Path 2457" d="M5,57h7.057v2.352H5Z" transform="translate(-0.295 8.943)" fill="#e6b510"/>
      <path id="Path_2458" data-name="Path 2458" d="M53,57h7.057v2.352H53Z" transform="translate(8.239 8.943)" fill="#e6b510"/>
      <path id="Path_2459" data-name="Path 2459" d="M32.881,19.761A5.881,5.881,0,1,0,27,13.881,5.887,5.887,0,0,0,32.881,19.761Zm0-9.409a3.528,3.528,0,1,1-3.528,3.528A3.533,3.533,0,0,1,32.881,10.352Z" transform="translate(3.619 0.233)" fill="#e6b510"/>
      <path id="Path_2460" data-name="Path 2460" d="M12.653,17.466a1.173,1.173,0,0,0,.832-.345l3.528-3.528L15.35,11.93l-1.495,1.495A10.59,10.59,0,0,1,24.414,3.352V1A12.943,12.943,0,0,0,11.5,13.474L9.956,11.93,8.293,13.593l3.528,3.528A1.173,1.173,0,0,0,12.653,17.466Z" transform="translate(0.284 -1)" fill="#e6b510"/>
      <path id="Path_2461" data-name="Path 2461" d="M52.559,13.425,51.064,11.93,49.4,13.593l3.528,3.528a1.176,1.176,0,0,0,1.663,0l3.528-3.528L56.458,11.93l-1.544,1.544A12.943,12.943,0,0,0,42,1V3.352A10.59,10.59,0,0,1,52.559,13.425Z" transform="translate(6.301 -1)" fill="#e6b510"/>
      <path id="Path_2462" data-name="Path 2462" d="M33.8,27.438a1.216,1.216,0,0,0-1.837,0l-4.7,5.881a1.176,1.176,0,0,0,.919,1.911h1.176v7.057a1.177,1.177,0,0,0,1.176,1.176h4.7a1.177,1.177,0,0,0,1.176-1.176V35.23h1.176a1.176,1.176,0,0,0,.917-1.911Zm.258,6.616V41.11H31.7V34.053a1.176,1.176,0,0,0-1.084-1.173l2.261-2.825,2.261,2.825A1.176,1.176,0,0,0,34.057,34.053Z" transform="translate(3.619 3.626)" fill="#e6b510"/>
    </g>
  </g>
</svg>
