<svg xmlns="http://www.w3.org/2000/svg" xmlns:xlink="http://www.w3.org/1999/xlink" width="42" height="42" viewBox="0 0 42 42">
  <defs>
    <clipPath id="clip-Web_1920_292">
      <rect width="42" height="42"/>
    </clipPath>
  </defs>
  <g id="Web_1920_292" data-name="Web 1920 – 292" clip-path="url(#clip-Web_1920_292)">
    <g id="Telegram_logo" transform="translate(0 0.475)">
      <path id="Path_2642" data-name="Path 2642" d="M21,0A21,21,0,1,1,0,21,21,21,0,0,1,21,0Z" transform="translate(0 -0.475)" fill="red"/>
      <g id="Group_3882" data-name="Group 3882" transform="translate(8 10.859)">
        <path id="Path_2640" data-name="Path 2640" d="M28.179,3.349A3.383,3.383,0,0,0,25.8.969C23.713.4,15.315.4,15.315.4S6.918.417,4.831.986a3.383,3.383,0,0,0-2.38,2.38A35.349,35.349,0,0,0,1.9,9.815a34.551,34.551,0,0,0,.569,6.466,3.383,3.383,0,0,0,2.38,2.38c2.086.569,10.484.569,10.484.569s8.4,0,10.484-.569a3.383,3.383,0,0,0,2.38-2.38,34.452,34.452,0,0,0,.569-6.466A35.085,35.085,0,0,0,28.179,3.349Z" transform="translate(-1.9 -0.4)" fill="#fff"/>
        <path id="Path_2641" data-name="Path 2641" d="M64.2,39.67l6.966-4.035L64.2,31.6Z" transform="translate(-53.457 -26.22)" fill="red"/>
      </g>
    </g>
  </g>
</svg>
