<svg xmlns="http://www.w3.org/2000/svg" xmlns:xlink="http://www.w3.org/1999/xlink" width="42" height="42" viewBox="0 0 42 42">
  <defs>
    <linearGradient id="linear-gradient" x1="0.5" y1="0.008" x2="0.5" y2="0.998" gradientUnits="objectBoundingBox">
      <stop offset="0" stop-color="#e09b3d"/>
      <stop offset="0.3" stop-color="#c74c4d"/>
      <stop offset="0.6" stop-color="#c21975"/>
      <stop offset="1" stop-color="#7024c4"/>
    </linearGradient>
    <linearGradient id="linear-gradient-2" y1="-0.451" y2="1.462" xlink:href="#linear-gradient"/>
    <linearGradient id="linear-gradient-3" y1="-1.396" y2="6.586" xlink:href="#linear-gradient"/>
    <clipPath id="clip-Web_1920_291">
      <rect width="42" height="42"/>
    </clipPath>
  </defs>
  <g id="Web_1920_291" data-name="Web 1920 – 291" clip-path="url(#clip-Web_1920_291)">
    <g id="Instagram_new" transform="translate(-23)">
      <g id="Group_3822" data-name="Group 3822" transform="translate(23)">
        <path id="Path_2629" data-name="Path 2629" d="M29.488,0H12.512A12.526,12.526,0,0,0,0,12.512V29.488A12.526,12.526,0,0,0,12.512,42H29.488A12.526,12.526,0,0,0,42,29.488V12.512A12.526,12.526,0,0,0,29.488,0Zm8.287,29.488a8.287,8.287,0,0,1-8.287,8.287H12.512a8.287,8.287,0,0,1-8.287-8.287V12.512a8.287,8.287,0,0,1,8.287-8.287H29.488a8.287,8.287,0,0,1,8.287,8.287V29.488Z" fill="url(#linear-gradient)"/>
        <path id="Path_2630" data-name="Path 2630" d="M143.463,133a10.463,10.463,0,1,0,10.463,10.463A10.475,10.475,0,0,0,143.463,133Zm0,16.857a6.394,6.394,0,1,1,6.394-6.394A6.394,6.394,0,0,1,143.463,149.857Z" transform="translate(-122.463 -122.463)" fill="url(#linear-gradient-2)"/>
        <circle id="Ellipse_177" data-name="Ellipse 177" cx="2.705" cy="2.705" r="2.705" transform="translate(29.118 7.573)" fill="url(#linear-gradient-3)"/>
      </g>
    </g>
  </g>
</svg>
