<svg xmlns="http://www.w3.org/2000/svg" xmlns:xlink="http://www.w3.org/1999/xlink" width="24" height="24" viewBox="0 0 24 24">
  <defs>
    <clipPath id="clip-Web_1920_143">
      <rect width="24" height="24"/>
    </clipPath>
  </defs>
  <g id="Web_1920_143" data-name="Web 1920 – 143" clip-path="url(#clip-Web_1920_143)">
    <g id="ico_pinterest" transform="translate(1.078 1)">
      <circle id="Ellipse_6" data-name="Ellipse 6" cx="11" cy="11" r="11" fill="none" stroke="#fff" stroke-width="2"/>
      <g id="Het1PX.tif" transform="translate(4.889 6.722)">
        <g id="Group_52" data-name="Group 52">
          <path id="Path_112" data-name="Path 112" d="M2637.277,988a6.711,6.711,0,0,1-.155.807q-.724,3.43-1.454,6.859a1.211,1.211,0,0,1-.128.381.426.426,0,0,1-.5.214.991.991,0,0,1-.372-.18c-.732-.543-1.467-1.082-2.2-1.628a.142.142,0,0,0-.225.016c-.36.357-.727.708-1.088,1.064a.637.637,0,0,1-.49.21.255.255,0,0,1-.266-.2c-.226-.7-.456-1.409-.684-2.112-.077-.239-.159-.477-.232-.717a.21.21,0,0,0-.158-.158c-.716-.22-1.431-.445-2.146-.669a1.126,1.126,0,0,1-.273-.112.259.259,0,0,1-.043-.462,1.278,1.278,0,0,1,.42-.236l2.926-1.129,6.317-2.435.05-.02A.483.483,0,0,1,2637.277,988Zm-6.607,7.07a.06.06,0,0,0,.037-.064c.048-.514.1-1.027.14-1.541a.428.428,0,0,1,.149-.312q2.059-1.849,4.111-3.705c.087-.078.174-.155.259-.236.035-.033.081-.071.054-.126s-.089-.055-.143-.049a.682.682,0,0,0-.283.119q-2.533,1.6-5.068,3.195a.155.155,0,0,0-.075.218c.209.625.412,1.253.616,1.88C2630.535,994.651,2630.6,994.858,2630.67,995.067Z" transform="translate(-2626.741 -987.444)" fill="#fff"/>
        </g>
      </g>
    </g>
  </g>
</svg>
