<svg xmlns="http://www.w3.org/2000/svg" xmlns:xlink="http://www.w3.org/1999/xlink" width="15.59" height="15.59" viewBox="0 0 15.59 15.59">
  <defs>
    <clipPath id="clip-Web_1920_319">
      <rect width="15.59" height="15.59"/>
    </clipPath>
  </defs>
  <g id="Web_1920_319" data-name="Web 1920 – 319" clip-path="url(#clip-Web_1920_319)">
    <g id="Livello_x0020_1" transform="translate(0 1)">
      <path id="Path_2636" data-name="Path 2636" d="M13.59,1.5a6.417,6.417,0,0,1-1.837.5,3.2,3.2,0,0,0,1.4-1.77,6.409,6.409,0,0,1-2.03.777A3.2,3.2,0,0,0,5.594,3.2a3.119,3.119,0,0,0,.084.728A9.074,9.074,0,0,1-.914.584,3.2,3.2,0,0,0,.077,4.852a3.191,3.191,0,0,1-1.449-.4v.04A3.2,3.2,0,0,0,1.193,7.626a3.24,3.24,0,0,1-.842.112,3.206,3.206,0,0,1-.6-.058A3.2,3.2,0,0,0,2.735,9.9a6.415,6.415,0,0,1-3.972,1.37A6.891,6.891,0,0,1-2,11.227a9.051,9.051,0,0,0,4.9,1.437,9.036,9.036,0,0,0,9.1-9.1c0-.14,0-.277-.009-.414a6.468,6.468,0,0,0,1.6-1.656Z" transform="translate(2)" fill="#41abe1" fill-rule="evenodd"/>
    </g>
  </g>
</svg>
