<svg xmlns="http://www.w3.org/2000/svg" xmlns:xlink="http://www.w3.org/1999/xlink" width="67.978" height="22" viewBox="0 0 67.978 22">
  <defs>
    <clipPath id="clip-Web_1920_362">
      <rect width="67.978" height="22"/>
    </clipPath>
  </defs>
  <g id="Web_1920_362" data-name="Web 1920 – 362" clip-path="url(#clip-Web_1920_362)">
    <g id="g4158">
      <path id="polygon9" d="M439.107,132.012h-5.6l3.5-21.285h5.6Z" transform="translate(-409.618 -110.334)" fill="#00579f"/>
      <path id="path11" d="M581.976,105.954a14,14,0,0,0-5.022-.907c-5.53,0-9.424,2.9-9.448,7.046-.046,3.059,2.788,4.758,4.908,5.778,2.166,1.042,2.9,1.722,2.9,2.651-.022,1.427-1.751,2.084-3.363,2.084a11.3,11.3,0,0,1-5.254-1.133l-.737-.34-.784,4.781a17.294,17.294,0,0,0,6.245,1.133c5.875,0,9.7-2.855,9.746-7.273.022-2.424-1.474-4.282-4.7-5.8-1.958-.974-3.158-1.631-3.158-2.629.023-.906,1.014-1.835,3.225-1.835a9.651,9.651,0,0,1,4.171.815l.506.226.761-4.6Z" transform="translate(-532.457 -105.048)" fill="#00579f"/>
      <path id="path13" d="M799.185,124.471c.461-1.223,2.236-5.955,2.236-5.955-.023.045.46-1.245.737-2.038l.391,1.834s1.06,5.095,1.291,6.159Zm6.912-13.744h-4.331a2.768,2.768,0,0,0-2.927,1.766l-8.317,19.518H796.4l1.175-3.193h7.189c.161.747.668,3.193.668,3.193h5.185L806.1,110.727Z" transform="translate(-742.637 -110.334)" fill="#00579f"/>
      <path id="path15" d="M179.66,110.727l-5.484,14.514-.6-2.944a16.369,16.369,0,0,0-7.742-8.922l5.023,18.613h5.921l8.8-21.262H179.66Z" transform="translate(-159.983 -110.334)" fill="#00579f"/>
      <path id="path17" d="M90.267,110.727H81.258l-.092.438c7.028,1.8,11.682,6.129,13.594,11.336L92.8,112.547a2.317,2.317,0,0,0-2.534-1.82Z" transform="translate(-81.166 -110.334)" fill="#faa61a"/>
    </g>
  </g>
</svg>
