<svg xmlns="http://www.w3.org/2000/svg" xmlns:xlink="http://www.w3.org/1999/xlink" width="25" height="22" viewBox="0 0 22 22">
  <defs>
    <clipPath id="clip-Web_1920_144">
      <rect width="25" height="25"/>
    </clipPath>
  </defs>
  <g id="Web_1920_144" data-name="Web 1920 – 144" clip-path="url(#clip-Web_1920_144)">
    <g id="ico_twitter" transform="translate(-5.033 -6.222)">
      <g id="Group_53" data-name="Group 53" transform="translate(6.111 6.222)">
        <path id="Path_113" data-name="Path 113" d="M1299.061,2142.711c-.269-.148-1.589-.86-1.835-.96s-.429-.153-.622.114-.74.862-.9,1.039-.327.194-.6.047a7.5,7.5,0,0,1-2.148-1.441,8.232,8.232,0,0,1-1.451-1.951c-.151-.28,0-.422.141-.553s.286-.31.429-.465a1.854,1.854,0,0,0,.29-.446.5.5,0,0,0-.005-.479c-.063-.139-.56-1.506-.767-2.062s-.438-.473-.6-.48-.341-.034-.524-.041a1,1,0,0,0-.741.314,3.065,3.065,0,0,0-1.043,2.246,5.31,5.31,0,0,0,1.01,2.871,11.237,11.237,0,0,0,4.517,4.305c2.741,1.2,2.756.834,3.257.808a2.77,2.77,0,0,0,1.9-1.231,2.279,2.279,0,0,0,.208-1.294c-.064-.118-.244-.192-.512-.339Zm-5.026,6.486a8.867,8.867,0,0,1-4.907-1.476l-3.429,1.1,1.115-3.313a8.918,8.918,0,1,1,7.221,3.691Zm0-19.638a10.719,10.719,0,0,0-9.178,16.251l-1.934,5.749,5.933-1.9a10.717,10.717,0,1,0,5.179-20.1Z" transform="translate(-1282.923 -2129.559)" fill="#fff" fill-rule="evenodd"/>
      </g>
    </g>
  </g>
</svg>
