<svg xmlns="http://www.w3.org/2000/svg" xmlns:xlink="http://www.w3.org/1999/xlink" width="95" height="82" viewBox="0 0 95 82">
  <defs>
    <clipPath id="clip-Web_1920_433">
      <rect width="95" height="82"/>
    </clipPath>
  </defs>
  <g id="Web_1920_433" data-name="Web 1920 – 433" clip-path="url(#clip-Web_1920_433)">
    <path id="blockchain" d="M81.873,19.065c-.006-.035,0-.071-.014-.105a1.121,1.121,0,0,0-.11-.268.875.875,0,0,0-.06-.079,1.115,1.115,0,0,0-.117-.153c-.026-.027-.06-.046-.089-.07a1.108,1.108,0,0,0-.138-.108l-.008,0-.007-.005L71.913,12.9a1.131,1.131,0,0,0-1.121,0l-9.423,5.376-.007.005-.008,0a1.11,1.11,0,0,0-.138.108.809.809,0,0,0-.088.069,1.115,1.115,0,0,0-.119.155c-.019.027-.043.049-.059.078a1.123,1.123,0,0,0-.11.268c-.009.033-.008.068-.014.1a1.1,1.1,0,0,0-.024.187v2.288l-8.38-5.23a1.1,1.1,0,0,0,.023-.171V6.747a1.1,1.1,0,0,0-.024-.184c-.006-.035,0-.071-.014-.105a1.121,1.121,0,0,0-.11-.267,1.136,1.136,0,0,0-.073-.1,1.112,1.112,0,0,0-.1-.135,1.151,1.151,0,0,0-.107-.083,1.107,1.107,0,0,0-.121-.094h-.006l0-.01L42.458.4a1.131,1.131,0,0,0-1.121,0L31.914,5.772l-.008.006H31.9a1.106,1.106,0,0,0-.122.095,1.148,1.148,0,0,0-.106.083,1.115,1.115,0,0,0-.1.137,1.14,1.14,0,0,0-.071.094,1.121,1.121,0,0,0-.11.268c-.009.033-.008.068-.014.1a1.1,1.1,0,0,0-.024.187v9.392a1.1,1.1,0,0,0,.023.171l-8.378,5.229V19.249a1.1,1.1,0,0,0-.024-.184c-.006-.035,0-.071-.014-.105a1.121,1.121,0,0,0-.11-.268.878.878,0,0,0-.06-.079,1.115,1.115,0,0,0-.117-.153c-.026-.027-.06-.046-.089-.07a1.108,1.108,0,0,0-.138-.108l-.008,0-.007-.005L13.006,12.9a1.131,1.131,0,0,0-1.121,0L2.464,18.274l-.007.005-.008,0a1.111,1.111,0,0,0-.138.108.808.808,0,0,0-.088.069,1.115,1.115,0,0,0-.119.155c-.019.027-.043.049-.059.078a1.123,1.123,0,0,0-.11.268c-.009.033-.008.068-.014.1a1.1,1.1,0,0,0-.024.187v9.388a1.123,1.123,0,0,0,.587.986l8.834,4.807V47.291L2.464,52.344l-.007.005-.008,0a1.111,1.111,0,0,0-.138.108.809.809,0,0,0-.088.069,1.114,1.114,0,0,0-.119.155c-.019.027-.043.049-.059.078a1.123,1.123,0,0,0-.11.268c-.009.033-.008.068-.014.1a1.1,1.1,0,0,0-.024.187v9.388a1.123,1.123,0,0,0,.588.986l9.42,5.124a1.111,1.111,0,0,0,.164.064.952.952,0,0,0,.09.035,1.093,1.093,0,0,0,.573,0c.031-.008.059-.024.09-.035a1.111,1.111,0,0,0,.164-.064l8-4.351,10.37,6.88V76a1.123,1.123,0,0,0,.587.986l9.42,5.124a1.113,1.113,0,0,0,.164.064.953.953,0,0,0,.09.035,1.094,1.094,0,0,0,.573,0c.031-.008.059-.024.09-.035a1.112,1.112,0,0,0,.164-.064l9.417-5.125A1.123,1.123,0,0,0,52.445,76V71.344l10.37-6.88,8,4.351a1.113,1.113,0,0,0,.164.064.956.956,0,0,0,.09.035,1.093,1.093,0,0,0,.573,0c.031-.008.059-.024.09-.035a1.112,1.112,0,0,0,.164-.064l9.417-5.123a1.123,1.123,0,0,0,.587-.986V53.319a1.1,1.1,0,0,0-.024-.184c-.006-.035,0-.071-.014-.105a1.121,1.121,0,0,0-.11-.268.883.883,0,0,0-.06-.079,1.116,1.116,0,0,0-.117-.153c-.026-.027-.06-.046-.089-.07a1.108,1.108,0,0,0-.138-.108l-.008,0-.007-.005-8.853-5.053V34.429l8.833-4.805a1.123,1.123,0,0,0,.587-.986V19.249a1.1,1.1,0,0,0-.023-.184ZM48.72,66.747,41.9,70.458l-6.822-3.711-.289-.157L41.9,62.531l7.111,4.055ZM20.738,27.97l-7.166,3.9V25.04l7.166-3.9ZM12.445,49.236l7.111,4.058-.289.157-6.822,3.711L5.622,53.452l-.289-.157Zm9.325,2.733-8.2-4.679V34.429l7.468-4.062L31.35,37.052v8.2ZM33.6,15.469V8.641l7.166,3.9v6.826Zm16.586,0-7.166,3.9V12.541l7.166-3.9ZM41.9,32.361l7.111,4.058-.289.157L41.9,40.287l-6.822-3.711-.289-.157ZM33.6,38.336l7.166,3.9v6.83l-7.166-3.9Zm9.42,3.9,7.166-3.9v6.828l-7.166,3.9Zm9.42-5.182,10.311-6.688,7.468,4.064V47.291l-8.2,4.679-9.58-6.722ZM70.222,25.04v6.828l-7.164-3.9V21.142Zm-7.164,37V55.212l7.166,3.9v6.828Zm15.115-8.588L71.35,57.163l-6.823-3.711-.289-.157,7.111-4.058,7.111,4.058ZM71.35,15.166l7.111,4.058-.289.157L71.35,23.093l-6.823-3.711-.289-.157ZM60.843,28.924l-9.562,6.2-8.255-4.711V21.927l7.562-4.114L60.8,24.187v4.448a1.117,1.117,0,0,0,.04.289ZM41.9,2.666l7.11,4.059-6.8,3.7-.312.169-.312-.169-6.8-3.7ZM33.209,17.814l7.562,4.114v8.487l-8.255,4.711-9.562-6.2a1.117,1.117,0,0,0,.039-.289V24.187ZM12.445,15.166l7.111,4.058-.289.157-6.822,3.711L5.622,19.381l-.289-.157ZM4.153,21.142l7.166,3.9v6.827l-7.166-3.9Zm0,34.07,7.166,3.9v6.828l-7.166-3.9Zm9.42,3.9,7.166-3.9V62.04l-7.166,3.9Zm9.356,3.946a1.109,1.109,0,0,0,.064-.351V53.86l9.559-6.709,8.217,4.47v8.964l-8.856,5.053-.007.005-.008,0a1.111,1.111,0,0,0-.138.108.808.808,0,0,0-.088.069,1.115,1.115,0,0,0-.119.155c-.019.027-.043.049-.059.078a1.123,1.123,0,0,0-.11.268c-.009.033-.008.068-.014.1a1.1,1.1,0,0,0-.024.187v2.032ZM33.6,70.738V68.506l7.166,3.9v6.828l-7.166-3.9Zm9.42,8.494V72.4l7.166-3.9v6.828Zm9.42-12.619a1.1,1.1,0,0,0-.024-.184c-.006-.035,0-.071-.014-.105a1.121,1.121,0,0,0-.11-.268.876.876,0,0,0-.06-.079,1.115,1.115,0,0,0-.117-.153c-.026-.027-.06-.046-.089-.07a1.107,1.107,0,0,0-.138-.108l-.008,0-.007-.005-8.853-5.053V51.622l8.217-4.47L60.8,53.86v8.846a1.109,1.109,0,0,0,.064.351l-8.421,5.589Zm20.032-.677V59.11l7.166-3.9V62.04Zm0-34.07V25.04l7.166-3.9V27.97Z" transform="translate(6.102 -0.248)" fill="#e6b510"/>
  </g>
</svg>
