<svg xmlns="http://www.w3.org/2000/svg" xmlns:xlink="http://www.w3.org/1999/xlink" width="95" height="82" viewBox="0 0 95 82">
  <defs>
    <clipPath id="clip-Web_1920_435">
      <rect width="95" height="82"/>
    </clipPath>
  </defs>
  <g id="Web_1920_435" data-name="Web 1920 – 435" clip-path="url(#clip-Web_1920_435)">
    <g id="code" transform="translate(0 6.94)">
      <g id="Сгруппировать_4162" data-name="Сгруппировать 4162" transform="translate(0 0)">
        <path id="Контур_2657" data-name="Контур 2657" d="M88.042,71.5H83.169a1.392,1.392,0,1,0,0,2.783h4.873a4.18,4.18,0,0,1,4.175,4.175v6.4H2.783v-6.4a4.18,4.18,0,0,1,4.175-4.175h70.1a1.392,1.392,0,1,0,0-2.783H6.958A6.966,6.966,0,0,0,0,78.458V93.8a1.392,1.392,0,0,0,2.783,0V87.642H92.217V123.52a1.392,1.392,0,0,0,2.783,0V78.458A6.966,6.966,0,0,0,88.042,71.5Z" transform="translate(0 -71.5)" fill="#e6b510"/>
        <path id="Контур_2658" data-name="Контур 2658" d="M93.608,245.988a1.391,1.391,0,0,0-1.392,1.392V251a4.18,4.18,0,0,1-4.175,4.175H6.958A4.18,4.18,0,0,1,2.783,251v-33.24a1.392,1.392,0,1,0-2.783,0V251a6.966,6.966,0,0,0,6.958,6.959H88.042A6.966,6.966,0,0,0,95,251v-3.62A1.392,1.392,0,0,0,93.608,245.988Z" transform="translate(0 -189.491)" fill="#e6b510"/>
        <path id="Контур_2659" data-name="Контур 2659" d="M61.348,232.668a1.392,1.392,0,0,0-1.968,0l-8.363,8.363a1.392,1.392,0,0,0,0,1.968l8.253,8.253a1.392,1.392,0,0,0,1.968-1.968l-7.269-7.268,7.379-7.379A1.392,1.392,0,0,0,61.348,232.668Z" transform="translate(-41.218 -202.433)" fill="#e6b510"/>
        <path id="Контур_2660" data-name="Контур 2660" d="M207.069,251.252a1.392,1.392,0,0,0,1.968,0L217.29,243a1.392,1.392,0,0,0,0-1.968l-8.363-8.363a1.392,1.392,0,0,0-1.968,1.968l7.379,7.379-7.269,7.268A1.392,1.392,0,0,0,207.069,251.252Z" transform="translate(-168.227 -202.432)" fill="#e6b510"/>
        <path id="Контур_2661" data-name="Контур 2661" d="M125.882,235.667a1.392,1.392,0,0,0,1.3-.9l9.889-26.053a1.392,1.392,0,1,0-2.6-.988l-9.889,26.053a1.392,1.392,0,0,0,1.3,1.886Z" transform="translate(-101.391 -181.722)" fill="#e6b510"/>
        <path id="Контур_2662" data-name="Контур 2662" d="M33.006,97.046a4.175,4.175,0,1,0,4.175-4.175A4.18,4.18,0,0,0,33.006,97.046Zm5.567,0a1.392,1.392,0,1,1-1.392-1.392A1.393,1.393,0,0,1,38.573,97.046Z" transform="translate(-26.881 -88.905)" fill="#e6b510"/>
        <path id="Контур_2663" data-name="Контур 2663" d="M91.166,97.046a4.175,4.175,0,1,0,4.175-4.175A4.18,4.18,0,0,0,91.166,97.046Zm5.567,0a1.392,1.392,0,1,1-1.392-1.392A1.393,1.393,0,0,1,96.733,97.046Z" transform="translate(-74.251 -88.905)" fill="#e6b510"/>
        <path id="Контур_2664" data-name="Контур 2664" d="M149.325,97.046a4.175,4.175,0,1,0,4.175-4.175A4.18,4.18,0,0,0,149.325,97.046Zm5.567,0a1.392,1.392,0,1,1-1.392-1.392A1.393,1.393,0,0,1,154.892,97.046Z" transform="translate(-121.618 -88.905)" fill="#e6b510"/>
        <path id="Контур_2665" data-name="Контур 2665" d="M317.175,205.718H325.9a4.175,4.175,0,0,0,0-8.35h-8.721a4.175,4.175,0,0,0,0,8.35Zm0-5.567H325.9a1.392,1.392,0,1,1,0,2.783h-8.721a1.392,1.392,0,1,1,0-2.783Z" transform="translate(-254.925 -174.014)" fill="#e6b510"/>
        <path id="Контур_2666" data-name="Контур 2666" d="M317.175,265.718h23.01a4.175,4.175,0,1,0,0-8.35h-23.01a4.175,4.175,0,0,0,0,8.35Zm0-5.567h23.01a1.392,1.392,0,0,1,0,2.783h-23.01a1.392,1.392,0,0,1,0-2.783Z" transform="translate(-254.927 -222.881)" fill="#e6b510"/>
        <path id="Контур_2667" data-name="Контур 2667" d="M317.175,325.718H333.35a4.175,4.175,0,0,0,0-8.35H317.175a4.175,4.175,0,0,0,0,8.35Zm0-5.567H333.35a1.392,1.392,0,1,1,0,2.783H317.175a1.392,1.392,0,1,1,0-2.783Z" transform="translate(-254.927 -271.748)" fill="#e6b510"/>
      </g>
    </g>
  </g>
</svg>
