<svg xmlns="http://www.w3.org/2000/svg" xmlns:xlink="http://www.w3.org/1999/xlink" width="95" height="82" viewBox="0 0 95 82">
  <defs>
    <clipPath id="clip-Web_1920_427">
      <rect width="95" height="82"/>
    </clipPath>
  </defs>
  <g id="Web_1920_427" data-name="Web 1920 – 427" clip-path="url(#clip-Web_1920_427)">
    <g id="interview-3" transform="translate(1 -30.702)">
      <path id="Контур_2680" data-name="Контур 2680" d="M85.619,51.806h-19.7V38.1A7.4,7.4,0,0,0,58.536,30.7H7.381A7.4,7.4,0,0,0,0,38.1V58.421a1.362,1.362,0,1,0,2.725,0V38.1a4.665,4.665,0,0,1,4.656-4.665H58.536A4.665,4.665,0,0,1,63.192,38.1V74.275a4.665,4.665,0,0,1-4.656,4.665H29.068a2.845,2.845,0,0,0-2.027.841l-9.027,9.044a.142.142,0,0,1-.243-.1V81.812A2.873,2.873,0,0,0,14.9,78.939H7.381a4.666,4.666,0,0,1-4.656-4.665V63.88A1.362,1.362,0,1,0,0,63.88V74.275a7.4,7.4,0,0,0,7.381,7.394H14.9a.143.143,0,0,1,.142.142v6.913a2.865,2.865,0,0,0,4.894,2.031L27.083,83.6V95.378a7.4,7.4,0,0,0,7.38,7.394h16.5a1.365,1.365,0,0,0,0-2.73h-16.5a4.665,4.665,0,0,1-4.656-4.665V81.669H58.537a7.4,7.4,0,0,0,7.38-7.394V54.536h19.7A4.666,4.666,0,0,1,90.275,59.2V95.379a4.665,4.665,0,0,1-4.656,4.665H78.1a2.873,2.873,0,0,0-2.867,2.872v6.913a.124.124,0,0,1-.088.132.123.123,0,0,1-.155-.031l-9.027-9.044a2.845,2.845,0,0,0-2.027-.842h-7.52a1.365,1.365,0,0,0,0,2.73h7.52a.143.143,0,0,1,.1.042l9.027,9.044a2.866,2.866,0,0,0,4.894-2.031v-6.913a.143.143,0,0,1,.142-.142h7.523A7.4,7.4,0,0,0,93,95.379V59.2a7.4,7.4,0,0,0-7.381-7.394Z" transform="translate(0 0)" fill="#e6b510"/>
      <path id="Контур_2681" data-name="Контур 2681" d="M231.934,333.308a4.405,4.405,0,1,0,4.405-4.405A4.41,4.41,0,0,0,231.934,333.308Zm6.065,0a1.659,1.659,0,1,1-1.659-1.66A1.661,1.661,0,0,1,238,333.308Z" transform="translate(-189.839 -243.972)" fill="#e6b510"/>
      <path id="Контур_2682" data-name="Контур 2682" d="M157.383,233.908a4.405,4.405,0,1,0,4.405-4.405A4.41,4.41,0,0,0,157.383,233.908Zm6.065,0a1.66,1.66,0,1,1-1.659-1.659A1.661,1.661,0,0,1,163.448,233.908Z" transform="translate(-128.819 -162.648)" fill="#e6b510"/>
      <path id="Контур_2683" data-name="Контур 2683" d="M139.125,83.808a10.471,10.471,0,1,0-14.876-9.5,4.405,4.405,0,0,0,8.81,0,1.623,1.623,0,0,1,.528-1.214,1.666,1.666,0,0,1,1.259-.441,1.694,1.694,0,0,1,1.528,1.529,1.668,1.668,0,0,1-1.026,1.664,8.128,8.128,0,0,0-5.035,7.56v3.032a4.405,4.405,0,1,0,8.81,0v-2.63Zm-1.472-2.353a2.084,2.084,0,0,0-1.274,1.95v3.032a1.66,1.66,0,1,1-3.319,0V83.405a5.392,5.392,0,0,1,3.332-5.02,4.409,4.409,0,0,0,2.722-4.393,4.465,4.465,0,0,0-4.08-4.079q-.157-.011-.312-.011a4.405,4.405,0,0,0-4.407,4.405,1.66,1.66,0,0,1-3.319,0,7.725,7.725,0,1,1,10.658,7.148Z" transform="translate(-101.731 -27.071)" fill="#e6b510"/>
      <path id="Контур_2684" data-name="Контур 2684" d="M389.845,333.309a4.405,4.405,0,1,0-4.405,4.405A4.41,4.41,0,0,0,389.845,333.309Zm-6.065,0a1.659,1.659,0,1,1,1.659,1.66A1.661,1.661,0,0,1,383.781,333.309Z" transform="translate(-311.88 -243.973)" fill="#e6b510"/>
      <path id="Контур_2685" data-name="Контур 2685" d="M310.889,337.714a4.405,4.405,0,1,0-4.405-4.405A4.41,4.41,0,0,0,310.889,337.714Zm0-6.065a1.659,1.659,0,1,1-1.66,1.659A1.661,1.661,0,0,1,310.889,331.65Z" transform="translate(-250.859 -243.973)" fill="#e6b510"/>
    </g>
  </g>
</svg>
