<svg xmlns="http://www.w3.org/2000/svg" xmlns:xlink="http://www.w3.org/1999/xlink" width="95" height="82" viewBox="0 0 95 82">
  <defs>
    <clipPath id="clip-Web_1920_431">
      <rect width="95" height="82"/>
    </clipPath>
  </defs>
  <g id="Web_1920_431" data-name="Web 1920 – 431" clip-path="url(#clip-Web_1920_431)">
    <g id="balance" transform="translate(6.998 0.001)">
      <g id="Сгруппировать_4168" data-name="Сгруппировать 4168" transform="translate(0.002 -0.001)">
        <path id="Контур_2686" data-name="Контур 2686" d="M81.864,50l.012,0L68.414,20.622,71.679,19,70.457,16.55l-3.183,1.585-.43-.939a1.367,1.367,0,0,0-2.485,0l-.384.839A17.58,17.58,0,0,0,56.581,16.4H45.1V13.667h2.733V10.933H45.485L46.468,7A5.635,5.635,0,1,0,35.535,7l.983,3.932H34.168v2.733H36.9V16.4H25.429a17.581,17.581,0,0,0-7.4,1.64l-.384-.839a1.367,1.367,0,0,0-2.485,0l-.43.939-3.183-1.592L10.324,19l3.265,1.632L.126,50a1.335,1.335,0,0,0-.124.57,9.578,9.578,0,0,0,9.567,9.567H23.235A9.578,9.578,0,0,0,32.8,50.566,1.336,1.336,0,0,0,32.665,50l-13.5-29.486a14.865,14.865,0,0,1,6.263-1.382H36.9v50L32.236,73.8h-4.9A6.841,6.841,0,0,0,20.5,80.633,1.367,1.367,0,0,0,21.868,82H60.135A1.367,1.367,0,0,0,61.5,80.633,6.841,6.841,0,0,0,54.668,73.8h-4.9L45.1,69.134v-50h11.48a14.865,14.865,0,0,1,6.263,1.382L49.326,50a1.335,1.335,0,0,0-.124.57,9.578,9.578,0,0,0,9.567,9.567H72.435A9.578,9.578,0,0,0,82,50.566,1.331,1.331,0,0,0,81.864,50ZM23.235,57.4H9.568a6.844,6.844,0,0,1-6.7-5.467h27.06A6.844,6.844,0,0,1,23.235,57.4Zm6.071-8.2H3.5L16.052,21.811a1.35,1.35,0,0,0,.7,0ZM38.715,3.849a2.99,2.99,0,0,1,4.573,0,2.885,2.885,0,0,1,.529,2.49l-1.149,4.595H39.336L38.186,6.339A2.885,2.885,0,0,1,38.715,3.849Zm.92,12.551V13.667h2.733V16.4Zm2.733,2.733v49.2H39.635v-49.2Zm12.3,57.4a4.108,4.108,0,0,1,3.866,2.733H23.469a4.108,4.108,0,0,1,3.866-2.733ZM45.9,73.8H36.1l2.733-2.733h4.335ZM65.249,21.815a.933.933,0,0,0,.692-.029L78.505,49.2H52.7ZM72.435,57.4H58.768a6.844,6.844,0,0,1-6.7-5.467h27.06A6.844,6.844,0,0,1,72.435,57.4Z" transform="translate(-0.002 0.001)" fill="#e6b510"/>
      </g>
    </g>
  </g>
</svg>
