<svg xmlns="http://www.w3.org/2000/svg" xmlns:xlink="http://www.w3.org/1999/xlink" width="95" height="82" viewBox="0 0 95 82">
  <defs>
    <clipPath id="clip-Web_1920_434">
      <rect width="95" height="82"/>
    </clipPath>
  </defs>
  <g id="Web_1920_434" data-name="Web 1920 – 434" clip-path="url(#clip-Web_1920_434)">
    <g id="Analysis-report-document-develop-infromation" transform="translate(4.99 -2)">
      <path id="Контур_2673" data-name="Контур 2673" d="M83.613,17.43,68.577,2.4a1.412,1.412,0,0,0-.97-.4H33.435a4.113,4.113,0,0,0-4.1,4.1v8.268a28.663,28.663,0,0,0,0,57.263V79.9a4.113,4.113,0,0,0,4.1,4.1H79.908a4.113,4.113,0,0,0,4.1-4.1V18.4a1.412,1.412,0,0,0-.4-.97ZM68.973,6.66,79.348,17.033H70.34a1.367,1.367,0,0,1-1.367-1.367ZM4.73,43a26,26,0,0,1,24.6-25.926V42.44l-17.906,17.9A25.8,25.8,0,0,1,4.73,43Zm8.625,19.27,17.906-17.9H56.631a25.921,25.921,0,0,1-43.275,17.9ZM81.275,79.9a1.367,1.367,0,0,1-1.367,1.367H33.435A1.367,1.367,0,0,1,32.068,79.9V71.632A28.721,28.721,0,0,0,59.405,43a1.367,1.367,0,0,0-1.367-1.367H32.068V6.1a1.367,1.367,0,0,1,1.367-1.367h32.8V15.667a4.113,4.113,0,0,0,4.1,4.1H81.275Z" transform="translate(0 0)" fill="#e6b510"/>
      <path id="Контур_2674" data-name="Контур 2674" d="M27.35,7A1.35,1.35,0,0,0,26,8.35v27a1.35,1.35,0,0,0,1.35,1.35h27a1.35,1.35,0,0,0,1.35-1.35A28.381,28.381,0,0,0,27.35,7ZM28.7,34V9.741A25.673,25.673,0,0,1,52.959,34Z" transform="translate(9.036 1.75)" fill="#e6b510"/>
      <path id="Контур_2675" data-name="Контур 2675" d="M52.15,40A12.15,12.15,0,1,0,64.3,52.15,12.15,12.15,0,0,0,52.15,40Zm0,21.6a9.45,9.45,0,1,1,9.45-9.45A9.45,9.45,0,0,1,52.15,61.6Z" transform="translate(14.309 14.3)" fill="#e6b510"/>
      <path id="Контур_2676" data-name="Контур 2676" d="M48.3,52.439l-3.1-3.1-1.909,1.909,4.05,4.05a1.35,1.35,0,0,0,1.909,0l8.1-8.1-1.909-1.909Z" transform="translate(15.462 15.98)" fill="#e6b510"/>
      <path id="Контур_2677" data-name="Контур 2677" d="M50,19H60.8v2.7H50Z" transform="translate(17.809 6.243)" fill="#e6b510"/>
      <path id="Контур_2678" data-name="Контур 2678" d="M50,25H60.8v2.7H50Z" transform="translate(17.809 8.447)" fill="#e6b510"/>
      <path id="Контур_2679" data-name="Контур 2679" d="M50,31H60.8v2.7H50Z" transform="translate(17.809 10.65)" fill="#e6b510"/>
    </g>
  </g>
</svg>
