<svg xmlns="http://www.w3.org/2000/svg" xmlns:xlink="http://www.w3.org/1999/xlink" width="95" height="82" viewBox="0 0 95 82">
  <defs>
    <clipPath id="clip-Web_1920_432">
      <rect width="95" height="82"/>
    </clipPath>
  </defs>
  <g id="Web_1920_432" data-name="Web 1920 – 432" clip-path="url(#clip-Web_1920_432)">
    <g id="internet-2" transform="translate(7.346)">
      <g id="Сгруппировать_4171" data-name="Сгруппировать 4171" transform="translate(0 0)">
        <path id="Контур_2687" data-name="Контур 2687" d="M41,82a3.608,3.608,0,0,1-3.6-3.6q0-.1,0-.19L17.234,69.853a3.6,3.6,0,1,1,.926-2.409c0,.064,0,.127,0,.19l20.167,8.353a3.6,3.6,0,0,1,5.355,0l20.167-8.353c0-.063,0-.127,0-.19a3.608,3.608,0,1,1,.926,2.409L44.6,78.206c0,.063,0,.127,0,.19A3.608,3.608,0,0,1,41,82Zm0-4.8a1.2,1.2,0,1,0,1.2,1.2A1.2,1.2,0,0,0,41,77.2ZM67.443,66.242a1.2,1.2,0,1,0,1.2,1.2A1.2,1.2,0,0,0,67.443,66.242Zm-52.886,0a1.2,1.2,0,1,0,1.2,1.2A1.2,1.2,0,0,0,14.557,66.242ZM41,67.586A26.586,26.586,0,1,1,55.559,18.751a1.2,1.2,0,1,1-1.317,2.009,24.084,24.084,0,0,0-4.28-2.229,21.378,21.378,0,0,1,2.993,3.895,27.57,27.57,0,0,1,1.558,2.959h4.96a24.872,24.872,0,0,0-1.918-2.014A1.2,1.2,0,0,1,59.2,21.62,26.586,26.586,0,0,1,41,67.586Zm1.2-10.971V65.1c3.249-.469,6.3-2.832,8.7-6.772q.5-.823.948-1.71Zm-12.052,0q.447.886.948,1.71c2.4,3.94,5.452,6.3,8.7,6.772V56.615Zm24.363,0a27.585,27.585,0,0,1-1.558,2.959,21.4,21.4,0,0,1-2.983,3.884,24.3,24.3,0,0,0,9.481-6.843h-4.94Zm-31.965,0a24.3,24.3,0,0,0,9.481,6.843,21.4,21.4,0,0,1-2.983-3.884,27.57,27.57,0,0,1-1.558-2.959h-4.94Zm32.934-2.4h5.766A24.035,24.035,0,0,0,65.154,42.2H57.64A39.157,39.157,0,0,1,55.481,54.213Zm-13.28,0H52.919A36.183,36.183,0,0,0,55.237,42.2H42.2Zm-13.12,0H39.8V42.2H26.763a36.183,36.183,0,0,0,2.318,12.012Zm-8.328,0h5.766A39.152,39.152,0,0,1,24.36,42.2H16.846A24.035,24.035,0,0,0,20.753,54.213ZM57.64,39.8h7.515a23.887,23.887,0,0,0-3.883-12.012h-5.79A39.157,39.157,0,0,1,57.64,39.8ZM42.2,39.8H55.237a36.175,36.175,0,0,0-2.318-12.012H42.2v2.8a1.2,1.2,0,0,1-2.4,0v-2.8H29.081A36.183,36.183,0,0,0,26.763,39.8H39.8v-4.4a1.2,1.2,0,1,1,2.4,0Zm-25.355,0H24.36a39.157,39.157,0,0,1,2.159-12.012H20.753A24.035,24.035,0,0,0,16.846,39.8ZM42.2,25.385h9.649q-.447-.886-.948-1.71c-2.4-3.94-5.452-6.3-8.7-6.772Zm-12.052,0H39.8V16.9c-3.249.469-6.3,2.832-8.7,6.772Q30.6,24.5,30.149,25.385Zm-7.6,0h4.941a27.584,27.584,0,0,1,1.558-2.959,21.4,21.4,0,0,1,2.983-3.884,24.3,24.3,0,0,0-9.482,6.843ZM70.033,62.392a1.2,1.2,0,0,1-1.109-1.661l7.064-17.054a3.6,3.6,0,0,1,0-5.355L67.634,18.155c-.063,0-.127,0-.19,0a3.608,3.608,0,1,1,2.409-.926L78.206,37.4c.063,0,.127,0,.19,0a3.6,3.6,0,0,1,0,7.207q-.1,0-.19,0L71.143,61.651A1.2,1.2,0,0,1,70.033,62.392ZM78.4,39.8A1.2,1.2,0,1,0,79.6,41,1.2,1.2,0,0,0,78.4,39.8ZM67.443,13.356a1.2,1.2,0,1,0,1.2,1.2A1.2,1.2,0,0,0,67.443,13.356ZM11.967,62.392a1.2,1.2,0,0,1-1.11-.742L3.794,44.6c-.063,0-.127,0-.19,0a3.6,3.6,0,0,1,0-7.207q.1,0,.19,0l8.353-20.167a3.6,3.6,0,1,1,5.087-5.087L37.4,3.794c0-.063,0-.127,0-.19a3.6,3.6,0,0,1,7.207,0q0,.1,0,.19l17.076,7.073a1.2,1.2,0,0,1-.919,2.219L43.677,6.013a3.6,3.6,0,0,1-5.355,0L18.155,14.366c0,.063,0,.127,0,.19a3.608,3.608,0,0,1-3.6,3.6q-.1,0-.19,0L6.013,38.323a3.6,3.6,0,0,1,0,5.355l7.064,17.054a1.2,1.2,0,0,1-1.109,1.661ZM3.6,39.8A1.2,1.2,0,1,0,4.8,41,1.2,1.2,0,0,0,3.6,39.8ZM14.557,13.356a1.2,1.2,0,1,0,1.2,1.2A1.2,1.2,0,0,0,14.557,13.356ZM41,2.4a1.2,1.2,0,1,0,1.2,1.2A1.2,1.2,0,0,0,41,2.4Z" transform="translate(0 0)" fill="#e6b510"/>
      </g>
    </g>
  </g>
</svg>
